<svg width="906" height="148" viewBox="0 0 906 148" fill="none" xmlns="http://www.w3.org/2000/svg">
<path d="M79.2 57.1C79.2 60.7667 78.2667 64.2667 76.4 67.6C74.6 70.9333 72.1333 73.8667 69 76.4C65.9333 78.8667 62.3 80.8333 58.1 82.3C53.9667 83.7667 49.5667 84.5 44.9 84.5C43.2333 84.5 41.9 84.3 40.9 83.9C39.9667 83.4333 38.9 82.5667 37.7 81.3C34.3667 88.5667 31.6333 95.2667 29.5 101.4C27.4333 107.467 25.8 113.367 24.6 119.1C22.0667 118.5 20 117.433 18.4 115.9C16.8 114.433 15.3333 112.567 14 110.3C14.6667 109.033 15.4667 107.367 16.4 105.3C17.3333 103.233 18.4667 100.7 19.8 97.7C21.1333 94.6333 22.6667 91 24.4 86.8C26.2 82.5333 28.3 77.5667 30.7 71.9C31.7667 69.3 32.7 67.0333 33.5 65.1C34.3 63.1667 35 61.3667 35.6 59.7C36.2 57.9667 36.7333 56.2667 37.2 54.6C37.7333 52.9333 38.2667 51.1 38.8 49.1C35.6667 50.1 32.7667 51.2667 30.1 52.6C27.5 53.9333 25.3333 55.3333 23.6 56.8C23 56.4 22.3667 55.8 21.7 55C21.1 54.2 20.5333 53.3333 20 52.4C19.4667 51.4 19 50.4 18.6 49.4C18.2 48.4 17.9667 47.5 17.9 46.7C19.8333 45.3667 22.2333 44.1333 25.1 43C27.9667 41.8667 31.0333 40.9 34.3 40.1C37.5667 39.2333 40.9333 38.5667 44.4 38.1C47.9333 37.6333 51.3 37.4 54.5 37.4C58.3 37.4 61.7333 37.9 64.8 38.9C67.8667 39.8333 70.4667 41.1667 72.6 42.9C74.7333 44.6333 76.3667 46.7 77.5 49.1C78.6333 51.5 79.2 54.1667 79.2 57.1ZM61.4 45.1C58.8667 45.1 56.2667 45.3 53.6 45.7L54.8 47.5C54.1333 48.3667 53.3 49.6667 52.3 51.4C51.3 53.1333 50.2 55.2333 49 57.7C47.8 60.1 46.4667 62.8 45 65.8C43.6 68.8 42.1 71.9667 40.5 75.3C45.7 75.3 50.4333 74.8333 54.7 73.9C58.9667 72.9 62.6 71.5667 65.6 69.9C68.6667 68.1667 71.0333 66.1667 72.7 63.9C74.4333 61.6333 75.3 59.2 75.3 56.6C75.3 53.1333 74.1333 50.3667 71.8 48.3C69.4667 46.1667 66 45.1 61.4 45.1ZM85 114.5C81.2 114.1 78.1667 112.433 75.9 109.5C73.6333 106.567 72.5 102.833 72.5 98.3C72.5 95.6333 72.9 92.8667 73.7 90C74.5 87.1333 75.6333 84.3667 77.1 81.7C78.5667 78.9667 80.3 76.4 82.3 74C84.3 71.6 86.4667 69.5333 88.8 67.8C92.4667 65.0667 95.9 63.7 99.1 63.7C101.233 64.8333 103.333 67.2 105.4 70.8C105.733 70.8 106.033 70.8 106.3 70.8C106.567 70.7333 106.867 70.7 107.2 70.7C110.733 70.7 112.5 73.8333 112.5 80.1C112.5 84.3 111.8 88.3 110.4 92.1C109.067 95.8333 107.167 99.2333 104.7 102.3C102.3 105.367 99.4 107.967 96 110.1C92.6667 112.167 89 113.633 85 114.5ZM90.1 83C88.9667 84.5333 87.9 86.2 86.9 88C85.9 89.8 85.0333 91.6333 84.3 93.5C83.5667 95.3 83 97.0667 82.6 98.8C82.2 100.467 82 101.967 82 103.3C82 104.9 82.2667 106.433 82.8 107.9C83.3333 109.367 83.9333 110.2 84.6 110.4C87.6 109.733 90.3333 108.5 92.8 106.7C95.3333 104.833 97.5 102.533 99.3 99.8C101.167 97.0667 102.6 93.9667 103.6 90.5C104.667 87.0333 105.2 83.3333 105.2 79.4C105.2 77.6667 105.1 76.3 104.9 75.3C104.7 74.3 104.367 73.4333 103.9 72.7C100.967 73.5667 98.3333 74.9667 96 76.9C93.7333 78.8333 91.7667 80.8667 90.1 83ZM144.541 108.8C143.274 107.733 142.407 106.4 141.941 104.8C141.541 103.2 141.341 101.833 141.341 100.7C141.341 99.3 141.507 98.1 141.841 97.1C141.574 97.1 140.974 97.6333 140.041 98.7C139.107 99.7667 138.074 101.033 136.941 102.5C135.874 103.967 134.807 105.4 133.741 106.8C132.674 108.2 131.874 109.233 131.341 109.9C130.474 110.833 129.641 111.567 128.841 112.1C128.107 112.633 127.507 112.933 127.041 113C125.974 112.933 124.841 112.7 123.641 112.3C122.507 111.967 121.407 111.467 120.341 110.8C119.341 110.133 118.441 109.333 117.641 108.4C116.907 107.467 116.407 106.4 116.141 105.2C116.141 103.333 116.174 101.8 116.241 100.6C116.374 99.4 116.607 98.1 116.941 96.7C117.541 94.1667 118.407 91.3 119.541 88.1C120.741 84.9 122.107 81.7667 123.641 78.7C125.174 75.5667 126.874 72.6667 128.741 70C130.674 67.2667 132.707 65.1333 134.841 63.6C135.441 63.6 136.141 63.6667 136.941 63.8C137.741 63.8667 138.541 64.0333 139.341 64.3C140.207 64.5667 141.007 64.9 141.741 65.3C142.541 65.6333 143.207 66.1 143.741 66.7C143.141 67.3667 141.607 69.6 139.141 73.4C136.741 77.2 134.041 82.6667 131.041 89.8C130.707 90.5333 130.307 91.6 129.841 93C129.374 94.4 128.907 95.8667 128.441 97.4C127.974 98.9333 127.574 100.433 127.241 101.9C126.974 103.367 126.841 104.533 126.841 105.4C126.841 105.933 126.907 106.333 127.041 106.6C127.241 106.867 127.407 107.067 127.541 107.2C128.541 106.8 129.807 105.7 131.341 103.9C132.874 102.1 135.007 99.3333 137.741 95.6C138.407 94.6667 139.174 93.6 140.041 92.4C140.974 91.2 141.907 89.9333 142.841 88.6C143.774 87.2 144.641 85.7667 145.441 84.3C146.307 82.8333 147.007 81.3667 147.541 79.9C147.807 79.1 148.141 78.1667 148.541 77.1C149.007 75.9667 149.541 74.8 150.141 73.6C150.807 72.4 151.541 71.2 152.341 70C153.207 68.7333 154.207 67.5667 155.341 66.5C156.207 66.5 157.141 66.6 158.141 66.8C159.141 67 160.074 67.2667 160.941 67.6C161.874 67.8667 162.674 68.2 163.341 68.6C164.007 68.9333 164.507 69.3 164.841 69.7C163.641 72.6333 162.307 75.5333 160.841 78.4C159.374 81.2667 158.007 84.1 156.741 86.9C155.474 89.6333 154.407 92.3667 153.541 95.1C152.674 97.8333 152.241 100.5 152.241 103.1C152.241 104.5 152.341 105.733 152.541 106.8C152.807 107.8 153.074 108.667 153.341 109.4C153.607 110.067 153.841 110.633 154.041 111.1C154.307 111.567 154.441 111.967 154.441 112.3C154.441 112.367 154.374 112.467 154.241 112.6C154.174 112.667 154.107 112.7 154.041 112.7C153.574 112.7 152.974 112.6 152.241 112.4C151.507 112.2 150.674 111.9 149.741 111.5C148.874 111.167 147.974 110.767 147.041 110.3C146.174 109.833 145.341 109.333 144.541 108.8ZM164.355 109C164.688 107.067 165.255 104.533 166.055 101.4C166.921 98.2 167.921 94.8333 169.055 91.3C170.188 87.7 171.388 84.1 172.655 80.5C173.921 76.9 175.155 73.6667 176.355 70.8C177.221 68.7333 177.988 67.1333 178.655 66C179.321 64.8 180.055 63.8 180.855 63C181.788 63.1333 182.755 63.3667 183.755 63.7C184.755 64.0333 185.721 64.4333 186.655 64.9C187.588 65.3667 188.421 65.8667 189.155 66.4C189.888 66.8667 190.455 67.3333 190.855 67.8C189.055 69.9333 187.455 72.3667 186.055 75.1C184.721 77.8333 183.355 81.3333 181.955 85.6C185.555 82.4 188.721 79.3333 191.455 76.4C194.255 73.4667 196.855 70.2 199.255 66.6C199.655 66.2667 200.355 66.1 201.355 66.1C202.288 66.1 203.188 66.2667 204.055 66.6C204.921 66.8667 205.521 67.2667 205.855 67.8C204.655 71 204.055 74.1667 204.055 77.3C204.055 80.2333 204.488 82.4333 205.355 83.9C205.288 84.3 204.821 85.0667 203.955 86.2C203.155 87.3333 202.255 88.4 201.255 89.4C199.455 88.4667 197.855 87.2 196.455 85.6C195.055 83.9333 194.021 82.1333 193.355 80.2C190.221 82.4 187.555 84.5667 185.355 86.7C183.155 88.7667 181.255 91.1 179.655 93.7C178.121 96.2333 176.788 99.1667 175.655 102.5C174.588 105.833 173.555 109.8 172.555 114.4C171.955 114.333 171.221 114.1 170.355 113.7C169.555 113.367 168.721 112.933 167.855 112.4C167.055 111.867 166.321 111.3 165.655 110.7C164.988 110.1 164.555 109.533 164.355 109ZM240.024 71.2C239.958 72.4667 239.724 73.8 239.324 75.2C238.991 76.5333 238.558 77.7667 238.024 78.9C237.491 79.9667 236.924 80.8667 236.324 81.6C235.724 82.3333 235.158 82.7 234.624 82.7C233.891 82.6333 233.458 82.1333 233.324 81.2C233.324 81 233.391 80.7 233.524 80.3C233.724 79.8333 233.924 79.3333 234.124 78.8C234.324 78.2667 234.491 77.7333 234.624 77.2C234.824 76.6667 234.924 76.2 234.924 75.8C234.924 74.8667 234.691 74.1 234.224 73.5C233.824 72.8333 233.258 72.5 232.524 72.5C229.858 72.5 227.824 74.1667 226.424 77.5C225.024 80.8333 224.324 85.7333 224.324 92.2C224.324 92.8667 224.358 93.2667 224.424 93.4C225.824 93.3333 227.058 93.3 228.124 93.3C229.258 93.2333 230.358 93.2 231.424 93.2C231.491 93.3333 231.524 93.6 231.524 94C231.524 94.6 231.391 95.0333 231.124 95.3C229.591 95.6333 228.358 95.9333 227.424 96.2C226.558 96.4 225.891 96.6 225.424 96.8C224.958 97 224.658 97.2333 224.524 97.5C224.458 97.7 224.424 98 224.424 98.4C224.424 98.9333 224.424 99.4667 224.424 100C224.491 100.533 224.524 101.2 224.524 102C224.524 107.6 222.991 112.1 219.924 115.5C216.924 118.9 212.724 120.867 207.324 121.4C206.391 121.333 205.424 121.067 204.424 120.6C203.424 120.133 202.458 119.533 201.524 118.8C200.658 118.067 199.891 117.233 199.224 116.3C198.558 115.433 198.091 114.533 197.824 113.6C197.824 111.067 198.358 108.667 199.424 106.4C200.491 104.067 201.924 102.033 203.724 100.3C205.591 98.5 207.758 97.0667 210.224 96C212.758 94.8667 215.491 94.2 218.424 94C218.424 92.3333 218.258 90.7 217.924 89.1C217.591 87.5 217.224 85.9667 216.824 84.5C216.491 82.9667 216.158 81.5 215.824 80.1C215.491 78.6333 215.324 77.2 215.324 75.8C215.324 74 215.691 72.2333 216.424 70.5C217.158 68.7 218.124 67.0667 219.324 65.6C220.524 64.0667 221.924 62.7667 223.524 61.7C225.124 60.6333 226.791 59.9 228.524 59.5C229.258 59.7 230.224 60.3 231.424 61.3C232.691 62.2333 233.924 63.3 235.124 64.5C236.324 65.7 237.391 66.9333 238.324 68.2C239.258 69.4 239.824 70.4 240.024 71.2ZM207.024 116.8C208.624 116.133 210.124 115.167 211.524 113.9C212.991 112.633 214.258 111.2 215.324 109.6C216.391 108 217.224 106.3 217.824 104.5C218.491 102.7 218.824 100.933 218.824 99.2C217.491 99.4 216.024 100.033 214.424 101.1C212.824 102.1 211.324 103.333 209.924 104.8C208.524 106.2 207.358 107.667 206.424 109.2C205.491 110.733 205.024 112.067 205.024 113.2C205.024 114.667 205.691 115.867 207.024 116.8ZM267.295 108.8C266.028 107.733 265.161 106.4 264.695 104.8C264.295 103.2 264.095 101.833 264.095 100.7C264.095 99.3 264.261 98.1 264.595 97.1C264.328 97.1 263.728 97.6333 262.795 98.7C261.861 99.7667 260.828 101.033 259.695 102.5C258.628 103.967 257.561 105.4 256.495 106.8C255.428 108.2 254.628 109.233 254.095 109.9C253.228 110.833 252.395 111.567 251.595 112.1C250.861 112.633 250.261 112.933 249.795 113C248.728 112.933 247.595 112.7 246.395 112.3C245.261 111.967 244.161 111.467 243.095 110.8C242.095 110.133 241.195 109.333 240.395 108.4C239.661 107.467 239.161 106.4 238.895 105.2C238.895 103.333 238.928 101.8 238.995 100.6C239.128 99.4 239.361 98.1 239.695 96.7C240.295 94.1667 241.161 91.3 242.295 88.1C243.495 84.9 244.861 81.7667 246.395 78.7C247.928 75.5667 249.628 72.6667 251.495 70C253.428 67.2667 255.461 65.1333 257.595 63.6C258.195 63.6 258.895 63.6667 259.695 63.8C260.495 63.8667 261.295 64.0333 262.095 64.3C262.961 64.5667 263.761 64.9 264.495 65.3C265.295 65.6333 265.961 66.1 266.495 66.7C265.895 67.3667 264.361 69.6 261.895 73.4C259.495 77.2 256.795 82.6667 253.795 89.8C253.461 90.5333 253.061 91.6 252.595 93C252.128 94.4 251.661 95.8667 251.195 97.4C250.728 98.9333 250.328 100.433 249.995 101.9C249.728 103.367 249.595 104.533 249.595 105.4C249.595 105.933 249.661 106.333 249.795 106.6C249.995 106.867 250.161 107.067 250.295 107.2C251.295 106.8 252.561 105.7 254.095 103.9C255.628 102.1 257.761 99.3333 260.495 95.6C261.161 94.6667 261.928 93.6 262.795 92.4C263.728 91.2 264.661 89.9333 265.595 88.6C266.528 87.2 267.395 85.7667 268.195 84.3C269.061 82.8333 269.761 81.3667 270.295 79.9C270.561 79.1 270.895 78.1667 271.295 77.1C271.761 75.9667 272.295 74.8 272.895 73.6C273.561 72.4 274.295 71.2 275.095 70C275.961 68.7333 276.961 67.5667 278.095 66.5C278.961 66.5 279.895 66.6 280.895 66.8C281.895 67 282.828 67.2667 283.695 67.6C284.628 67.8667 285.428 68.2 286.095 68.6C286.761 68.9333 287.261 69.3 287.595 69.7C286.395 72.6333 285.061 75.5333 283.595 78.4C282.128 81.2667 280.761 84.1 279.495 86.9C278.228 89.6333 277.161 92.3667 276.295 95.1C275.428 97.8333 274.995 100.5 274.995 103.1C274.995 104.5 275.095 105.733 275.295 106.8C275.561 107.8 275.828 108.667 276.095 109.4C276.361 110.067 276.595 110.633 276.795 111.1C277.061 111.567 277.195 111.967 277.195 112.3C277.195 112.367 277.128 112.467 276.995 112.6C276.928 112.667 276.861 112.7 276.795 112.7C276.328 112.7 275.728 112.6 274.995 112.4C274.261 112.2 273.428 111.9 272.495 111.5C271.628 111.167 270.728 110.767 269.795 110.3C268.928 109.833 268.095 109.333 267.295 108.8ZM289.12 104.3C289.12 103.7 289.154 102.967 289.22 102.1C289.354 101.167 289.554 99.9667 289.82 98.5C290.087 96.9667 290.42 95.1333 290.82 93C291.287 90.8667 291.854 88.3 292.52 85.3C292.654 84.6333 292.954 83.5667 293.42 82.1C293.887 80.6333 294.487 79.1 295.22 77.5C296.02 75.8333 296.954 74.2333 298.02 72.7C299.154 71.1667 300.487 70.0333 302.02 69.3C303.154 69.5667 304.654 70.2667 306.52 71.4C308.387 72.4667 309.987 73.9667 311.32 75.9C309.787 77.6333 308.487 79.3667 307.42 81.1C306.42 82.8333 305.487 84.6333 304.62 86.5C303.82 88.3667 303.054 90.3 302.32 92.3C301.654 94.3 300.887 96.4 300.02 98.6C299.287 100.467 298.62 102.4 298.02 104.4C297.42 106.333 297.087 108.033 297.02 109.5C297.02 110.7 296.987 111.533 296.92 112C296.92 112.533 296.754 112.8 296.42 112.8C296.154 112.8 295.62 112.633 294.82 112.3C294.02 111.967 293.187 111.467 292.32 110.8C291.52 110.067 290.787 109.167 290.12 108.1C289.454 107.033 289.12 105.767 289.12 104.3ZM308.22 60.9C308.22 60.5 308.32 59.9 308.52 59.1C308.187 58.7667 307.887 58.2667 307.62 57.6C307.42 56.9333 307.32 56.3333 307.32 55.8C307.32 55.2 307.387 54.4 307.52 53.4C307.72 52.3333 307.954 51.2 308.22 50C308.487 48.8 308.82 47.5667 309.22 46.3C309.62 44.9667 310.02 43.7667 310.42 42.7C311.22 42.7 312.187 42.9333 313.32 43.4C314.52 43.8 315.72 44.3667 316.92 45.1C318.12 45.7667 319.22 46.5333 320.22 47.4C321.22 48.2 321.987 48.9667 322.52 49.7C321.787 50.4333 320.82 51.4667 319.62 52.8C318.42 54.0667 317.254 55.4333 316.12 56.9C314.987 58.3 313.954 59.6333 313.02 60.9C312.087 62.1667 311.487 63.0667 311.22 63.6C310.42 63.4667 309.72 63.1333 309.12 62.6C308.52 62 308.22 61.4333 308.22 60.9ZM317.87 72.7C317.536 72.3 317.236 71.4667 316.97 70.2C316.703 68.8667 316.57 67.7333 316.57 66.8C318.303 66.9333 319.97 67.0667 321.57 67.2C323.17 67.2667 324.636 67.3333 325.97 67.4C326.97 65.4 328.036 63.4333 329.17 61.5C330.37 59.5 331.503 57.7 332.57 56.1C333.703 54.4333 334.736 53.0333 335.67 51.9C336.67 50.7667 337.436 50.0333 337.97 49.7C338.636 49.7 339.47 49.8333 340.47 50.1C341.536 50.3 342.603 50.6 343.67 51C344.736 51.3333 345.703 51.7 346.57 52.1C347.436 52.5 348.036 52.9 348.37 53.3C346.37 55.8333 344.636 58.2 343.17 60.4C341.77 62.5333 340.236 65 338.57 67.8C339.903 67.8 341.236 67.7667 342.57 67.7C343.97 67.6333 345.37 67.5333 346.77 67.4C347.103 67.7333 347.37 68.1667 347.57 68.7C347.77 69.1667 347.87 69.6667 347.87 70.2C344.603 71.4 340.636 72.0667 335.97 72.2C334.303 75.4 332.803 78.6 331.47 81.8C330.203 84.9333 329.103 87.9667 328.17 90.9C327.303 93.8333 326.603 96.6 326.07 99.2C325.603 101.8 325.37 104.133 325.37 106.2C325.37 109.133 326.47 110.767 328.67 111.1C330.67 110.833 332.57 110.333 334.37 109.6C336.17 108.867 337.77 107.933 339.17 106.8C339.57 107.4 339.803 107.9 339.87 108.3C339.47 108.9 338.77 109.6 337.77 110.4C336.836 111.2 335.803 111.967 334.67 112.7C333.536 113.5 332.436 114.167 331.37 114.7C330.303 115.233 329.503 115.533 328.97 115.6C327.303 115.533 325.636 115.167 323.97 114.5C322.303 113.833 320.77 113 319.37 112C318.036 111 316.936 109.9 316.07 108.7C315.203 107.433 314.77 106.2 314.77 105C314.77 103.4 314.97 101.4 315.37 99C315.836 96.5333 316.47 93.8667 317.27 91C318.07 88.1333 319.003 85.1333 320.07 82C321.136 78.8667 322.303 75.7667 323.57 72.7H317.87ZM382.926 69.6C382.659 73.7333 381.926 77.3 380.726 80.3C379.526 83.2333 377.792 85.8333 375.526 88.1C373.326 90.3 370.626 92.3 367.426 94.1C364.226 95.9 360.492 97.6333 356.226 99.3C356.226 99.7 356.192 100.133 356.126 100.6C356.126 101 356.126 101.433 356.126 101.9C356.126 102.767 356.192 103.667 356.326 104.6C356.459 105.533 356.692 106.4 357.026 107.2C357.359 108 357.826 108.667 358.426 109.2C359.026 109.667 359.792 109.9 360.726 109.9C362.526 109.9 364.292 109.5 366.026 108.7C367.759 107.9 369.392 106.933 370.926 105.8C372.526 104.6 373.992 103.333 375.326 102C376.726 100.6 377.959 99.3333 379.026 98.2C379.692 98.8 380.259 99.3667 380.726 99.9C377.726 103.9 374.426 107.233 370.826 109.9C367.292 112.5 363.926 114.167 360.726 114.9C356.126 114.367 352.526 112.7 349.926 109.9C347.392 107.033 346.126 103.6 346.126 99.6C346.126 96.8667 346.492 94.1 347.226 91.3C348.026 88.4333 349.092 85.7 350.426 83.1C351.826 80.4333 353.426 77.9333 355.226 75.6C357.092 73.2667 359.059 71.2333 361.126 69.5C363.259 67.7667 365.426 66.4 367.626 65.4C369.892 64.4 372.126 63.9 374.326 63.9C377.392 64.3 380.259 66.2 382.926 69.6ZM376.026 72.9C374.226 73.1667 372.359 73.9 370.426 75.1C368.492 76.3 366.659 77.9 364.926 79.9C363.259 81.9 361.726 84.2333 360.326 86.9C358.926 89.5667 357.826 92.4333 357.026 95.5C362.359 92.8333 366.792 89.5667 370.326 85.7C373.859 81.7667 375.759 77.5 376.026 72.9ZM414.784 105.3C414.784 102.9 415.15 99.8 415.884 96C416.684 92.1333 417.684 88 418.884 83.6C420.15 79.1333 421.584 74.6 423.184 70C424.784 65.3333 426.417 60.9667 428.084 56.9C429.75 52.8333 431.384 49.2667 432.984 46.2C434.584 43.1333 436.017 40.9333 437.284 39.6C437.95 39.6667 438.817 39.9333 439.884 40.4C441.017 40.8 442.15 41.3 443.284 41.9C444.417 42.5 445.45 43.1667 446.384 43.9C447.317 44.5667 447.917 45.2 448.184 45.8C446.25 47.5333 444.317 50.1667 442.384 53.7C440.517 57.1667 438.684 61.1333 436.884 65.6C435.15 70.0667 433.517 74.8 431.984 79.8C430.45 84.7333 429.117 89.5333 427.984 94.2C426.85 98.8667 425.95 103.2 425.284 107.2C424.684 111.2 424.384 114.433 424.384 116.9C424.384 118.033 424.484 118.733 424.684 119C423.217 118.933 422.15 118.667 421.484 118.2C420.817 117.8 420.284 117.333 419.884 116.8C419.55 116.333 419.217 115.833 418.884 115.3C418.617 114.833 418.184 114.467 417.584 114.2C417.117 114 416.717 113.533 416.384 112.8C416.05 112.067 415.75 111.267 415.484 110.4C415.284 109.467 415.117 108.533 414.984 107.6C414.85 106.667 414.784 105.9 414.784 105.3ZM457.466 62.5C459.2 63.0333 460.833 64.2333 462.366 66.1C463.9 67.9 465.033 69.9 465.766 72.1C465.033 73.9 463.9 76.0667 462.366 78.6C460.833 81.1333 459.3 83.7333 457.766 86.4C456.233 89 454.833 91.5 453.566 93.9C452.366 96.2333 451.666 98.1667 451.466 99.7C452.533 98.5667 453.7 97.2667 454.966 95.8C456.3 94.2667 457.566 92.7667 458.766 91.3C460.033 89.7667 461.2 88.4 462.266 87.2C463.333 85.9333 464.166 85 464.766 84.4C466.033 83.0667 467.533 81.5333 469.266 79.8C471 78 472.8 76.3333 474.666 74.8C476.6 73.2 478.533 71.8667 480.466 70.8C482.4 69.6667 484.166 69.1 485.766 69.1C487.5 69.1 488.933 69.7 490.066 70.9C491.266 72.0333 492.2 73.2333 492.866 74.5C492.866 74.6333 492.6 74.8333 492.066 75.1C491.6 75.3 490.9 75.9333 489.966 77C489.033 78.2 487.966 79.8667 486.766 82C485.633 84.0667 484.5 86.3333 483.366 88.8C482.3 91.2 481.4 93.6667 480.666 96.2C479.933 98.7333 479.566 101.033 479.566 103.1C479.566 104.767 479.766 105.833 480.166 106.3C480.633 106.767 481.266 107 482.066 107C482.8 107 483.566 106.833 484.366 106.5C485.166 106.167 485.8 106 486.266 106C486.533 106.133 486.733 106.433 486.866 106.9C487.066 107.3 487.166 107.667 487.166 108C486.633 108.467 486 108.933 485.266 109.4C484.533 109.867 483.766 110.3 482.966 110.7C482.166 111.1 481.366 111.433 480.566 111.7C479.833 111.967 479.166 112.1 478.566 112.1C476.633 112.1 475.033 111.8 473.766 111.2C472.566 110.667 471.6 109.933 470.866 109C470.2 108.067 469.733 106.967 469.466 105.7C469.2 104.367 469.066 102.967 469.066 101.5C469.066 100.7 469.133 99.8 469.266 98.8C469.4 97.8 469.666 96.6333 470.066 95.3C470.466 93.9 471.033 92.2667 471.766 90.4C472.5 88.4667 473.433 86.1667 474.566 83.5C474.433 83.5 473.533 83.9667 471.866 84.9C470.2 85.8333 468.4 87.2667 466.466 89.2C463.333 92.2 460.5 95.1667 457.966 98.1C455.5 101.033 452.966 104.3 450.366 107.9C448.9 109.967 447.6 111.7 446.466 113.1C445.4 114.567 444.466 115.533 443.666 116C442.266 115.2 441.233 114.067 440.566 112.6C439.9 111.2 439.4 109.733 439.066 108.2C439.066 106.933 439.233 105.333 439.566 103.4C439.966 101.467 440.466 99.3333 441.066 97C441.733 94.6 442.533 92.1 443.466 89.5C444.4 86.9 445.433 84.3 446.566 81.7C449.1 75.8333 451.4 71.2333 453.466 67.9C455.6 64.5667 456.933 62.7667 457.466 62.5ZM529.77 71.2C529.704 72.4667 529.47 73.8 529.07 75.2C528.737 76.5333 528.304 77.7667 527.77 78.9C527.237 79.9667 526.67 80.8667 526.07 81.6C525.47 82.3333 524.904 82.7 524.37 82.7C523.637 82.6333 523.204 82.1333 523.07 81.2C523.07 81 523.137 80.7 523.27 80.3C523.47 79.8333 523.67 79.3333 523.87 78.8C524.07 78.2667 524.237 77.7333 524.37 77.2C524.57 76.6667 524.67 76.2 524.67 75.8C524.67 74.8667 524.437 74.1 523.97 73.5C523.57 72.8333 523.004 72.5 522.27 72.5C519.604 72.5 517.57 74.1667 516.17 77.5C514.77 80.8333 514.07 85.7333 514.07 92.2C514.07 92.8667 514.104 93.2667 514.17 93.4C515.57 93.3333 516.804 93.3 517.87 93.3C519.004 93.2333 520.104 93.2 521.17 93.2C521.237 93.3333 521.27 93.6 521.27 94C521.27 94.6 521.137 95.0333 520.87 95.3C519.337 95.6333 518.104 95.9333 517.17 96.2C516.304 96.4 515.637 96.6 515.17 96.8C514.704 97 514.404 97.2333 514.27 97.5C514.204 97.7 514.17 98 514.17 98.4C514.17 98.9333 514.17 99.4667 514.17 100C514.237 100.533 514.27 101.2 514.27 102C514.27 107.6 512.737 112.1 509.67 115.5C506.67 118.9 502.47 120.867 497.07 121.4C496.137 121.333 495.17 121.067 494.17 120.6C493.17 120.133 492.204 119.533 491.27 118.8C490.404 118.067 489.637 117.233 488.97 116.3C488.304 115.433 487.837 114.533 487.57 113.6C487.57 111.067 488.104 108.667 489.17 106.4C490.237 104.067 491.67 102.033 493.47 100.3C495.337 98.5 497.504 97.0667 499.97 96C502.504 94.8667 505.237 94.2 508.17 94C508.17 92.3333 508.004 90.7 507.67 89.1C507.337 87.5 506.97 85.9667 506.57 84.5C506.237 82.9667 505.904 81.5 505.57 80.1C505.237 78.6333 505.07 77.2 505.07 75.8C505.07 74 505.437 72.2333 506.17 70.5C506.904 68.7 507.87 67.0667 509.07 65.6C510.27 64.0667 511.67 62.7667 513.27 61.7C514.87 60.6333 516.537 59.9 518.27 59.5C519.004 59.7 519.97 60.3 521.17 61.3C522.437 62.2333 523.67 63.3 524.87 64.5C526.07 65.7 527.137 66.9333 528.07 68.2C529.004 69.4 529.57 70.4 529.77 71.2ZM496.77 116.8C498.37 116.133 499.87 115.167 501.27 113.9C502.737 112.633 504.004 111.2 505.07 109.6C506.137 108 506.97 106.3 507.57 104.5C508.237 102.7 508.57 100.933 508.57 99.2C507.237 99.4 505.77 100.033 504.17 101.1C502.57 102.1 501.07 103.333 499.67 104.8C498.27 106.2 497.104 107.667 496.17 109.2C495.237 110.733 494.77 112.067 494.77 113.2C494.77 114.667 495.437 115.867 496.77 116.8ZM529.941 104.3C529.941 103.7 529.974 102.967 530.041 102.1C530.174 101.167 530.374 99.9667 530.641 98.5C530.907 96.9667 531.241 95.1333 531.641 93C532.107 90.8667 532.674 88.3 533.341 85.3C533.474 84.6333 533.774 83.5667 534.241 82.1C534.707 80.6333 535.307 79.1 536.041 77.5C536.841 75.8333 537.774 74.2333 538.841 72.7C539.974 71.1667 541.307 70.0333 542.841 69.3C543.974 69.5667 545.474 70.2667 547.341 71.4C549.207 72.4667 550.807 73.9667 552.141 75.9C550.607 77.6333 549.307 79.3667 548.241 81.1C547.241 82.8333 546.307 84.6333 545.441 86.5C544.641 88.3667 543.874 90.3 543.141 92.3C542.474 94.3 541.707 96.4 540.841 98.6C540.107 100.467 539.441 102.4 538.841 104.4C538.241 106.333 537.907 108.033 537.841 109.5C537.841 110.7 537.807 111.533 537.741 112C537.741 112.533 537.574 112.8 537.241 112.8C536.974 112.8 536.441 112.633 535.641 112.3C534.841 111.967 534.007 111.467 533.141 110.8C532.341 110.067 531.607 109.167 530.941 108.1C530.274 107.033 529.941 105.767 529.941 104.3ZM549.041 60.9C549.041 60.5 549.141 59.9 549.341 59.1C549.007 58.7667 548.707 58.2667 548.441 57.6C548.241 56.9333 548.141 56.3333 548.141 55.8C548.141 55.2 548.207 54.4 548.341 53.4C548.541 52.3333 548.774 51.2 549.041 50C549.307 48.8 549.641 47.5667 550.041 46.3C550.441 44.9667 550.841 43.7667 551.241 42.7C552.041 42.7 553.007 42.9333 554.141 43.4C555.341 43.8 556.541 44.3667 557.741 45.1C558.941 45.7667 560.041 46.5333 561.041 47.4C562.041 48.2 562.807 48.9667 563.341 49.7C562.607 50.4333 561.641 51.4667 560.441 52.8C559.241 54.0667 558.074 55.4333 556.941 56.9C555.807 58.3 554.774 59.6333 553.841 60.9C552.907 62.1667 552.307 63.0667 552.041 63.6C551.241 63.4667 550.541 63.1333 549.941 62.6C549.341 62 549.041 61.4333 549.041 60.9ZM533.273 140.8C533.273 140.4 533.407 140.033 533.673 139.7C533.94 139.367 534.24 139.033 534.573 138.7C535.373 139.433 536.073 140 536.673 140.4C537.207 140.8 537.74 141.133 538.273 141.4C538.74 141.667 539.24 141.833 539.773 141.9C540.307 141.967 540.94 142 541.673 142C545.14 142 548.44 141.067 551.573 139.2C554.707 137.4 557.64 134.767 560.373 131.3C563.173 127.833 565.707 123.6 567.973 118.6C570.24 113.6 572.24 107.933 573.973 101.6C573.173 102.4 572.173 103.3 570.973 104.3C569.84 105.233 568.64 106.133 567.373 107C566.107 107.867 564.84 108.667 563.573 109.4C562.373 110.133 561.34 110.667 560.473 111C559.34 110.8 558.273 110.333 557.273 109.6C556.34 108.8 555.507 107.833 554.773 106.7C554.04 105.567 553.473 104.3 553.073 102.9C552.673 101.433 552.473 99.9 552.473 98.3C552.473 95.7 552.94 93.0333 553.873 90.3C554.873 87.5667 556.173 84.9 557.773 82.3C559.373 79.6333 561.24 77.1333 563.373 74.8C565.573 72.4667 567.873 70.4333 570.273 68.7C572.74 66.9667 575.207 65.6 577.673 64.6C580.207 63.5333 582.673 63 585.073 63C587.407 63 589.14 63.5 590.273 64.5C591.473 65.4333 592.34 67.0667 592.873 69.4C592.14 69 591.207 68.8 590.073 68.8C588.473 68.8 586.607 69.4333 584.473 70.7C582.407 71.9667 580.273 73.6333 578.073 75.7C575.94 77.7 573.807 80.0333 571.673 82.7C569.54 85.3 567.64 87.9667 565.973 90.7C564.373 93.4333 563.04 96.1 561.973 98.7C560.973 101.3 560.473 103.633 560.473 105.7C560.473 106.167 560.507 106.467 560.573 106.6C560.64 106.667 560.74 106.7 560.873 106.7C561.473 106.7 562.273 106.367 563.273 105.7C564.34 105.033 565.507 104.2 566.773 103.2C568.107 102.133 569.473 100.933 570.873 99.6C572.273 98.2 573.607 96.8 574.873 95.4C577.74 92.2 580.34 88.6333 582.673 84.7C585.073 80.7 586.973 76.8333 588.373 73.1C590.173 73.2333 591.773 73.5333 593.173 74C594.573 74.4667 595.54 74.9667 596.073 75.5C593.807 80.7 591.973 85.0667 590.573 88.6C589.24 92.1333 588.073 95.2667 587.073 98C585.273 102.8 583.573 107.167 581.973 111.1C580.44 115.1 578.84 118.767 577.173 122.1C575.573 125.5 573.807 128.633 571.873 131.5C570.007 134.433 567.873 137.233 565.473 139.9C564.34 141.167 563.04 142.267 561.573 143.2C560.173 144.2 558.707 145.033 557.173 145.7C555.707 146.367 554.24 146.867 552.773 147.2C551.373 147.533 550.073 147.7 548.873 147.7C547.273 147.7 545.64 147.5 543.973 147.1C542.307 146.767 540.773 146.267 539.373 145.6C537.907 145 536.64 144.267 535.573 143.4C534.507 142.6 533.74 141.733 533.273 140.8ZM614.693 62.5C616.426 63.0333 618.06 64.2333 619.593 66.1C621.126 67.9 622.26 69.9 622.993 72.1C622.26 73.9 621.126 76.0667 619.593 78.6C618.06 81.1333 616.526 83.7333 614.993 86.4C613.46 89 612.06 91.5 610.793 93.9C609.593 96.2333 608.893 98.1667 608.693 99.7C609.76 98.5667 610.926 97.2667 612.193 95.8C613.526 94.2667 614.793 92.7667 615.993 91.3C617.26 89.7667 618.426 88.4 619.493 87.2C620.56 85.9333 621.393 85 621.993 84.4C623.26 83.0667 624.76 81.5333 626.493 79.8C628.226 78 630.026 76.3333 631.893 74.8C633.826 73.2 635.76 71.8667 637.693 70.8C639.626 69.6667 641.393 69.1 642.993 69.1C644.726 69.1 646.16 69.7 647.293 70.9C648.493 72.0333 649.426 73.2333 650.093 74.5C650.093 74.6333 649.826 74.8333 649.293 75.1C648.826 75.3 648.126 75.9333 647.193 77C646.26 78.2 645.193 79.8667 643.993 82C642.86 84.0667 641.726 86.3333 640.593 88.8C639.526 91.2 638.626 93.6667 637.893 96.2C637.16 98.7333 636.793 101.033 636.793 103.1C636.793 104.767 636.993 105.833 637.393 106.3C637.86 106.767 638.493 107 639.293 107C640.026 107 640.793 106.833 641.593 106.5C642.393 106.167 643.026 106 643.493 106C643.76 106.133 643.96 106.433 644.093 106.9C644.293 107.3 644.393 107.667 644.393 108C643.86 108.467 643.226 108.933 642.493 109.4C641.76 109.867 640.993 110.3 640.193 110.7C639.393 111.1 638.593 111.433 637.793 111.7C637.06 111.967 636.393 112.1 635.793 112.1C633.86 112.1 632.26 111.8 630.993 111.2C629.793 110.667 628.826 109.933 628.093 109C627.426 108.067 626.96 106.967 626.693 105.7C626.426 104.367 626.293 102.967 626.293 101.5C626.293 100.7 626.36 99.8 626.493 98.8C626.626 97.8 626.893 96.6333 627.293 95.3C627.693 93.9 628.26 92.2667 628.993 90.4C629.726 88.4667 630.66 86.1667 631.793 83.5C631.66 83.5 630.76 83.9667 629.093 84.9C627.426 85.8333 625.626 87.2667 623.693 89.2C620.56 92.2 617.726 95.1667 615.193 98.1C612.726 101.033 610.193 104.3 607.593 107.9C606.126 109.967 604.826 111.7 603.693 113.1C602.626 114.567 601.693 115.533 600.893 116C599.493 115.2 598.46 114.067 597.793 112.6C597.126 111.2 596.626 109.733 596.293 108.2C596.293 106.933 596.46 105.333 596.793 103.4C597.193 101.467 597.693 99.3333 598.293 97C598.96 94.6 599.76 92.1 600.693 89.5C601.626 86.9 602.66 84.3 603.793 81.7C606.326 75.8333 608.626 71.2333 610.693 67.9C612.826 64.5667 614.16 62.7667 614.693 62.5ZM652.597 104.3C652.597 103.7 652.63 102.967 652.697 102.1C652.83 101.167 653.03 99.9667 653.297 98.5C653.564 96.9667 653.897 95.1333 654.297 93C654.764 90.8667 655.33 88.3 655.997 85.3C656.13 84.6333 656.43 83.5667 656.897 82.1C657.364 80.6333 657.964 79.1 658.697 77.5C659.497 75.8333 660.43 74.2333 661.497 72.7C662.63 71.1667 663.964 70.0333 665.497 69.3C666.63 69.5667 668.13 70.2667 669.997 71.4C671.864 72.4667 673.464 73.9667 674.797 75.9C673.264 77.6333 671.964 79.3667 670.897 81.1C669.897 82.8333 668.964 84.6333 668.097 86.5C667.297 88.3667 666.53 90.3 665.797 92.3C665.13 94.3 664.364 96.4 663.497 98.6C662.764 100.467 662.097 102.4 661.497 104.4C660.897 106.333 660.564 108.033 660.497 109.5C660.497 110.7 660.464 111.533 660.397 112C660.397 112.533 660.23 112.8 659.897 112.8C659.63 112.8 659.097 112.633 658.297 112.3C657.497 111.967 656.664 111.467 655.797 110.8C654.997 110.067 654.264 109.167 653.597 108.1C652.93 107.033 652.597 105.767 652.597 104.3ZM671.697 60.9C671.697 60.5 671.797 59.9 671.997 59.1C671.664 58.7667 671.364 58.2667 671.097 57.6C670.897 56.9333 670.797 56.3333 670.797 55.8C670.797 55.2 670.864 54.4 670.997 53.4C671.197 52.3333 671.43 51.2 671.697 50C671.964 48.8 672.297 47.5667 672.697 46.3C673.097 44.9667 673.497 43.7667 673.897 42.7C674.697 42.7 675.664 42.9333 676.797 43.4C677.997 43.8 679.197 44.3667 680.397 45.1C681.597 45.7667 682.697 46.5333 683.697 47.4C684.697 48.2 685.464 48.9667 685.997 49.7C685.264 50.4333 684.297 51.4667 683.097 52.8C681.897 54.0667 680.73 55.4333 679.597 56.9C678.464 58.3 677.43 59.6333 676.497 60.9C675.564 62.1667 674.964 63.0667 674.697 63.6C673.897 63.4667 673.197 63.1333 672.597 62.6C671.997 62 671.697 61.4333 671.697 60.9ZM718.646 67.1C718.979 67.1 719.679 67.1333 720.746 67.2C721.879 67.2 723.146 67.2333 724.546 67.3C725.946 67.3 727.346 67.3667 728.746 67.5C730.213 67.6333 731.446 67.8 732.446 68C733.113 68.7333 733.613 69.4333 733.946 70.1C732.413 72.1 730.946 74.3667 729.546 76.9C728.146 79.4333 726.846 82.0667 725.646 84.8C724.446 87.4667 723.346 90.1333 722.346 92.8C721.413 95.4 720.579 97.8333 719.846 100.1C719.179 102.3 718.613 104.233 718.146 105.9C717.746 107.567 717.513 108.767 717.446 109.5C717.313 110.7 717.246 111.533 717.246 112C717.313 112.533 717.179 112.8 716.846 112.8C716.579 112.8 716.046 112.633 715.246 112.3C714.446 111.967 713.613 111.467 712.746 110.8C711.946 110.067 711.213 109.167 710.546 108.1C709.879 107.033 709.546 105.767 709.546 104.3C709.546 102.433 709.813 100.1 710.346 97.3C710.879 94.4333 711.579 91.5 712.446 88.5C713.313 85.5 714.313 82.6333 715.446 79.9C716.579 77.1 717.746 74.8333 718.946 73.1C716.813 72.9667 714.679 72.8667 712.546 72.8C710.413 72.6667 708.279 72.6 706.146 72.6C705.413 72.6 704.679 72.6 703.946 72.6C703.213 72.6 702.479 72.6333 701.746 72.7C698.413 83.1667 695.413 92.3 692.746 100.1C690.146 107.9 687.713 114.567 685.446 120.1C683.246 125.7 681.113 130.267 679.046 133.8C677.046 137.4 675.013 140.2 672.946 142.2C670.946 144.267 668.813 145.7 666.546 146.5C664.279 147.3 661.779 147.7 659.046 147.7C654.313 147.7 650.279 146.1 646.946 142.9C646.946 142.433 647.079 141.933 647.346 141.4C647.613 140.867 647.913 140.5 648.246 140.3C649.179 141.433 650.413 142.3 651.946 142.9C653.479 143.567 655.079 143.9 656.746 143.9C658.479 143.9 660.079 143.5 661.546 142.7C662.946 141.967 664.346 140.7 665.746 138.9C667.079 137.1 668.413 134.733 669.746 131.8C671.146 128.867 672.646 125.233 674.246 120.9C676.579 114.5 678.979 107.233 681.446 99.1C683.979 90.9667 686.546 82.3667 689.146 73.3C686.613 73.4333 684.513 73.6 682.846 73.8C681.179 74 680.079 74.1333 679.546 74.2C679.279 73.9333 679.046 73.5667 678.846 73.1C678.713 72.6333 678.646 72.2 678.646 71.8C679.713 71.4667 681.213 71.1 683.146 70.7C685.146 70.2333 687.546 69.7667 690.346 69.3C691.946 64.5 693.713 60.1667 695.646 56.3C697.579 52.3667 699.646 49.0333 701.846 46.3C704.113 43.5667 706.513 41.4667 709.046 40C711.646 38.5333 714.446 37.8 717.446 37.8C718.513 37.8 719.679 38.0333 720.946 38.5C722.279 38.9 723.546 39.3667 724.746 39.9C726.013 40.3667 727.146 40.8333 728.146 41.3C729.146 41.7 729.913 41.9 730.446 41.9C731.246 41.4333 732.346 41.0333 733.746 40.7C735.213 40.3 736.446 40.1 737.446 40.1C738.246 40.1 739.279 40.5333 740.546 41.4C739.946 42.3333 739.346 43.6 738.746 45.2C738.146 46.8 737.679 48.3667 737.346 49.9C735.679 54.8333 733.913 58.0333 732.046 59.5C731.713 59.5 731.413 59.3 731.146 58.9C730.946 58.4333 730.846 57.6667 730.846 56.6C730.846 55.8667 730.679 55.2 730.346 54.6C730.013 54 729.613 53.4 729.146 52.8C728.746 52.2 728.379 51.6 728.046 51C727.713 50.4 727.546 49.7667 727.546 49.1C727.546 48.7 727.579 48.2333 727.646 47.7C727.713 47.1 727.846 46.1333 728.046 44.8C727.246 44.7333 726.446 44.7 725.646 44.7C724.913 44.6333 724.179 44.6 723.446 44.6C720.846 44.6 718.513 45.2333 716.446 46.5C714.446 47.7667 712.646 49.5 711.046 51.7C709.446 53.8333 708.013 56.3 706.746 59.1C705.479 61.8333 704.346 64.7 703.346 67.7C705.679 67.5667 708.079 67.4333 710.546 67.3C713.079 67.1667 715.779 67.1 718.646 67.1ZM768.149 70.6C768.816 70.6 769.583 70.7333 770.449 71C771.383 71.2 772.216 71.5 772.949 71.9C773.683 72.2333 774.283 72.6 774.749 73C775.283 73.4 775.549 73.7667 775.549 74.1C774.216 76.9 772.983 79.7333 771.849 82.6C770.716 85.4 769.749 88.1 768.949 90.7C768.149 93.3 767.516 95.7333 767.049 98C766.649 100.267 766.449 102.233 766.449 103.9C766.449 105.767 766.649 107.333 767.049 108.6C767.449 109.8 768.116 110.667 769.049 111.2C768.249 111.733 767.216 112.167 765.949 112.5C764.683 112.833 763.549 113 762.549 113C758.949 113 757.149 110.533 757.149 105.6C757.149 101.8 758.416 96.6 760.949 90C759.616 93.0667 758.083 95.9667 756.349 98.7C754.616 101.367 752.849 103.733 751.049 105.8C749.249 107.867 747.416 109.567 745.549 110.9C743.749 112.167 742.083 112.933 740.549 113.2C738.083 113.067 736.083 111.9 734.549 109.7C733.016 107.433 732.249 104.567 732.249 101.1C732.249 97.3667 733.049 93.4333 734.649 89.3C736.249 85.1667 738.283 81.3333 740.749 77.8C743.283 74.2667 746.016 71.3333 748.949 69C751.883 66.6 754.716 65.3333 757.449 65.2C758.116 65.4 758.849 65.8 759.649 66.4C760.516 67 761.316 67.7 762.049 68.5C762.849 69.3 763.516 70.1333 764.049 71C764.583 71.8 764.883 72.5 764.949 73.1C762.283 73.5 759.516 74.8 756.649 77C753.849 79.2 751.283 81.8667 748.949 85C746.683 88.0667 744.816 91.3667 743.349 94.9C741.883 98.4333 741.149 101.733 741.149 104.8C741.149 106.067 741.616 106.867 742.549 107.2C744.483 106.8 746.716 105.167 749.249 102.3C751.783 99.3667 754.849 94.8667 758.449 88.8C759.116 87.6 759.849 86.2667 760.649 84.8C761.516 83.3333 762.383 81.8 763.249 80.2C764.116 78.6 764.949 77 765.749 75.4C766.616 73.7333 767.416 72.1333 768.149 70.6ZM796.822 62.5C798.555 63.0333 800.189 64.2333 801.722 66.1C803.255 67.9 804.389 69.9 805.122 72.1C804.389 73.9 803.255 76.0667 801.722 78.6C800.189 81.1333 798.655 83.7333 797.122 86.4C795.589 89 794.189 91.5 792.922 93.9C791.722 96.2333 791.022 98.1667 790.822 99.7C791.889 98.5667 793.055 97.2667 794.322 95.8C795.655 94.2667 796.922 92.7667 798.122 91.3C799.389 89.7667 800.555 88.4 801.622 87.2C802.689 85.9333 803.522 85 804.122 84.4C805.389 83.0667 806.889 81.5333 808.622 79.8C810.355 78 812.155 76.3333 814.022 74.8C815.955 73.2 817.889 71.8667 819.822 70.8C821.755 69.6667 823.522 69.1 825.122 69.1C826.855 69.1 828.289 69.7 829.422 70.9C830.622 72.0333 831.555 73.2333 832.222 74.5C832.222 74.6333 831.955 74.8333 831.422 75.1C830.955 75.3 830.255 75.9333 829.322 77C828.389 78.2 827.322 79.8667 826.122 82C824.989 84.0667 823.855 86.3333 822.722 88.8C821.655 91.2 820.755 93.6667 820.022 96.2C819.289 98.7333 818.922 101.033 818.922 103.1C818.922 104.767 819.122 105.833 819.522 106.3C819.989 106.767 820.622 107 821.422 107C822.155 107 822.922 106.833 823.722 106.5C824.522 106.167 825.155 106 825.622 106C825.889 106.133 826.089 106.433 826.222 106.9C826.422 107.3 826.522 107.667 826.522 108C825.989 108.467 825.355 108.933 824.622 109.4C823.889 109.867 823.122 110.3 822.322 110.7C821.522 111.1 820.722 111.433 819.922 111.7C819.189 111.967 818.522 112.1 817.922 112.1C815.989 112.1 814.389 111.8 813.122 111.2C811.922 110.667 810.955 109.933 810.222 109C809.555 108.067 809.089 106.967 808.822 105.7C808.555 104.367 808.422 102.967 808.422 101.5C808.422 100.7 808.489 99.8 808.622 98.8C808.755 97.8 809.022 96.6333 809.422 95.3C809.822 93.9 810.389 92.2667 811.122 90.4C811.855 88.4667 812.789 86.1667 813.922 83.5C813.789 83.5 812.889 83.9667 811.222 84.9C809.555 85.8333 807.755 87.2667 805.822 89.2C802.689 92.2 799.855 95.1667 797.322 98.1C794.855 101.033 792.322 104.3 789.722 107.9C788.255 109.967 786.955 111.7 785.822 113.1C784.755 114.567 783.822 115.533 783.022 116C781.622 115.2 780.589 114.067 779.922 112.6C779.255 111.2 778.755 109.733 778.422 108.2C778.422 106.933 778.589 105.333 778.922 103.4C779.322 101.467 779.822 99.3333 780.422 97C781.089 94.6 781.889 92.1 782.822 89.5C783.755 86.9 784.789 84.3 785.922 81.7C788.455 75.8333 790.755 71.2333 792.822 67.9C794.955 64.5667 796.289 62.7667 796.822 62.5ZM840.526 72.7C840.192 72.3 839.892 71.4667 839.626 70.2C839.359 68.8667 839.226 67.7333 839.226 66.8C840.959 66.9333 842.626 67.0667 844.226 67.2C845.826 67.2667 847.292 67.3333 848.626 67.4C849.626 65.4 850.692 63.4333 851.826 61.5C853.026 59.5 854.159 57.7 855.226 56.1C856.359 54.4333 857.392 53.0333 858.326 51.9C859.326 50.7667 860.092 50.0333 860.626 49.7C861.292 49.7 862.126 49.8333 863.126 50.1C864.192 50.3 865.259 50.6 866.326 51C867.392 51.3333 868.359 51.7 869.226 52.1C870.092 52.5 870.692 52.9 871.026 53.3C869.026 55.8333 867.292 58.2 865.826 60.4C864.426 62.5333 862.892 65 861.226 67.8C862.559 67.8 863.892 67.7667 865.226 67.7C866.626 67.6333 868.026 67.5333 869.426 67.4C869.759 67.7333 870.026 68.1667 870.226 68.7C870.426 69.1667 870.526 69.6667 870.526 70.2C867.259 71.4 863.292 72.0667 858.626 72.2C856.959 75.4 855.459 78.6 854.126 81.8C852.859 84.9333 851.759 87.9667 850.826 90.9C849.959 93.8333 849.259 96.6 848.726 99.2C848.259 101.8 848.026 104.133 848.026 106.2C848.026 109.133 849.126 110.767 851.326 111.1C853.326 110.833 855.226 110.333 857.026 109.6C858.826 108.867 860.426 107.933 861.826 106.8C862.226 107.4 862.459 107.9 862.526 108.3C862.126 108.9 861.426 109.6 860.426 110.4C859.492 111.2 858.459 111.967 857.326 112.7C856.192 113.5 855.092 114.167 854.026 114.7C852.959 115.233 852.159 115.533 851.626 115.6C849.959 115.533 848.292 115.167 846.626 114.5C844.959 113.833 843.426 113 842.026 112C840.692 111 839.592 109.9 838.726 108.7C837.859 107.433 837.426 106.2 837.426 105C837.426 103.4 837.626 101.4 838.026 99C838.492 96.5333 839.126 93.8667 839.926 91C840.726 88.1333 841.659 85.1333 842.726 82C843.792 78.8667 844.959 75.7667 846.226 72.7H840.526ZM905.582 69.6C905.315 73.7333 904.582 77.3 903.382 80.3C902.182 83.2333 900.449 85.8333 898.182 88.1C895.982 90.3 893.282 92.3 890.082 94.1C886.882 95.9 883.149 97.6333 878.882 99.3C878.882 99.7 878.849 100.133 878.782 100.6C878.782 101 878.782 101.433 878.782 101.9C878.782 102.767 878.849 103.667 878.982 104.6C879.115 105.533 879.349 106.4 879.682 107.2C880.015 108 880.482 108.667 881.082 109.2C881.682 109.667 882.449 109.9 883.382 109.9C885.182 109.9 886.949 109.5 888.682 108.7C890.415 107.9 892.049 106.933 893.582 105.8C895.182 104.6 896.649 103.333 897.982 102C899.382 100.6 900.615 99.3333 901.682 98.2C902.349 98.8 902.915 99.3667 903.382 99.9C900.382 103.9 897.082 107.233 893.482 109.9C889.949 112.5 886.582 114.167 883.382 114.9C878.782 114.367 875.182 112.7 872.582 109.9C870.049 107.033 868.782 103.6 868.782 99.6C868.782 96.8667 869.149 94.1 869.882 91.3C870.682 88.4333 871.749 85.7 873.082 83.1C874.482 80.4333 876.082 77.9333 877.882 75.6C879.749 73.2667 881.715 71.2333 883.782 69.5C885.915 67.7667 888.082 66.4 890.282 65.4C892.549 64.4 894.782 63.9 896.982 63.9C900.049 64.3 902.915 66.2 905.582 69.6ZM898.682 72.9C896.882 73.1667 895.015 73.9 893.082 75.1C891.149 76.3 889.315 77.9 887.582 79.9C885.915 81.9 884.382 84.2333 882.982 86.9C881.582 89.5667 880.482 92.4333 879.682 95.5C885.015 92.8333 889.449 89.5667 892.982 85.7C896.515 81.7667 898.415 77.5 898.682 72.9Z" fill="#1282A2"/>
<path d="M78.2 54.1C78.2 57.7667 77.2667 61.2667 75.4 64.6C73.6 67.9333 71.1333 70.8667 68 73.4C64.9333 75.8667 61.3 77.8333 57.1 79.3C52.9667 80.7667 48.5667 81.5 43.9 81.5C42.2333 81.5 40.9 81.3 39.9 80.9C38.9667 80.4333 37.9 79.5667 36.7 78.3C33.3667 85.5667 30.6333 92.2667 28.5 98.4C26.4333 104.467 24.8 110.367 23.6 116.1C21.0667 115.5 19 114.433 17.4 112.9C15.8 111.433 14.3333 109.567 13 107.3C13.6667 106.033 14.4667 104.367 15.4 102.3C16.3333 100.233 17.4667 97.7 18.8 94.7C20.1333 91.6333 21.6667 88 23.4 83.8C25.2 79.5333 27.3 74.5667 29.7 68.9C30.7667 66.3 31.7 64.0333 32.5 62.1C33.3 60.1667 34 58.3667 34.6 56.7C35.2 54.9667 35.7333 53.2667 36.2 51.6C36.7333 49.9333 37.2667 48.1 37.8 46.1C34.6667 47.1 31.7667 48.2667 29.1 49.6C26.5 50.9333 24.3333 52.3333 22.6 53.8C22 53.4 21.3667 52.8 20.7 52C20.1 51.2 19.5333 50.3333 19 49.4C18.4667 48.4 18 47.4 17.6 46.4C17.2 45.4 16.9667 44.5 16.9 43.7C18.8333 42.3667 21.2333 41.1333 24.1 40C26.9667 38.8667 30.0333 37.9 33.3 37.1C36.5667 36.2333 39.9333 35.5667 43.4 35.1C46.9333 34.6333 50.3 34.4 53.5 34.4C57.3 34.4 60.7333 34.9 63.8 35.9C66.8667 36.8333 69.4667 38.1667 71.6 39.9C73.7333 41.6333 75.3667 43.7 76.5 46.1C77.6333 48.5 78.2 51.1667 78.2 54.1ZM60.4 42.1C57.8667 42.1 55.2667 42.3 52.6 42.7L53.8 44.5C53.1333 45.3667 52.3 46.6667 51.3 48.4C50.3 50.1333 49.2 52.2333 48 54.7C46.8 57.1 45.4667 59.8 44 62.8C42.6 65.8 41.1 68.9667 39.5 72.3C44.7 72.3 49.4333 71.8333 53.7 70.9C57.9667 69.9 61.6 68.5667 64.6 66.9C67.6667 65.1667 70.0333 63.1667 71.7 60.9C73.4333 58.6333 74.3 56.2 74.3 53.6C74.3 50.1333 73.1333 47.3667 70.8 45.3C68.4667 43.1667 65 42.1 60.4 42.1ZM84 111.5C80.2 111.1 77.1667 109.433 74.9 106.5C72.6333 103.567 71.5 99.8333 71.5 95.3C71.5 92.6333 71.9 89.8667 72.7 87C73.5 84.1333 74.6333 81.3667 76.1 78.7C77.5667 75.9667 79.3 73.4 81.3 71C83.3 68.6 85.4667 66.5333 87.8 64.8C91.4667 62.0667 94.9 60.7 98.1 60.7C100.233 61.8333 102.333 64.2 104.4 67.8C104.733 67.8 105.033 67.8 105.3 67.8C105.567 67.7333 105.867 67.7 106.2 67.7C109.733 67.7 111.5 70.8333 111.5 77.1C111.5 81.3 110.8 85.3 109.4 89.1C108.067 92.8333 106.167 96.2333 103.7 99.3C101.3 102.367 98.4 104.967 95 107.1C91.6667 109.167 88 110.633 84 111.5ZM89.1 80C87.9667 81.5333 86.9 83.2 85.9 85C84.9 86.8 84.0333 88.6333 83.3 90.5C82.5667 92.3 82 94.0667 81.6 95.8C81.2 97.4667 81 98.9667 81 100.3C81 101.9 81.2667 103.433 81.8 104.9C82.3333 106.367 82.9333 107.2 83.6 107.4C86.6 106.733 89.3333 105.5 91.8 103.7C94.3333 101.833 96.5 99.5333 98.3 96.8C100.167 94.0667 101.6 90.9667 102.6 87.5C103.667 84.0333 104.2 80.3333 104.2 76.4C104.2 74.6667 104.1 73.3 103.9 72.3C103.7 71.3 103.367 70.4333 102.9 69.7C99.9667 70.5667 97.3333 71.9667 95 73.9C92.7333 75.8333 90.7667 77.8667 89.1 80ZM143.541 105.8C142.274 104.733 141.407 103.4 140.941 101.8C140.541 100.2 140.341 98.8333 140.341 97.7C140.341 96.3 140.507 95.1 140.841 94.1C140.574 94.1 139.974 94.6333 139.041 95.7C138.107 96.7667 137.074 98.0333 135.941 99.5C134.874 100.967 133.807 102.4 132.741 103.8C131.674 105.2 130.874 106.233 130.341 106.9C129.474 107.833 128.641 108.567 127.841 109.1C127.107 109.633 126.507 109.933 126.041 110C124.974 109.933 123.841 109.7 122.641 109.3C121.507 108.967 120.407 108.467 119.341 107.8C118.341 107.133 117.441 106.333 116.641 105.4C115.907 104.467 115.407 103.4 115.141 102.2C115.141 100.333 115.174 98.8 115.241 97.6C115.374 96.4 115.607 95.1 115.941 93.7C116.541 91.1667 117.407 88.3 118.541 85.1C119.741 81.9 121.107 78.7667 122.641 75.7C124.174 72.5667 125.874 69.6667 127.741 67C129.674 64.2667 131.707 62.1333 133.841 60.6C134.441 60.6 135.141 60.6667 135.941 60.8C136.741 60.8667 137.541 61.0333 138.341 61.3C139.207 61.5667 140.007 61.9 140.741 62.3C141.541 62.6333 142.207 63.1 142.741 63.7C142.141 64.3667 140.607 66.6 138.141 70.4C135.741 74.2 133.041 79.6667 130.041 86.8C129.707 87.5333 129.307 88.6 128.841 90C128.374 91.4 127.907 92.8667 127.441 94.4C126.974 95.9333 126.574 97.4333 126.241 98.9C125.974 100.367 125.841 101.533 125.841 102.4C125.841 102.933 125.907 103.333 126.041 103.6C126.241 103.867 126.407 104.067 126.541 104.2C127.541 103.8 128.807 102.7 130.341 100.9C131.874 99.1 134.007 96.3333 136.741 92.6C137.407 91.6667 138.174 90.6 139.041 89.4C139.974 88.2 140.907 86.9333 141.841 85.6C142.774 84.2 143.641 82.7667 144.441 81.3C145.307 79.8333 146.007 78.3667 146.541 76.9C146.807 76.1 147.141 75.1667 147.541 74.1C148.007 72.9667 148.541 71.8 149.141 70.6C149.807 69.4 150.541 68.2 151.341 67C152.207 65.7333 153.207 64.5667 154.341 63.5C155.207 63.5 156.141 63.6 157.141 63.8C158.141 64 159.074 64.2667 159.941 64.6C160.874 64.8667 161.674 65.2 162.341 65.6C163.007 65.9333 163.507 66.3 163.841 66.7C162.641 69.6333 161.307 72.5333 159.841 75.4C158.374 78.2667 157.007 81.1 155.741 83.9C154.474 86.6333 153.407 89.3667 152.541 92.1C151.674 94.8333 151.241 97.5 151.241 100.1C151.241 101.5 151.341 102.733 151.541 103.8C151.807 104.8 152.074 105.667 152.341 106.4C152.607 107.067 152.841 107.633 153.041 108.1C153.307 108.567 153.441 108.967 153.441 109.3C153.441 109.367 153.374 109.467 153.241 109.6C153.174 109.667 153.107 109.7 153.041 109.7C152.574 109.7 151.974 109.6 151.241 109.4C150.507 109.2 149.674 108.9 148.741 108.5C147.874 108.167 146.974 107.767 146.041 107.3C145.174 106.833 144.341 106.333 143.541 105.8ZM163.355 106C163.688 104.067 164.255 101.533 165.055 98.4C165.921 95.2 166.921 91.8333 168.055 88.3C169.188 84.7 170.388 81.1 171.655 77.5C172.921 73.9 174.155 70.6667 175.355 67.8C176.221 65.7333 176.988 64.1333 177.655 63C178.321 61.8 179.055 60.8 179.855 60C180.788 60.1333 181.755 60.3667 182.755 60.7C183.755 61.0333 184.721 61.4333 185.655 61.9C186.588 62.3667 187.421 62.8667 188.155 63.4C188.888 63.8667 189.455 64.3333 189.855 64.8C188.055 66.9333 186.455 69.3667 185.055 72.1C183.721 74.8333 182.355 78.3333 180.955 82.6C184.555 79.4 187.721 76.3333 190.455 73.4C193.255 70.4667 195.855 67.2 198.255 63.6C198.655 63.2667 199.355 63.1 200.355 63.1C201.288 63.1 202.188 63.2667 203.055 63.6C203.921 63.8667 204.521 64.2667 204.855 64.8C203.655 68 203.055 71.1667 203.055 74.3C203.055 77.2333 203.488 79.4333 204.355 80.9C204.288 81.3 203.821 82.0667 202.955 83.2C202.155 84.3333 201.255 85.4 200.255 86.4C198.455 85.4667 196.855 84.2 195.455 82.6C194.055 80.9333 193.021 79.1333 192.355 77.2C189.221 79.4 186.555 81.5667 184.355 83.7C182.155 85.7667 180.255 88.1 178.655 90.7C177.121 93.2333 175.788 96.1667 174.655 99.5C173.588 102.833 172.555 106.8 171.555 111.4C170.955 111.333 170.221 111.1 169.355 110.7C168.555 110.367 167.721 109.933 166.855 109.4C166.055 108.867 165.321 108.3 164.655 107.7C163.988 107.1 163.555 106.533 163.355 106ZM239.024 68.2C238.958 69.4667 238.724 70.8 238.324 72.2C237.991 73.5333 237.558 74.7667 237.024 75.9C236.491 76.9667 235.924 77.8667 235.324 78.6C234.724 79.3333 234.158 79.7 233.624 79.7C232.891 79.6333 232.458 79.1333 232.324 78.2C232.324 78 232.391 77.7 232.524 77.3C232.724 76.8333 232.924 76.3333 233.124 75.8C233.324 75.2667 233.491 74.7333 233.624 74.2C233.824 73.6667 233.924 73.2 233.924 72.8C233.924 71.8667 233.691 71.1 233.224 70.5C232.824 69.8333 232.258 69.5 231.524 69.5C228.858 69.5 226.824 71.1667 225.424 74.5C224.024 77.8333 223.324 82.7333 223.324 89.2C223.324 89.8667 223.358 90.2667 223.424 90.4C224.824 90.3333 226.058 90.3 227.124 90.3C228.258 90.2333 229.358 90.2 230.424 90.2C230.491 90.3333 230.524 90.6 230.524 91C230.524 91.6 230.391 92.0333 230.124 92.3C228.591 92.6333 227.358 92.9333 226.424 93.2C225.558 93.4 224.891 93.6 224.424 93.8C223.958 94 223.658 94.2333 223.524 94.5C223.458 94.7 223.424 95 223.424 95.4C223.424 95.9333 223.424 96.4667 223.424 97C223.491 97.5333 223.524 98.2 223.524 99C223.524 104.6 221.991 109.1 218.924 112.5C215.924 115.9 211.724 117.867 206.324 118.4C205.391 118.333 204.424 118.067 203.424 117.6C202.424 117.133 201.458 116.533 200.524 115.8C199.658 115.067 198.891 114.233 198.224 113.3C197.558 112.433 197.091 111.533 196.824 110.6C196.824 108.067 197.358 105.667 198.424 103.4C199.491 101.067 200.924 99.0333 202.724 97.3C204.591 95.5 206.758 94.0667 209.224 93C211.758 91.8667 214.491 91.2 217.424 91C217.424 89.3333 217.258 87.7 216.924 86.1C216.591 84.5 216.224 82.9667 215.824 81.5C215.491 79.9667 215.158 78.5 214.824 77.1C214.491 75.6333 214.324 74.2 214.324 72.8C214.324 71 214.691 69.2333 215.424 67.5C216.158 65.7 217.124 64.0667 218.324 62.6C219.524 61.0667 220.924 59.7667 222.524 58.7C224.124 57.6333 225.791 56.9 227.524 56.5C228.258 56.7 229.224 57.3 230.424 58.3C231.691 59.2333 232.924 60.3 234.124 61.5C235.324 62.7 236.391 63.9333 237.324 65.2C238.258 66.4 238.824 67.4 239.024 68.2ZM206.024 113.8C207.624 113.133 209.124 112.167 210.524 110.9C211.991 109.633 213.258 108.2 214.324 106.6C215.391 105 216.224 103.3 216.824 101.5C217.491 99.7 217.824 97.9333 217.824 96.2C216.491 96.4 215.024 97.0333 213.424 98.1C211.824 99.1 210.324 100.333 208.924 101.8C207.524 103.2 206.358 104.667 205.424 106.2C204.491 107.733 204.024 109.067 204.024 110.2C204.024 111.667 204.691 112.867 206.024 113.8ZM266.295 105.8C265.028 104.733 264.161 103.4 263.695 101.8C263.295 100.2 263.095 98.8333 263.095 97.7C263.095 96.3 263.261 95.1 263.595 94.1C263.328 94.1 262.728 94.6333 261.795 95.7C260.861 96.7667 259.828 98.0333 258.695 99.5C257.628 100.967 256.561 102.4 255.495 103.8C254.428 105.2 253.628 106.233 253.095 106.9C252.228 107.833 251.395 108.567 250.595 109.1C249.861 109.633 249.261 109.933 248.795 110C247.728 109.933 246.595 109.7 245.395 109.3C244.261 108.967 243.161 108.467 242.095 107.8C241.095 107.133 240.195 106.333 239.395 105.4C238.661 104.467 238.161 103.4 237.895 102.2C237.895 100.333 237.928 98.8 237.995 97.6C238.128 96.4 238.361 95.1 238.695 93.7C239.295 91.1667 240.161 88.3 241.295 85.1C242.495 81.9 243.861 78.7667 245.395 75.7C246.928 72.5667 248.628 69.6667 250.495 67C252.428 64.2667 254.461 62.1333 256.595 60.6C257.195 60.6 257.895 60.6667 258.695 60.8C259.495 60.8667 260.295 61.0333 261.095 61.3C261.961 61.5667 262.761 61.9 263.495 62.3C264.295 62.6333 264.961 63.1 265.495 63.7C264.895 64.3667 263.361 66.6 260.895 70.4C258.495 74.2 255.795 79.6667 252.795 86.8C252.461 87.5333 252.061 88.6 251.595 90C251.128 91.4 250.661 92.8667 250.195 94.4C249.728 95.9333 249.328 97.4333 248.995 98.9C248.728 100.367 248.595 101.533 248.595 102.4C248.595 102.933 248.661 103.333 248.795 103.6C248.995 103.867 249.161 104.067 249.295 104.2C250.295 103.8 251.561 102.7 253.095 100.9C254.628 99.1 256.761 96.3333 259.495 92.6C260.161 91.6667 260.928 90.6 261.795 89.4C262.728 88.2 263.661 86.9333 264.595 85.6C265.528 84.2 266.395 82.7667 267.195 81.3C268.061 79.8333 268.761 78.3667 269.295 76.9C269.561 76.1 269.895 75.1667 270.295 74.1C270.761 72.9667 271.295 71.8 271.895 70.6C272.561 69.4 273.295 68.2 274.095 67C274.961 65.7333 275.961 64.5667 277.095 63.5C277.961 63.5 278.895 63.6 279.895 63.8C280.895 64 281.828 64.2667 282.695 64.6C283.628 64.8667 284.428 65.2 285.095 65.6C285.761 65.9333 286.261 66.3 286.595 66.7C285.395 69.6333 284.061 72.5333 282.595 75.4C281.128 78.2667 279.761 81.1 278.495 83.9C277.228 86.6333 276.161 89.3667 275.295 92.1C274.428 94.8333 273.995 97.5 273.995 100.1C273.995 101.5 274.095 102.733 274.295 103.8C274.561 104.8 274.828 105.667 275.095 106.4C275.361 107.067 275.595 107.633 275.795 108.1C276.061 108.567 276.195 108.967 276.195 109.3C276.195 109.367 276.128 109.467 275.995 109.6C275.928 109.667 275.861 109.7 275.795 109.7C275.328 109.7 274.728 109.6 273.995 109.4C273.261 109.2 272.428 108.9 271.495 108.5C270.628 108.167 269.728 107.767 268.795 107.3C267.928 106.833 267.095 106.333 266.295 105.8ZM288.12 101.3C288.12 100.7 288.154 99.9667 288.22 99.1C288.354 98.1667 288.554 96.9667 288.82 95.5C289.087 93.9667 289.42 92.1333 289.82 90C290.287 87.8667 290.854 85.3 291.52 82.3C291.654 81.6333 291.954 80.5667 292.42 79.1C292.887 77.6333 293.487 76.1 294.22 74.5C295.02 72.8333 295.954 71.2333 297.02 69.7C298.154 68.1667 299.487 67.0333 301.02 66.3C302.154 66.5667 303.654 67.2667 305.52 68.4C307.387 69.4667 308.987 70.9667 310.32 72.9C308.787 74.6333 307.487 76.3667 306.42 78.1C305.42 79.8333 304.487 81.6333 303.62 83.5C302.82 85.3667 302.054 87.3 301.32 89.3C300.654 91.3 299.887 93.4 299.02 95.6C298.287 97.4667 297.62 99.4 297.02 101.4C296.42 103.333 296.087 105.033 296.02 106.5C296.02 107.7 295.987 108.533 295.92 109C295.92 109.533 295.754 109.8 295.42 109.8C295.154 109.8 294.62 109.633 293.82 109.3C293.02 108.967 292.187 108.467 291.32 107.8C290.52 107.067 289.787 106.167 289.12 105.1C288.454 104.033 288.12 102.767 288.12 101.3ZM307.22 57.9C307.22 57.5 307.32 56.9 307.52 56.1C307.187 55.7667 306.887 55.2667 306.62 54.6C306.42 53.9333 306.32 53.3333 306.32 52.8C306.32 52.2 306.387 51.4 306.52 50.4C306.72 49.3333 306.954 48.2 307.22 47C307.487 45.8 307.82 44.5667 308.22 43.3C308.62 41.9667 309.02 40.7667 309.42 39.7C310.22 39.7 311.187 39.9333 312.32 40.4C313.52 40.8 314.72 41.3667 315.92 42.1C317.12 42.7667 318.22 43.5333 319.22 44.4C320.22 45.2 320.987 45.9667 321.52 46.7C320.787 47.4333 319.82 48.4667 318.62 49.8C317.42 51.0667 316.254 52.4333 315.12 53.9C313.987 55.3 312.954 56.6333 312.02 57.9C311.087 59.1667 310.487 60.0667 310.22 60.6C309.42 60.4667 308.72 60.1333 308.12 59.6C307.52 59 307.22 58.4333 307.22 57.9ZM316.87 69.7C316.536 69.3 316.236 68.4667 315.97 67.2C315.703 65.8667 315.57 64.7333 315.57 63.8C317.303 63.9333 318.97 64.0667 320.57 64.2C322.17 64.2667 323.636 64.3333 324.97 64.4C325.97 62.4 327.036 60.4333 328.17 58.5C329.37 56.5 330.503 54.7 331.57 53.1C332.703 51.4333 333.736 50.0333 334.67 48.9C335.67 47.7667 336.436 47.0333 336.97 46.7C337.636 46.7 338.47 46.8333 339.47 47.1C340.536 47.3 341.603 47.6 342.67 48C343.736 48.3333 344.703 48.7 345.57 49.1C346.436 49.5 347.036 49.9 347.37 50.3C345.37 52.8333 343.636 55.2 342.17 57.4C340.77 59.5333 339.236 62 337.57 64.8C338.903 64.8 340.236 64.7667 341.57 64.7C342.97 64.6333 344.37 64.5333 345.77 64.4C346.103 64.7333 346.37 65.1667 346.57 65.7C346.77 66.1667 346.87 66.6667 346.87 67.2C343.603 68.4 339.636 69.0667 334.97 69.2C333.303 72.4 331.803 75.6 330.47 78.8C329.203 81.9333 328.103 84.9667 327.17 87.9C326.303 90.8333 325.603 93.6 325.07 96.2C324.603 98.8 324.37 101.133 324.37 103.2C324.37 106.133 325.47 107.767 327.67 108.1C329.67 107.833 331.57 107.333 333.37 106.6C335.17 105.867 336.77 104.933 338.17 103.8C338.57 104.4 338.803 104.9 338.87 105.3C338.47 105.9 337.77 106.6 336.77 107.4C335.836 108.2 334.803 108.967 333.67 109.7C332.536 110.5 331.436 111.167 330.37 111.7C329.303 112.233 328.503 112.533 327.97 112.6C326.303 112.533 324.636 112.167 322.97 111.5C321.303 110.833 319.77 110 318.37 109C317.036 108 315.936 106.9 315.07 105.7C314.203 104.433 313.77 103.2 313.77 102C313.77 100.4 313.97 98.4 314.37 96C314.836 93.5333 315.47 90.8667 316.27 88C317.07 85.1333 318.003 82.1333 319.07 79C320.136 75.8667 321.303 72.7667 322.57 69.7H316.87ZM381.926 66.6C381.659 70.7333 380.926 74.3 379.726 77.3C378.526 80.2333 376.792 82.8333 374.526 85.1C372.326 87.3 369.626 89.3 366.426 91.1C363.226 92.9 359.492 94.6333 355.226 96.3C355.226 96.7 355.192 97.1333 355.126 97.6C355.126 98 355.126 98.4333 355.126 98.9C355.126 99.7667 355.192 100.667 355.326 101.6C355.459 102.533 355.692 103.4 356.026 104.2C356.359 105 356.826 105.667 357.426 106.2C358.026 106.667 358.792 106.9 359.726 106.9C361.526 106.9 363.292 106.5 365.026 105.7C366.759 104.9 368.392 103.933 369.926 102.8C371.526 101.6 372.992 100.333 374.326 99C375.726 97.6 376.959 96.3333 378.026 95.2C378.692 95.8 379.259 96.3667 379.726 96.9C376.726 100.9 373.426 104.233 369.826 106.9C366.292 109.5 362.926 111.167 359.726 111.9C355.126 111.367 351.526 109.7 348.926 106.9C346.392 104.033 345.126 100.6 345.126 96.6C345.126 93.8667 345.492 91.1 346.226 88.3C347.026 85.4333 348.092 82.7 349.426 80.1C350.826 77.4333 352.426 74.9333 354.226 72.6C356.092 70.2667 358.059 68.2333 360.126 66.5C362.259 64.7667 364.426 63.4 366.626 62.4C368.892 61.4 371.126 60.9 373.326 60.9C376.392 61.3 379.259 63.2 381.926 66.6ZM375.026 69.9C373.226 70.1667 371.359 70.9 369.426 72.1C367.492 73.3 365.659 74.9 363.926 76.9C362.259 78.9 360.726 81.2333 359.326 83.9C357.926 86.5667 356.826 89.4333 356.026 92.5C361.359 89.8333 365.792 86.5667 369.326 82.7C372.859 78.7667 374.759 74.5 375.026 69.9ZM413.784 102.3C413.784 99.9 414.15 96.8 414.884 93C415.684 89.1333 416.684 85 417.884 80.6C419.15 76.1333 420.584 71.6 422.184 67C423.784 62.3333 425.417 57.9667 427.084 53.9C428.75 49.8333 430.384 46.2667 431.984 43.2C433.584 40.1333 435.017 37.9333 436.284 36.6C436.95 36.6667 437.817 36.9333 438.884 37.4C440.017 37.8 441.15 38.3 442.284 38.9C443.417 39.5 444.45 40.1667 445.384 40.9C446.317 41.5667 446.917 42.2 447.184 42.8C445.25 44.5333 443.317 47.1667 441.384 50.7C439.517 54.1667 437.684 58.1333 435.884 62.6C434.15 67.0667 432.517 71.8 430.984 76.8C429.45 81.7333 428.117 86.5333 426.984 91.2C425.85 95.8667 424.95 100.2 424.284 104.2C423.684 108.2 423.384 111.433 423.384 113.9C423.384 115.033 423.484 115.733 423.684 116C422.217 115.933 421.15 115.667 420.484 115.2C419.817 114.8 419.284 114.333 418.884 113.8C418.55 113.333 418.217 112.833 417.884 112.3C417.617 111.833 417.184 111.467 416.584 111.2C416.117 111 415.717 110.533 415.384 109.8C415.05 109.067 414.75 108.267 414.484 107.4C414.284 106.467 414.117 105.533 413.984 104.6C413.85 103.667 413.784 102.9 413.784 102.3ZM456.466 59.5C458.2 60.0333 459.833 61.2333 461.366 63.1C462.9 64.9 464.033 66.9 464.766 69.1C464.033 70.9 462.9 73.0667 461.366 75.6C459.833 78.1333 458.3 80.7333 456.766 83.4C455.233 86 453.833 88.5 452.566 90.9C451.366 93.2333 450.666 95.1667 450.466 96.7C451.533 95.5667 452.7 94.2667 453.966 92.8C455.3 91.2667 456.566 89.7667 457.766 88.3C459.033 86.7667 460.2 85.4 461.266 84.2C462.333 82.9333 463.166 82 463.766 81.4C465.033 80.0667 466.533 78.5333 468.266 76.8C470 75 471.8 73.3333 473.666 71.8C475.6 70.2 477.533 68.8667 479.466 67.8C481.4 66.6667 483.166 66.1 484.766 66.1C486.5 66.1 487.933 66.7 489.066 67.9C490.266 69.0333 491.2 70.2333 491.866 71.5C491.866 71.6333 491.6 71.8333 491.066 72.1C490.6 72.3 489.9 72.9333 488.966 74C488.033 75.2 486.966 76.8667 485.766 79C484.633 81.0667 483.5 83.3333 482.366 85.8C481.3 88.2 480.4 90.6667 479.666 93.2C478.933 95.7333 478.566 98.0333 478.566 100.1C478.566 101.767 478.766 102.833 479.166 103.3C479.633 103.767 480.266 104 481.066 104C481.8 104 482.566 103.833 483.366 103.5C484.166 103.167 484.8 103 485.266 103C485.533 103.133 485.733 103.433 485.866 103.9C486.066 104.3 486.166 104.667 486.166 105C485.633 105.467 485 105.933 484.266 106.4C483.533 106.867 482.766 107.3 481.966 107.7C481.166 108.1 480.366 108.433 479.566 108.7C478.833 108.967 478.166 109.1 477.566 109.1C475.633 109.1 474.033 108.8 472.766 108.2C471.566 107.667 470.6 106.933 469.866 106C469.2 105.067 468.733 103.967 468.466 102.7C468.2 101.367 468.066 99.9667 468.066 98.5C468.066 97.7 468.133 96.8 468.266 95.8C468.4 94.8 468.666 93.6333 469.066 92.3C469.466 90.9 470.033 89.2667 470.766 87.4C471.5 85.4667 472.433 83.1667 473.566 80.5C473.433 80.5 472.533 80.9667 470.866 81.9C469.2 82.8333 467.4 84.2667 465.466 86.2C462.333 89.2 459.5 92.1667 456.966 95.1C454.5 98.0333 451.966 101.3 449.366 104.9C447.9 106.967 446.6 108.7 445.466 110.1C444.4 111.567 443.466 112.533 442.666 113C441.266 112.2 440.233 111.067 439.566 109.6C438.9 108.2 438.4 106.733 438.066 105.2C438.066 103.933 438.233 102.333 438.566 100.4C438.966 98.4667 439.466 96.3333 440.066 94C440.733 91.6 441.533 89.1 442.466 86.5C443.4 83.9 444.433 81.3 445.566 78.7C448.1 72.8333 450.4 68.2333 452.466 64.9C454.6 61.5667 455.933 59.7667 456.466 59.5ZM528.77 68.2C528.704 69.4667 528.47 70.8 528.07 72.2C527.737 73.5333 527.304 74.7667 526.77 75.9C526.237 76.9667 525.67 77.8667 525.07 78.6C524.47 79.3333 523.904 79.7 523.37 79.7C522.637 79.6333 522.204 79.1333 522.07 78.2C522.07 78 522.137 77.7 522.27 77.3C522.47 76.8333 522.67 76.3333 522.87 75.8C523.07 75.2667 523.237 74.7333 523.37 74.2C523.57 73.6667 523.67 73.2 523.67 72.8C523.67 71.8667 523.437 71.1 522.97 70.5C522.57 69.8333 522.004 69.5 521.27 69.5C518.604 69.5 516.57 71.1667 515.17 74.5C513.77 77.8333 513.07 82.7333 513.07 89.2C513.07 89.8667 513.104 90.2667 513.17 90.4C514.57 90.3333 515.804 90.3 516.87 90.3C518.004 90.2333 519.104 90.2 520.17 90.2C520.237 90.3333 520.27 90.6 520.27 91C520.27 91.6 520.137 92.0333 519.87 92.3C518.337 92.6333 517.104 92.9333 516.17 93.2C515.304 93.4 514.637 93.6 514.17 93.8C513.704 94 513.404 94.2333 513.27 94.5C513.204 94.7 513.17 95 513.17 95.4C513.17 95.9333 513.17 96.4667 513.17 97C513.237 97.5333 513.27 98.2 513.27 99C513.27 104.6 511.737 109.1 508.67 112.5C505.67 115.9 501.47 117.867 496.07 118.4C495.137 118.333 494.17 118.067 493.17 117.6C492.17 117.133 491.204 116.533 490.27 115.8C489.404 115.067 488.637 114.233 487.97 113.3C487.304 112.433 486.837 111.533 486.57 110.6C486.57 108.067 487.104 105.667 488.17 103.4C489.237 101.067 490.67 99.0333 492.47 97.3C494.337 95.5 496.504 94.0667 498.97 93C501.504 91.8667 504.237 91.2 507.17 91C507.17 89.3333 507.004 87.7 506.67 86.1C506.337 84.5 505.97 82.9667 505.57 81.5C505.237 79.9667 504.904 78.5 504.57 77.1C504.237 75.6333 504.07 74.2 504.07 72.8C504.07 71 504.437 69.2333 505.17 67.5C505.904 65.7 506.87 64.0667 508.07 62.6C509.27 61.0667 510.67 59.7667 512.27 58.7C513.87 57.6333 515.537 56.9 517.27 56.5C518.004 56.7 518.97 57.3 520.17 58.3C521.437 59.2333 522.67 60.3 523.87 61.5C525.07 62.7 526.137 63.9333 527.07 65.2C528.004 66.4 528.57 67.4 528.77 68.2ZM495.77 113.8C497.37 113.133 498.87 112.167 500.27 110.9C501.737 109.633 503.004 108.2 504.07 106.6C505.137 105 505.97 103.3 506.57 101.5C507.237 99.7 507.57 97.9333 507.57 96.2C506.237 96.4 504.77 97.0333 503.17 98.1C501.57 99.1 500.07 100.333 498.67 101.8C497.27 103.2 496.104 104.667 495.17 106.2C494.237 107.733 493.77 109.067 493.77 110.2C493.77 111.667 494.437 112.867 495.77 113.8ZM528.941 101.3C528.941 100.7 528.974 99.9667 529.041 99.1C529.174 98.1667 529.374 96.9667 529.641 95.5C529.907 93.9667 530.241 92.1333 530.641 90C531.107 87.8667 531.674 85.3 532.341 82.3C532.474 81.6333 532.774 80.5667 533.241 79.1C533.707 77.6333 534.307 76.1 535.041 74.5C535.841 72.8333 536.774 71.2333 537.841 69.7C538.974 68.1667 540.307 67.0333 541.841 66.3C542.974 66.5667 544.474 67.2667 546.341 68.4C548.207 69.4667 549.807 70.9667 551.141 72.9C549.607 74.6333 548.307 76.3667 547.241 78.1C546.241 79.8333 545.307 81.6333 544.441 83.5C543.641 85.3667 542.874 87.3 542.141 89.3C541.474 91.3 540.707 93.4 539.841 95.6C539.107 97.4667 538.441 99.4 537.841 101.4C537.241 103.333 536.907 105.033 536.841 106.5C536.841 107.7 536.807 108.533 536.741 109C536.741 109.533 536.574 109.8 536.241 109.8C535.974 109.8 535.441 109.633 534.641 109.3C533.841 108.967 533.007 108.467 532.141 107.8C531.341 107.067 530.607 106.167 529.941 105.1C529.274 104.033 528.941 102.767 528.941 101.3ZM548.041 57.9C548.041 57.5 548.141 56.9 548.341 56.1C548.007 55.7667 547.707 55.2667 547.441 54.6C547.241 53.9333 547.141 53.3333 547.141 52.8C547.141 52.2 547.207 51.4 547.341 50.4C547.541 49.3333 547.774 48.2 548.041 47C548.307 45.8 548.641 44.5667 549.041 43.3C549.441 41.9667 549.841 40.7667 550.241 39.7C551.041 39.7 552.007 39.9333 553.141 40.4C554.341 40.8 555.541 41.3667 556.741 42.1C557.941 42.7667 559.041 43.5333 560.041 44.4C561.041 45.2 561.807 45.9667 562.341 46.7C561.607 47.4333 560.641 48.4667 559.441 49.8C558.241 51.0667 557.074 52.4333 555.941 53.9C554.807 55.3 553.774 56.6333 552.841 57.9C551.907 59.1667 551.307 60.0667 551.041 60.6C550.241 60.4667 549.541 60.1333 548.941 59.6C548.341 59 548.041 58.4333 548.041 57.9ZM532.273 137.8C532.273 137.4 532.407 137.033 532.673 136.7C532.94 136.367 533.24 136.033 533.573 135.7C534.373 136.433 535.073 137 535.673 137.4C536.207 137.8 536.74 138.133 537.273 138.4C537.74 138.667 538.24 138.833 538.773 138.9C539.307 138.967 539.94 139 540.673 139C544.14 139 547.44 138.067 550.573 136.2C553.707 134.4 556.64 131.767 559.373 128.3C562.173 124.833 564.707 120.6 566.973 115.6C569.24 110.6 571.24 104.933 572.973 98.6C572.173 99.4 571.173 100.3 569.973 101.3C568.84 102.233 567.64 103.133 566.373 104C565.107 104.867 563.84 105.667 562.573 106.4C561.373 107.133 560.34 107.667 559.473 108C558.34 107.8 557.273 107.333 556.273 106.6C555.34 105.8 554.507 104.833 553.773 103.7C553.04 102.567 552.473 101.3 552.073 99.9C551.673 98.4333 551.473 96.9 551.473 95.3C551.473 92.7 551.94 90.0333 552.873 87.3C553.873 84.5667 555.173 81.9 556.773 79.3C558.373 76.6333 560.24 74.1333 562.373 71.8C564.573 69.4667 566.873 67.4333 569.273 65.7C571.74 63.9667 574.207 62.6 576.673 61.6C579.207 60.5333 581.673 60 584.073 60C586.407 60 588.14 60.5 589.273 61.5C590.473 62.4333 591.34 64.0667 591.873 66.4C591.14 66 590.207 65.8 589.073 65.8C587.473 65.8 585.607 66.4333 583.473 67.7C581.407 68.9667 579.273 70.6333 577.073 72.7C574.94 74.7 572.807 77.0333 570.673 79.7C568.54 82.3 566.64 84.9667 564.973 87.7C563.373 90.4333 562.04 93.1 560.973 95.7C559.973 98.3 559.473 100.633 559.473 102.7C559.473 103.167 559.507 103.467 559.573 103.6C559.64 103.667 559.74 103.7 559.873 103.7C560.473 103.7 561.273 103.367 562.273 102.7C563.34 102.033 564.507 101.2 565.773 100.2C567.107 99.1333 568.473 97.9333 569.873 96.6C571.273 95.2 572.607 93.8 573.873 92.4C576.74 89.2 579.34 85.6333 581.673 81.7C584.073 77.7 585.973 73.8333 587.373 70.1C589.173 70.2333 590.773 70.5333 592.173 71C593.573 71.4667 594.54 71.9667 595.073 72.5C592.807 77.7 590.973 82.0667 589.573 85.6C588.24 89.1333 587.073 92.2667 586.073 95C584.273 99.8 582.573 104.167 580.973 108.1C579.44 112.1 577.84 115.767 576.173 119.1C574.573 122.5 572.807 125.633 570.873 128.5C569.007 131.433 566.873 134.233 564.473 136.9C563.34 138.167 562.04 139.267 560.573 140.2C559.173 141.2 557.707 142.033 556.173 142.7C554.707 143.367 553.24 143.867 551.773 144.2C550.373 144.533 549.073 144.7 547.873 144.7C546.273 144.7 544.64 144.5 542.973 144.1C541.307 143.767 539.773 143.267 538.373 142.6C536.907 142 535.64 141.267 534.573 140.4C533.507 139.6 532.74 138.733 532.273 137.8ZM613.693 59.5C615.426 60.0333 617.06 61.2333 618.593 63.1C620.126 64.9 621.26 66.9 621.993 69.1C621.26 70.9 620.126 73.0667 618.593 75.6C617.06 78.1333 615.526 80.7333 613.993 83.4C612.46 86 611.06 88.5 609.793 90.9C608.593 93.2333 607.893 95.1667 607.693 96.7C608.76 95.5667 609.926 94.2667 611.193 92.8C612.526 91.2667 613.793 89.7667 614.993 88.3C616.26 86.7667 617.426 85.4 618.493 84.2C619.56 82.9333 620.393 82 620.993 81.4C622.26 80.0667 623.76 78.5333 625.493 76.8C627.226 75 629.026 73.3333 630.893 71.8C632.826 70.2 634.76 68.8667 636.693 67.8C638.626 66.6667 640.393 66.1 641.993 66.1C643.726 66.1 645.16 66.7 646.293 67.9C647.493 69.0333 648.426 70.2333 649.093 71.5C649.093 71.6333 648.826 71.8333 648.293 72.1C647.826 72.3 647.126 72.9333 646.193 74C645.26 75.2 644.193 76.8667 642.993 79C641.86 81.0667 640.726 83.3333 639.593 85.8C638.526 88.2 637.626 90.6667 636.893 93.2C636.16 95.7333 635.793 98.0333 635.793 100.1C635.793 101.767 635.993 102.833 636.393 103.3C636.86 103.767 637.493 104 638.293 104C639.026 104 639.793 103.833 640.593 103.5C641.393 103.167 642.026 103 642.493 103C642.76 103.133 642.96 103.433 643.093 103.9C643.293 104.3 643.393 104.667 643.393 105C642.86 105.467 642.226 105.933 641.493 106.4C640.76 106.867 639.993 107.3 639.193 107.7C638.393 108.1 637.593 108.433 636.793 108.7C636.06 108.967 635.393 109.1 634.793 109.1C632.86 109.1 631.26 108.8 629.993 108.2C628.793 107.667 627.826 106.933 627.093 106C626.426 105.067 625.96 103.967 625.693 102.7C625.426 101.367 625.293 99.9667 625.293 98.5C625.293 97.7 625.36 96.8 625.493 95.8C625.626 94.8 625.893 93.6333 626.293 92.3C626.693 90.9 627.26 89.2667 627.993 87.4C628.726 85.4667 629.66 83.1667 630.793 80.5C630.66 80.5 629.76 80.9667 628.093 81.9C626.426 82.8333 624.626 84.2667 622.693 86.2C619.56 89.2 616.726 92.1667 614.193 95.1C611.726 98.0333 609.193 101.3 606.593 104.9C605.126 106.967 603.826 108.7 602.693 110.1C601.626 111.567 600.693 112.533 599.893 113C598.493 112.2 597.46 111.067 596.793 109.6C596.126 108.2 595.626 106.733 595.293 105.2C595.293 103.933 595.46 102.333 595.793 100.4C596.193 98.4667 596.693 96.3333 597.293 94C597.96 91.6 598.76 89.1 599.693 86.5C600.626 83.9 601.66 81.3 602.793 78.7C605.326 72.8333 607.626 68.2333 609.693 64.9C611.826 61.5667 613.16 59.7667 613.693 59.5ZM651.597 101.3C651.597 100.7 651.63 99.9667 651.697 99.1C651.83 98.1667 652.03 96.9667 652.297 95.5C652.564 93.9667 652.897 92.1333 653.297 90C653.764 87.8667 654.33 85.3 654.997 82.3C655.13 81.6333 655.43 80.5667 655.897 79.1C656.364 77.6333 656.964 76.1 657.697 74.5C658.497 72.8333 659.43 71.2333 660.497 69.7C661.63 68.1667 662.964 67.0333 664.497 66.3C665.63 66.5667 667.13 67.2667 668.997 68.4C670.864 69.4667 672.464 70.9667 673.797 72.9C672.264 74.6333 670.964 76.3667 669.897 78.1C668.897 79.8333 667.964 81.6333 667.097 83.5C666.297 85.3667 665.53 87.3 664.797 89.3C664.13 91.3 663.364 93.4 662.497 95.6C661.764 97.4667 661.097 99.4 660.497 101.4C659.897 103.333 659.564 105.033 659.497 106.5C659.497 107.7 659.464 108.533 659.397 109C659.397 109.533 659.23 109.8 658.897 109.8C658.63 109.8 658.097 109.633 657.297 109.3C656.497 108.967 655.664 108.467 654.797 107.8C653.997 107.067 653.264 106.167 652.597 105.1C651.93 104.033 651.597 102.767 651.597 101.3ZM670.697 57.9C670.697 57.5 670.797 56.9 670.997 56.1C670.664 55.7667 670.364 55.2667 670.097 54.6C669.897 53.9333 669.797 53.3333 669.797 52.8C669.797 52.2 669.864 51.4 669.997 50.4C670.197 49.3333 670.43 48.2 670.697 47C670.964 45.8 671.297 44.5667 671.697 43.3C672.097 41.9667 672.497 40.7667 672.897 39.7C673.697 39.7 674.664 39.9333 675.797 40.4C676.997 40.8 678.197 41.3667 679.397 42.1C680.597 42.7667 681.697 43.5333 682.697 44.4C683.697 45.2 684.464 45.9667 684.997 46.7C684.264 47.4333 683.297 48.4667 682.097 49.8C680.897 51.0667 679.73 52.4333 678.597 53.9C677.464 55.3 676.43 56.6333 675.497 57.9C674.564 59.1667 673.964 60.0667 673.697 60.6C672.897 60.4667 672.197 60.1333 671.597 59.6C670.997 59 670.697 58.4333 670.697 57.9ZM717.646 64.1C717.979 64.1 718.679 64.1333 719.746 64.2C720.879 64.2 722.146 64.2333 723.546 64.3C724.946 64.3 726.346 64.3667 727.746 64.5C729.213 64.6333 730.446 64.8 731.446 65C732.113 65.7333 732.613 66.4333 732.946 67.1C731.413 69.1 729.946 71.3667 728.546 73.9C727.146 76.4333 725.846 79.0667 724.646 81.8C723.446 84.4667 722.346 87.1333 721.346 89.8C720.413 92.4 719.579 94.8333 718.846 97.1C718.179 99.3 717.613 101.233 717.146 102.9C716.746 104.567 716.513 105.767 716.446 106.5C716.313 107.7 716.246 108.533 716.246 109C716.313 109.533 716.179 109.8 715.846 109.8C715.579 109.8 715.046 109.633 714.246 109.3C713.446 108.967 712.613 108.467 711.746 107.8C710.946 107.067 710.213 106.167 709.546 105.1C708.879 104.033 708.546 102.767 708.546 101.3C708.546 99.4333 708.813 97.1 709.346 94.3C709.879 91.4333 710.579 88.5 711.446 85.5C712.313 82.5 713.313 79.6333 714.446 76.9C715.579 74.1 716.746 71.8333 717.946 70.1C715.813 69.9667 713.679 69.8667 711.546 69.8C709.413 69.6667 707.279 69.6 705.146 69.6C704.413 69.6 703.679 69.6 702.946 69.6C702.213 69.6 701.479 69.6333 700.746 69.7C697.413 80.1667 694.413 89.3 691.746 97.1C689.146 104.9 686.713 111.567 684.446 117.1C682.246 122.7 680.113 127.267 678.046 130.8C676.046 134.4 674.013 137.2 671.946 139.2C669.946 141.267 667.813 142.7 665.546 143.5C663.279 144.3 660.779 144.7 658.046 144.7C653.313 144.7 649.279 143.1 645.946 139.9C645.946 139.433 646.079 138.933 646.346 138.4C646.613 137.867 646.913 137.5 647.246 137.3C648.179 138.433 649.413 139.3 650.946 139.9C652.479 140.567 654.079 140.9 655.746 140.9C657.479 140.9 659.079 140.5 660.546 139.7C661.946 138.967 663.346 137.7 664.746 135.9C666.079 134.1 667.413 131.733 668.746 128.8C670.146 125.867 671.646 122.233 673.246 117.9C675.579 111.5 677.979 104.233 680.446 96.1C682.979 87.9667 685.546 79.3667 688.146 70.3C685.613 70.4333 683.513 70.6 681.846 70.8C680.179 71 679.079 71.1333 678.546 71.2C678.279 70.9333 678.046 70.5667 677.846 70.1C677.713 69.6333 677.646 69.2 677.646 68.8C678.713 68.4667 680.213 68.1 682.146 67.7C684.146 67.2333 686.546 66.7667 689.346 66.3C690.946 61.5 692.713 57.1667 694.646 53.3C696.579 49.3667 698.646 46.0333 700.846 43.3C703.113 40.5667 705.513 38.4667 708.046 37C710.646 35.5333 713.446 34.8 716.446 34.8C717.513 34.8 718.679 35.0333 719.946 35.5C721.279 35.9 722.546 36.3667 723.746 36.9C725.013 37.3667 726.146 37.8333 727.146 38.3C728.146 38.7 728.913 38.9 729.446 38.9C730.246 38.4333 731.346 38.0333 732.746 37.7C734.213 37.3 735.446 37.1 736.446 37.1C737.246 37.1 738.279 37.5333 739.546 38.4C738.946 39.3333 738.346 40.6 737.746 42.2C737.146 43.8 736.679 45.3667 736.346 46.9C734.679 51.8333 732.913 55.0333 731.046 56.5C730.713 56.5 730.413 56.3 730.146 55.9C729.946 55.4333 729.846 54.6667 729.846 53.6C729.846 52.8667 729.679 52.2 729.346 51.6C729.013 51 728.613 50.4 728.146 49.8C727.746 49.2 727.379 48.6 727.046 48C726.713 47.4 726.546 46.7667 726.546 46.1C726.546 45.7 726.579 45.2333 726.646 44.7C726.713 44.1 726.846 43.1333 727.046 41.8C726.246 41.7333 725.446 41.7 724.646 41.7C723.913 41.6333 723.179 41.6 722.446 41.6C719.846 41.6 717.513 42.2333 715.446 43.5C713.446 44.7667 711.646 46.5 710.046 48.7C708.446 50.8333 707.013 53.3 705.746 56.1C704.479 58.8333 703.346 61.7 702.346 64.7C704.679 64.5667 707.079 64.4333 709.546 64.3C712.079 64.1667 714.779 64.1 717.646 64.1ZM767.149 67.6C767.816 67.6 768.583 67.7333 769.449 68C770.383 68.2 771.216 68.5 771.949 68.9C772.683 69.2333 773.283 69.6 773.749 70C774.283 70.4 774.549 70.7667 774.549 71.1C773.216 73.9 771.983 76.7333 770.849 79.6C769.716 82.4 768.749 85.1 767.949 87.7C767.149 90.3 766.516 92.7333 766.049 95C765.649 97.2667 765.449 99.2333 765.449 100.9C765.449 102.767 765.649 104.333 766.049 105.6C766.449 106.8 767.116 107.667 768.049 108.2C767.249 108.733 766.216 109.167 764.949 109.5C763.683 109.833 762.549 110 761.549 110C757.949 110 756.149 107.533 756.149 102.6C756.149 98.8 757.416 93.6 759.949 87C758.616 90.0667 757.083 92.9667 755.349 95.7C753.616 98.3667 751.849 100.733 750.049 102.8C748.249 104.867 746.416 106.567 744.549 107.9C742.749 109.167 741.083 109.933 739.549 110.2C737.083 110.067 735.083 108.9 733.549 106.7C732.016 104.433 731.249 101.567 731.249 98.1C731.249 94.3667 732.049 90.4333 733.649 86.3C735.249 82.1667 737.283 78.3333 739.749 74.8C742.283 71.2667 745.016 68.3333 747.949 66C750.883 63.6 753.716 62.3333 756.449 62.2C757.116 62.4 757.849 62.8 758.649 63.4C759.516 64 760.316 64.7 761.049 65.5C761.849 66.3 762.516 67.1333 763.049 68C763.583 68.8 763.883 69.5 763.949 70.1C761.283 70.5 758.516 71.8 755.649 74C752.849 76.2 750.283 78.8667 747.949 82C745.683 85.0667 743.816 88.3667 742.349 91.9C740.883 95.4333 740.149 98.7333 740.149 101.8C740.149 103.067 740.616 103.867 741.549 104.2C743.483 103.8 745.716 102.167 748.249 99.3C750.783 96.3667 753.849 91.8667 757.449 85.8C758.116 84.6 758.849 83.2667 759.649 81.8C760.516 80.3333 761.383 78.8 762.249 77.2C763.116 75.6 763.949 74 764.749 72.4C765.616 70.7333 766.416 69.1333 767.149 67.6ZM795.822 59.5C797.555 60.0333 799.189 61.2333 800.722 63.1C802.255 64.9 803.389 66.9 804.122 69.1C803.389 70.9 802.255 73.0667 800.722 75.6C799.189 78.1333 797.655 80.7333 796.122 83.4C794.589 86 793.189 88.5 791.922 90.9C790.722 93.2333 790.022 95.1667 789.822 96.7C790.889 95.5667 792.055 94.2667 793.322 92.8C794.655 91.2667 795.922 89.7667 797.122 88.3C798.389 86.7667 799.555 85.4 800.622 84.2C801.689 82.9333 802.522 82 803.122 81.4C804.389 80.0667 805.889 78.5333 807.622 76.8C809.355 75 811.155 73.3333 813.022 71.8C814.955 70.2 816.889 68.8667 818.822 67.8C820.755 66.6667 822.522 66.1 824.122 66.1C825.855 66.1 827.289 66.7 828.422 67.9C829.622 69.0333 830.555 70.2333 831.222 71.5C831.222 71.6333 830.955 71.8333 830.422 72.1C829.955 72.3 829.255 72.9333 828.322 74C827.389 75.2 826.322 76.8667 825.122 79C823.989 81.0667 822.855 83.3333 821.722 85.8C820.655 88.2 819.755 90.6667 819.022 93.2C818.289 95.7333 817.922 98.0333 817.922 100.1C817.922 101.767 818.122 102.833 818.522 103.3C818.989 103.767 819.622 104 820.422 104C821.155 104 821.922 103.833 822.722 103.5C823.522 103.167 824.155 103 824.622 103C824.889 103.133 825.089 103.433 825.222 103.9C825.422 104.3 825.522 104.667 825.522 105C824.989 105.467 824.355 105.933 823.622 106.4C822.889 106.867 822.122 107.3 821.322 107.7C820.522 108.1 819.722 108.433 818.922 108.7C818.189 108.967 817.522 109.1 816.922 109.1C814.989 109.1 813.389 108.8 812.122 108.2C810.922 107.667 809.955 106.933 809.222 106C808.555 105.067 808.089 103.967 807.822 102.7C807.555 101.367 807.422 99.9667 807.422 98.5C807.422 97.7 807.489 96.8 807.622 95.8C807.755 94.8 808.022 93.6333 808.422 92.3C808.822 90.9 809.389 89.2667 810.122 87.4C810.855 85.4667 811.789 83.1667 812.922 80.5C812.789 80.5 811.889 80.9667 810.222 81.9C808.555 82.8333 806.755 84.2667 804.822 86.2C801.689 89.2 798.855 92.1667 796.322 95.1C793.855 98.0333 791.322 101.3 788.722 104.9C787.255 106.967 785.955 108.7 784.822 110.1C783.755 111.567 782.822 112.533 782.022 113C780.622 112.2 779.589 111.067 778.922 109.6C778.255 108.2 777.755 106.733 777.422 105.2C777.422 103.933 777.589 102.333 777.922 100.4C778.322 98.4667 778.822 96.3333 779.422 94C780.089 91.6 780.889 89.1 781.822 86.5C782.755 83.9 783.789 81.3 784.922 78.7C787.455 72.8333 789.755 68.2333 791.822 64.9C793.955 61.5667 795.289 59.7667 795.822 59.5ZM839.526 69.7C839.192 69.3 838.892 68.4667 838.626 67.2C838.359 65.8667 838.226 64.7333 838.226 63.8C839.959 63.9333 841.626 64.0667 843.226 64.2C844.826 64.2667 846.292 64.3333 847.626 64.4C848.626 62.4 849.692 60.4333 850.826 58.5C852.026 56.5 853.159 54.7 854.226 53.1C855.359 51.4333 856.392 50.0333 857.326 48.9C858.326 47.7667 859.092 47.0333 859.626 46.7C860.292 46.7 861.126 46.8333 862.126 47.1C863.192 47.3 864.259 47.6 865.326 48C866.392 48.3333 867.359 48.7 868.226 49.1C869.092 49.5 869.692 49.9 870.026 50.3C868.026 52.8333 866.292 55.2 864.826 57.4C863.426 59.5333 861.892 62 860.226 64.8C861.559 64.8 862.892 64.7667 864.226 64.7C865.626 64.6333 867.026 64.5333 868.426 64.4C868.759 64.7333 869.026 65.1667 869.226 65.7C869.426 66.1667 869.526 66.6667 869.526 67.2C866.259 68.4 862.292 69.0667 857.626 69.2C855.959 72.4 854.459 75.6 853.126 78.8C851.859 81.9333 850.759 84.9667 849.826 87.9C848.959 90.8333 848.259 93.6 847.726 96.2C847.259 98.8 847.026 101.133 847.026 103.2C847.026 106.133 848.126 107.767 850.326 108.1C852.326 107.833 854.226 107.333 856.026 106.6C857.826 105.867 859.426 104.933 860.826 103.8C861.226 104.4 861.459 104.9 861.526 105.3C861.126 105.9 860.426 106.6 859.426 107.4C858.492 108.2 857.459 108.967 856.326 109.7C855.192 110.5 854.092 111.167 853.026 111.7C851.959 112.233 851.159 112.533 850.626 112.6C848.959 112.533 847.292 112.167 845.626 111.5C843.959 110.833 842.426 110 841.026 109C839.692 108 838.592 106.9 837.726 105.7C836.859 104.433 836.426 103.2 836.426 102C836.426 100.4 836.626 98.4 837.026 96C837.492 93.5333 838.126 90.8667 838.926 88C839.726 85.1333 840.659 82.1333 841.726 79C842.792 75.8667 843.959 72.7667 845.226 69.7H839.526ZM904.582 66.6C904.315 70.7333 903.582 74.3 902.382 77.3C901.182 80.2333 899.449 82.8333 897.182 85.1C894.982 87.3 892.282 89.3 889.082 91.1C885.882 92.9 882.149 94.6333 877.882 96.3C877.882 96.7 877.849 97.1333 877.782 97.6C877.782 98 877.782 98.4333 877.782 98.9C877.782 99.7667 877.849 100.667 877.982 101.6C878.115 102.533 878.349 103.4 878.682 104.2C879.015 105 879.482 105.667 880.082 106.2C880.682 106.667 881.449 106.9 882.382 106.9C884.182 106.9 885.949 106.5 887.682 105.7C889.415 104.9 891.049 103.933 892.582 102.8C894.182 101.6 895.649 100.333 896.982 99C898.382 97.6 899.615 96.3333 900.682 95.2C901.349 95.8 901.915 96.3667 902.382 96.9C899.382 100.9 896.082 104.233 892.482 106.9C888.949 109.5 885.582 111.167 882.382 111.9C877.782 111.367 874.182 109.7 871.582 106.9C869.049 104.033 867.782 100.6 867.782 96.6C867.782 93.8667 868.149 91.1 868.882 88.3C869.682 85.4333 870.749 82.7 872.082 80.1C873.482 77.4333 875.082 74.9333 876.882 72.6C878.749 70.2667 880.715 68.2333 882.782 66.5C884.915 64.7667 887.082 63.4 889.282 62.4C891.549 61.4 893.782 60.9 895.982 60.9C899.049 61.3 901.915 63.2 904.582 66.6ZM897.682 69.9C895.882 70.1667 894.015 70.9 892.082 72.1C890.149 73.3 888.315 74.9 886.582 76.9C884.915 78.9 883.382 81.2333 881.982 83.9C880.582 86.5667 879.482 89.4333 878.682 92.5C884.015 89.8333 888.449 86.5667 891.982 82.7C895.515 78.7667 897.415 74.5 897.682 69.9Z" fill="#0A1128"/>
</svg>
