<svg width="627" height="138" viewBox="0 0 627 138" fill="none" xmlns="http://www.w3.org/2000/svg">
<path d="M210.029 137.343C231.655 107.48 315.228 63.8984 476.517 128.477C414.333 115.896 273.978 100.055 210.029 137.343Z" fill="#1282A2"/>
<path d="M199 132.16C220.667 102.327 304.3 58.8599 465.5 123.66C403.333 110.993 263 94.9599 199 132.16Z" fill="#0A1128"/>
<path d="M55.958 40.809C55.958 43.339 55.314 45.754 54.026 48.054C52.784 50.354 51.082 52.378 48.92 54.126C46.804 55.828 44.297 57.185 41.399 58.197C38.547 59.209 35.511 59.715 32.291 59.715C31.141 59.715 30.221 59.577 29.531 59.301C28.887 58.979 28.151 58.381 27.323 57.507C25.023 62.521 23.137 67.144 21.665 71.376C20.239 75.562 19.112 79.633 18.284 83.589C16.536 83.175 15.11 82.439 14.006 81.381C12.902 80.369 11.89 79.081 10.97 77.517C11.43 76.643 11.982 75.493 12.626 74.067C13.27 72.641 14.052 70.893 14.972 68.823C15.892 66.707 16.95 64.2 18.146 61.302C19.388 58.358 20.837 54.931 22.493 51.021C23.229 49.227 23.873 47.663 24.425 46.329C24.977 44.995 25.46 43.753 25.874 42.603C26.288 41.407 26.656 40.234 26.978 39.084C27.346 37.934 27.714 36.669 28.082 35.289C25.92 35.979 23.919 36.784 22.079 37.704C20.285 38.624 18.79 39.59 17.594 40.602C17.18 40.326 16.743 39.912 16.283 39.36C15.869 38.808 15.478 38.21 15.11 37.566C14.742 36.876 14.42 36.186 14.144 35.496C13.868 34.806 13.707 34.185 13.661 33.633C14.995 32.713 16.651 31.862 18.629 31.08C20.607 30.298 22.723 29.631 24.977 29.079C27.231 28.481 29.554 28.021 31.946 27.699C34.384 27.377 36.707 27.216 38.915 27.216C41.537 27.216 43.906 27.561 46.022 28.251C48.138 28.895 49.932 29.815 51.404 31.011C52.876 32.207 54.003 33.633 54.785 35.289C55.567 36.945 55.958 38.785 55.958 40.809ZM43.676 32.529C41.928 32.529 40.134 32.667 38.294 32.943L39.122 34.185C38.662 34.783 38.087 35.68 37.397 36.876C36.707 38.072 35.948 39.521 35.12 41.223C34.292 42.879 33.372 44.742 32.36 46.812C31.394 48.882 30.359 51.067 29.255 53.367C32.843 53.367 36.109 53.045 39.053 52.401C41.997 51.711 44.504 50.791 46.574 49.641C48.69 48.445 50.323 47.065 51.473 45.501C52.669 43.937 53.267 42.258 53.267 40.464C53.267 38.072 52.462 36.163 50.852 34.737C49.242 33.265 46.85 32.529 43.676 32.529ZM59.96 80.415C57.338 80.139 55.245 78.989 53.681 76.965C52.117 74.941 51.335 72.365 51.335 69.237C51.335 67.397 51.611 65.488 52.163 63.51C52.715 61.532 53.497 59.623 54.509 57.783C55.521 55.897 56.717 54.126 58.097 52.47C59.477 50.814 60.972 49.388 62.582 48.192C65.112 46.306 67.481 45.363 69.689 45.363C71.161 46.145 72.61 47.778 74.036 50.262C74.266 50.262 74.473 50.262 74.657 50.262C74.841 50.216 75.048 50.193 75.278 50.193C77.716 50.193 78.935 52.355 78.935 56.679C78.935 59.577 78.452 62.337 77.486 64.959C76.566 67.535 75.255 69.881 73.553 71.997C71.897 74.113 69.896 75.907 67.55 77.379C65.25 78.805 62.72 79.817 59.96 80.415ZM63.479 58.68C62.697 59.738 61.961 60.888 61.271 62.13C60.581 63.372 59.983 64.637 59.477 65.925C58.971 67.167 58.58 68.386 58.304 69.582C58.028 70.732 57.89 71.767 57.89 72.687C57.89 73.791 58.074 74.849 58.442 75.861C58.81 76.873 59.224 77.448 59.684 77.586C61.754 77.126 63.64 76.275 65.342 75.033C67.09 73.745 68.585 72.158 69.827 70.272C71.115 68.386 72.104 66.247 72.794 63.855C73.53 61.463 73.898 58.91 73.898 56.196C73.898 55 73.829 54.057 73.691 53.367C73.553 52.677 73.323 52.079 73.001 51.573C70.977 52.171 69.16 53.137 67.55 54.471C65.986 55.805 64.629 57.208 63.479 58.68ZM101.043 76.482C100.169 75.746 99.571 74.826 99.249 73.722C98.973 72.618 98.835 71.675 98.835 70.893C98.835 69.927 98.95 69.099 99.18 68.409C98.996 68.409 98.582 68.777 97.938 69.513C97.294 70.249 96.581 71.123 95.799 72.135C95.063 73.147 94.327 74.136 93.591 75.102C92.855 76.068 92.303 76.781 91.935 77.241C91.337 77.885 90.762 78.391 90.21 78.759C89.704 79.127 89.29 79.334 88.968 79.38C88.232 79.334 87.45 79.173 86.622 78.897C85.84 78.667 85.081 78.322 84.345 77.862C83.655 77.402 83.034 76.85 82.482 76.206C81.976 75.562 81.631 74.826 81.447 73.998C81.447 72.71 81.47 71.652 81.516 70.824C81.608 69.996 81.769 69.099 81.999 68.133C82.413 66.385 83.011 64.407 83.793 62.199C84.621 59.991 85.564 57.829 86.622 55.713C87.68 53.551 88.853 51.55 90.141 49.71C91.475 47.824 92.878 46.352 94.35 45.294C94.764 45.294 95.247 45.34 95.799 45.432C96.351 45.478 96.903 45.593 97.455 45.777C98.053 45.961 98.605 46.191 99.111 46.467C99.663 46.697 100.123 47.019 100.491 47.433C100.077 47.893 99.019 49.434 97.317 52.056C95.661 54.678 93.798 58.45 91.728 63.372C91.498 63.878 91.222 64.614 90.9 65.58C90.578 66.546 90.256 67.558 89.934 68.616C89.612 69.674 89.336 70.709 89.106 71.721C88.922 72.733 88.83 73.538 88.83 74.136C88.83 74.504 88.876 74.78 88.968 74.964C89.106 75.148 89.221 75.286 89.313 75.378C90.003 75.102 90.877 74.343 91.935 73.101C92.993 71.859 94.465 69.95 96.351 67.374C96.811 66.73 97.34 65.994 97.938 65.166C98.582 64.338 99.226 63.464 99.87 62.544C100.514 61.578 101.112 60.589 101.664 59.577C102.262 58.565 102.745 57.553 103.113 56.541C103.297 55.989 103.527 55.345 103.803 54.609C104.125 53.827 104.493 53.022 104.907 52.194C105.367 51.366 105.873 50.538 106.425 49.71C107.023 48.836 107.713 48.031 108.495 47.295C109.093 47.295 109.737 47.364 110.427 47.502C111.117 47.64 111.761 47.824 112.359 48.054C113.003 48.238 113.555 48.468 114.015 48.744C114.475 48.974 114.82 49.227 115.05 49.503C114.222 51.527 113.302 53.528 112.29 55.506C111.278 57.484 110.335 59.439 109.461 61.371C108.587 63.257 107.851 65.143 107.253 67.029C106.655 68.915 106.356 70.755 106.356 72.549C106.356 73.515 106.425 74.366 106.563 75.102C106.747 75.792 106.931 76.39 107.115 76.896C107.299 77.356 107.46 77.747 107.598 78.069C107.782 78.391 107.874 78.667 107.874 78.897C107.874 78.943 107.828 79.012 107.736 79.104C107.69 79.15 107.644 79.173 107.598 79.173C107.276 79.173 106.862 79.104 106.356 78.966C105.85 78.828 105.275 78.621 104.631 78.345C104.033 78.115 103.412 77.839 102.768 77.517C102.17 77.195 101.595 76.85 101.043 76.482ZM114.715 76.62C114.945 75.286 115.336 73.538 115.888 71.376C116.486 69.168 117.176 66.845 117.958 64.407C118.74 61.923 119.568 59.439 120.442 56.955C121.316 54.471 122.167 52.24 122.995 50.262C123.593 48.836 124.122 47.732 124.582 46.95C125.042 46.122 125.548 45.432 126.1 44.88C126.744 44.972 127.411 45.133 128.101 45.363C128.791 45.593 129.458 45.869 130.102 46.191C130.746 46.513 131.321 46.858 131.827 47.226C132.333 47.548 132.724 47.87 133 48.192C131.758 49.664 130.654 51.343 129.688 53.229C128.768 55.115 127.825 57.53 126.859 60.474C129.343 58.266 131.528 56.15 133.414 54.126C135.346 52.102 137.14 49.848 138.796 47.364C139.072 47.134 139.555 47.019 140.245 47.019C140.889 47.019 141.51 47.134 142.108 47.364C142.706 47.548 143.12 47.824 143.35 48.192C142.522 50.4 142.108 52.585 142.108 54.747C142.108 56.771 142.407 58.289 143.005 59.301C142.959 59.577 142.637 60.106 142.039 60.888C141.487 61.67 140.866 62.406 140.176 63.096C138.934 62.452 137.83 61.578 136.864 60.474C135.898 59.324 135.185 58.082 134.725 56.748C132.563 58.266 130.723 59.761 129.205 61.233C127.687 62.659 126.376 64.269 125.272 66.063C124.214 67.811 123.294 69.835 122.512 72.135C121.776 74.435 121.063 77.172 120.373 80.346C119.959 80.3 119.453 80.139 118.855 79.863C118.303 79.633 117.728 79.334 117.13 78.966C116.578 78.598 116.072 78.207 115.612 77.793C115.152 77.379 114.853 76.988 114.715 76.62ZM166.927 50.538C166.881 51.412 166.72 52.332 166.444 53.298C166.214 54.218 165.915 55.069 165.547 55.851C165.179 56.587 164.788 57.208 164.374 57.714C163.96 58.22 163.569 58.473 163.201 58.473C162.695 58.427 162.396 58.082 162.304 57.438C162.304 57.3 162.35 57.093 162.442 56.817C162.58 56.495 162.718 56.15 162.856 55.782C162.994 55.414 163.109 55.046 163.201 54.678C163.339 54.31 163.408 53.988 163.408 53.712C163.408 53.068 163.247 52.539 162.925 52.125C162.649 51.665 162.258 51.435 161.752 51.435C159.912 51.435 158.509 52.585 157.543 54.885C156.577 57.185 156.094 60.566 156.094 65.028C156.094 65.488 156.117 65.764 156.163 65.856C157.129 65.81 157.98 65.787 158.716 65.787C159.498 65.741 160.257 65.718 160.993 65.718C161.039 65.81 161.062 65.994 161.062 66.27C161.062 66.684 160.97 66.983 160.786 67.167C159.728 67.397 158.877 67.604 158.233 67.788C157.635 67.926 157.175 68.064 156.853 68.202C156.531 68.34 156.324 68.501 156.232 68.685C156.186 68.823 156.163 69.03 156.163 69.306C156.163 69.674 156.163 70.042 156.163 70.41C156.209 70.778 156.232 71.238 156.232 71.79C156.232 75.654 155.174 78.759 153.058 81.105C150.988 83.451 148.09 84.808 144.364 85.176C143.72 85.13 143.053 84.946 142.363 84.624C141.673 84.302 141.006 83.888 140.362 83.382C139.764 82.876 139.235 82.301 138.775 81.657C138.315 81.059 137.993 80.438 137.809 79.794C137.809 78.046 138.177 76.39 138.913 74.826C139.649 73.216 140.638 71.813 141.88 70.617C143.168 69.375 144.663 68.386 146.365 67.65C148.113 66.868 149.999 66.408 152.023 66.27C152.023 65.12 151.908 63.993 151.678 62.889C151.448 61.785 151.195 60.727 150.919 59.715C150.689 58.657 150.459 57.645 150.229 56.679C149.999 55.667 149.884 54.678 149.884 53.712C149.884 52.47 150.137 51.251 150.643 50.055C151.149 48.813 151.816 47.686 152.644 46.674C153.472 45.616 154.438 44.719 155.542 43.983C156.646 43.247 157.796 42.741 158.992 42.465C159.498 42.603 160.165 43.017 160.993 43.707C161.867 44.351 162.718 45.087 163.546 45.915C164.374 46.743 165.11 47.594 165.754 48.468C166.398 49.296 166.789 49.986 166.927 50.538ZM144.157 82.002C145.261 81.542 146.296 80.875 147.262 80.001C148.274 79.127 149.148 78.138 149.884 77.034C150.62 75.93 151.195 74.757 151.609 73.515C152.069 72.273 152.299 71.054 152.299 69.858C151.379 69.996 150.367 70.433 149.263 71.169C148.159 71.859 147.124 72.71 146.158 73.722C145.192 74.688 144.387 75.7 143.743 76.758C143.099 77.816 142.777 78.736 142.777 79.518C142.777 80.53 143.237 81.358 144.157 82.002ZM185.743 76.482C184.869 75.746 184.271 74.826 183.949 73.722C183.673 72.618 183.535 71.675 183.535 70.893C183.535 69.927 183.65 69.099 183.88 68.409C183.696 68.409 183.282 68.777 182.638 69.513C181.994 70.249 181.281 71.123 180.499 72.135C179.763 73.147 179.027 74.136 178.291 75.102C177.555 76.068 177.003 76.781 176.635 77.241C176.037 77.885 175.462 78.391 174.91 78.759C174.404 79.127 173.99 79.334 173.668 79.38C172.932 79.334 172.15 79.173 171.322 78.897C170.54 78.667 169.781 78.322 169.045 77.862C168.355 77.402 167.734 76.85 167.182 76.206C166.676 75.562 166.331 74.826 166.147 73.998C166.147 72.71 166.17 71.652 166.216 70.824C166.308 69.996 166.469 69.099 166.699 68.133C167.113 66.385 167.711 64.407 168.493 62.199C169.321 59.991 170.264 57.829 171.322 55.713C172.38 53.551 173.553 51.55 174.841 49.71C176.175 47.824 177.578 46.352 179.05 45.294C179.464 45.294 179.947 45.34 180.499 45.432C181.051 45.478 181.603 45.593 182.155 45.777C182.753 45.961 183.305 46.191 183.811 46.467C184.363 46.697 184.823 47.019 185.191 47.433C184.777 47.893 183.719 49.434 182.017 52.056C180.361 54.678 178.498 58.45 176.428 63.372C176.198 63.878 175.922 64.614 175.6 65.58C175.278 66.546 174.956 67.558 174.634 68.616C174.312 69.674 174.036 70.709 173.806 71.721C173.622 72.733 173.53 73.538 173.53 74.136C173.53 74.504 173.576 74.78 173.668 74.964C173.806 75.148 173.921 75.286 174.013 75.378C174.703 75.102 175.577 74.343 176.635 73.101C177.693 71.859 179.165 69.95 181.051 67.374C181.511 66.73 182.04 65.994 182.638 65.166C183.282 64.338 183.926 63.464 184.57 62.544C185.214 61.578 185.812 60.589 186.364 59.577C186.962 58.565 187.445 57.553 187.813 56.541C187.997 55.989 188.227 55.345 188.503 54.609C188.825 53.827 189.193 53.022 189.607 52.194C190.067 51.366 190.573 50.538 191.125 49.71C191.723 48.836 192.413 48.031 193.195 47.295C193.793 47.295 194.437 47.364 195.127 47.502C195.817 47.64 196.461 47.824 197.059 48.054C197.703 48.238 198.255 48.468 198.715 48.744C199.175 48.974 199.52 49.227 199.75 49.503C198.922 51.527 198.002 53.528 196.99 55.506C195.978 57.484 195.035 59.439 194.161 61.371C193.287 63.257 192.551 65.143 191.953 67.029C191.355 68.915 191.056 70.755 191.056 72.549C191.056 73.515 191.125 74.366 191.263 75.102C191.447 75.792 191.631 76.39 191.815 76.896C191.999 77.356 192.16 77.747 192.298 78.069C192.482 78.391 192.574 78.667 192.574 78.897C192.574 78.943 192.528 79.012 192.436 79.104C192.39 79.15 192.344 79.173 192.298 79.173C191.976 79.173 191.562 79.104 191.056 78.966C190.55 78.828 189.975 78.621 189.331 78.345C188.733 78.115 188.112 77.839 187.468 77.517C186.87 77.195 186.295 76.85 185.743 76.482ZM200.803 73.377C200.803 72.963 200.826 72.457 200.872 71.859C200.964 71.215 201.102 70.387 201.286 69.375C201.47 68.317 201.7 67.052 201.976 65.58C202.298 64.108 202.689 62.337 203.149 60.267C203.241 59.807 203.448 59.071 203.77 58.059C204.092 57.047 204.506 55.989 205.012 54.885C205.564 53.735 206.208 52.631 206.944 51.573C207.726 50.515 208.646 49.733 209.704 49.227C210.486 49.411 211.521 49.894 212.809 50.676C214.097 51.412 215.201 52.447 216.121 53.781C215.063 54.977 214.166 56.173 213.43 57.369C212.74 58.565 212.096 59.807 211.498 61.095C210.946 62.383 210.417 63.717 209.911 65.097C209.451 66.477 208.922 67.926 208.324 69.444C207.818 70.732 207.358 72.066 206.944 73.446C206.53 74.78 206.3 75.953 206.254 76.965C206.254 77.793 206.231 78.368 206.185 78.69C206.185 79.058 206.07 79.242 205.84 79.242C205.656 79.242 205.288 79.127 204.736 78.897C204.184 78.667 203.609 78.322 203.011 77.862C202.459 77.356 201.953 76.735 201.493 75.999C201.033 75.263 200.803 74.389 200.803 73.377ZM213.982 43.431C213.982 43.155 214.051 42.741 214.189 42.189C213.959 41.959 213.752 41.614 213.568 41.154C213.43 40.694 213.361 40.28 213.361 39.912C213.361 39.498 213.407 38.946 213.499 38.256C213.637 37.52 213.798 36.738 213.982 35.91C214.166 35.082 214.396 34.231 214.672 33.357C214.948 32.437 215.224 31.609 215.5 30.873C216.052 30.873 216.719 31.034 217.501 31.356C218.329 31.632 219.157 32.023 219.985 32.529C220.813 32.989 221.572 33.518 222.262 34.116C222.952 34.668 223.481 35.197 223.849 35.703C223.343 36.209 222.676 36.922 221.848 37.842C221.02 38.716 220.215 39.659 219.433 40.671C218.651 41.637 217.938 42.557 217.294 43.431C216.65 44.305 216.236 44.926 216.052 45.294C215.5 45.202 215.017 44.972 214.603 44.604C214.189 44.19 213.982 43.799 213.982 43.431ZM220.64 51.573C220.41 51.297 220.203 50.722 220.019 49.848C219.835 48.928 219.743 48.146 219.743 47.502C220.939 47.594 222.089 47.686 223.193 47.778C224.297 47.824 225.309 47.87 226.229 47.916C226.919 46.536 227.655 45.179 228.437 43.845C229.265 42.465 230.047 41.223 230.783 40.119C231.565 38.969 232.278 38.003 232.922 37.221C233.612 36.439 234.141 35.933 234.509 35.703C234.969 35.703 235.544 35.795 236.234 35.979C236.97 36.117 237.706 36.324 238.442 36.6C239.178 36.83 239.845 37.083 240.443 37.359C241.041 37.635 241.455 37.911 241.685 38.187C240.305 39.935 239.109 41.568 238.097 43.086C237.131 44.558 236.073 46.26 234.923 48.192C235.843 48.192 236.763 48.169 237.683 48.123C238.649 48.077 239.615 48.008 240.581 47.916C240.811 48.146 240.995 48.445 241.133 48.813C241.271 49.135 241.34 49.48 241.34 49.848C239.086 50.676 236.349 51.136 233.129 51.228C231.979 53.436 230.944 55.644 230.024 57.852C229.15 60.014 228.391 62.107 227.747 64.131C227.149 66.155 226.666 68.064 226.298 69.858C225.976 71.652 225.815 73.262 225.815 74.688C225.815 76.712 226.574 77.839 228.092 78.069C229.472 77.885 230.783 77.54 232.025 77.034C233.267 76.528 234.371 75.884 235.337 75.102C235.613 75.516 235.774 75.861 235.82 76.137C235.544 76.551 235.061 77.034 234.371 77.586C233.727 78.138 233.014 78.667 232.232 79.173C231.45 79.725 230.691 80.185 229.955 80.553C229.219 80.921 228.667 81.128 228.299 81.174C227.149 81.128 225.999 80.875 224.849 80.415C223.699 79.955 222.641 79.38 221.675 78.69C220.755 78 219.996 77.241 219.398 76.413C218.8 75.539 218.501 74.688 218.501 73.86C218.501 72.756 218.639 71.376 218.915 69.72C219.237 68.018 219.674 66.178 220.226 64.2C220.778 62.222 221.422 60.152 222.158 57.99C222.894 55.828 223.699 53.689 224.573 51.573H220.64ZM265.529 49.434C265.345 52.286 264.839 54.747 264.011 56.817C263.183 58.841 261.987 60.635 260.423 62.199C258.905 63.717 257.042 65.097 254.834 66.339C252.626 67.581 250.05 68.777 247.106 69.927C247.106 70.203 247.083 70.502 247.037 70.824C247.037 71.1 247.037 71.399 247.037 71.721C247.037 72.319 247.083 72.94 247.175 73.584C247.267 74.228 247.428 74.826 247.658 75.378C247.888 75.93 248.21 76.39 248.624 76.758C249.038 77.08 249.567 77.241 250.211 77.241C251.453 77.241 252.672 76.965 253.868 76.413C255.064 75.861 256.191 75.194 257.249 74.412C258.353 73.584 259.365 72.71 260.285 71.79C261.251 70.824 262.102 69.95 262.838 69.168C263.298 69.582 263.689 69.973 264.011 70.341C261.941 73.101 259.664 75.401 257.18 77.241C254.742 79.035 252.419 80.185 250.211 80.691C247.037 80.323 244.553 79.173 242.759 77.241C241.011 75.263 240.137 72.894 240.137 70.134C240.137 68.248 240.39 66.339 240.896 64.407C241.448 62.429 242.184 60.543 243.104 58.749C244.07 56.909 245.174 55.184 246.416 53.574C247.704 51.964 249.061 50.561 250.487 49.365C251.959 48.169 253.454 47.226 254.972 46.536C256.536 45.846 258.077 45.501 259.595 45.501C261.711 45.777 263.689 47.088 265.529 49.434ZM260.768 51.711C259.526 51.895 258.238 52.401 256.904 53.229C255.57 54.057 254.305 55.161 253.109 56.541C251.959 57.921 250.901 59.531 249.935 61.371C248.969 63.211 248.21 65.189 247.658 67.305C251.338 65.465 254.397 63.211 256.835 60.543C259.273 57.829 260.584 54.885 260.768 51.711ZM287.511 74.067C287.511 72.411 287.764 70.272 288.27 67.65C288.822 64.982 289.512 62.13 290.34 59.094C291.214 56.012 292.203 52.884 293.307 49.71C294.411 46.49 295.538 43.477 296.688 40.671C297.838 37.865 298.965 35.404 300.069 33.288C301.173 31.172 302.162 29.654 303.036 28.734C303.496 28.78 304.094 28.964 304.83 29.286C305.612 29.562 306.394 29.907 307.176 30.321C307.958 30.735 308.671 31.195 309.315 31.701C309.959 32.161 310.373 32.598 310.557 33.012C309.223 34.208 307.889 36.025 306.555 38.463C305.267 40.855 304.002 43.592 302.76 46.674C301.564 49.756 300.437 53.022 299.379 56.472C298.321 59.876 297.401 63.188 296.619 66.408C295.837 69.628 295.216 72.618 294.756 75.378C294.342 78.138 294.135 80.369 294.135 82.071C294.135 82.853 294.204 83.336 294.342 83.52C293.33 83.474 292.594 83.29 292.134 82.968C291.674 82.692 291.306 82.37 291.03 82.002C290.8 81.68 290.57 81.335 290.34 80.967C290.156 80.645 289.857 80.392 289.443 80.208C289.121 80.07 288.845 79.748 288.615 79.242C288.385 78.736 288.178 78.184 287.994 77.586C287.856 76.942 287.741 76.298 287.649 75.654C287.557 75.01 287.511 74.481 287.511 74.067ZM316.962 44.535C318.158 44.903 319.285 45.731 320.343 47.019C321.401 48.261 322.183 49.641 322.689 51.159C322.183 52.401 321.401 53.896 320.343 55.644C319.285 57.392 318.227 59.186 317.169 61.026C316.111 62.82 315.145 64.545 314.271 66.201C313.443 67.811 312.96 69.145 312.822 70.203C313.558 69.421 314.363 68.524 315.237 67.512C316.157 66.454 317.031 65.419 317.859 64.407C318.733 63.349 319.538 62.406 320.274 61.578C321.01 60.704 321.585 60.06 321.999 59.646C322.873 58.726 323.908 57.668 325.104 56.472C326.3 55.23 327.542 54.08 328.83 53.022C330.164 51.918 331.498 50.998 332.832 50.262C334.166 49.48 335.385 49.089 336.489 49.089C337.685 49.089 338.674 49.503 339.456 50.331C340.284 51.113 340.928 51.941 341.388 52.815C341.388 52.907 341.204 53.045 340.836 53.229C340.514 53.367 340.031 53.804 339.387 54.54C338.743 55.368 338.007 56.518 337.179 57.99C336.397 59.416 335.615 60.98 334.833 62.682C334.097 64.338 333.476 66.04 332.97 67.788C332.464 69.536 332.211 71.123 332.211 72.549C332.211 73.699 332.349 74.435 332.625 74.757C332.947 75.079 333.384 75.24 333.936 75.24C334.442 75.24 334.971 75.125 335.523 74.895C336.075 74.665 336.512 74.55 336.834 74.55C337.018 74.642 337.156 74.849 337.248 75.171C337.386 75.447 337.455 75.7 337.455 75.93C337.087 76.252 336.65 76.574 336.144 76.896C335.638 77.218 335.109 77.517 334.557 77.793C334.005 78.069 333.453 78.299 332.901 78.483C332.395 78.667 331.935 78.759 331.521 78.759C330.187 78.759 329.083 78.552 328.209 78.138C327.381 77.77 326.714 77.264 326.208 76.62C325.748 75.976 325.426 75.217 325.242 74.343C325.058 73.423 324.966 72.457 324.966 71.445C324.966 70.893 325.012 70.272 325.104 69.582C325.196 68.892 325.38 68.087 325.656 67.167C325.932 66.201 326.323 65.074 326.829 63.786C327.335 62.452 327.979 60.865 328.761 59.025C328.669 59.025 328.048 59.347 326.898 59.991C325.748 60.635 324.506 61.624 323.172 62.958C321.01 65.028 319.055 67.075 317.307 69.099C315.605 71.123 313.857 73.377 312.063 75.861C311.051 77.287 310.154 78.483 309.372 79.449C308.636 80.461 307.992 81.128 307.44 81.45C306.474 80.898 305.761 80.116 305.301 79.104C304.841 78.138 304.496 77.126 304.266 76.068C304.266 75.194 304.381 74.09 304.611 72.756C304.887 71.422 305.232 69.95 305.646 68.34C306.106 66.684 306.658 64.959 307.302 63.165C307.946 61.371 308.659 59.577 309.441 57.783C311.189 53.735 312.776 50.561 314.202 48.261C315.674 45.961 316.594 44.719 316.962 44.535ZM366.852 50.538C366.806 51.412 366.645 52.332 366.369 53.298C366.139 54.218 365.84 55.069 365.472 55.851C365.104 56.587 364.713 57.208 364.299 57.714C363.885 58.22 363.494 58.473 363.126 58.473C362.62 58.427 362.321 58.082 362.229 57.438C362.229 57.3 362.275 57.093 362.367 56.817C362.505 56.495 362.643 56.15 362.781 55.782C362.919 55.414 363.034 55.046 363.126 54.678C363.264 54.31 363.333 53.988 363.333 53.712C363.333 53.068 363.172 52.539 362.85 52.125C362.574 51.665 362.183 51.435 361.677 51.435C359.837 51.435 358.434 52.585 357.468 54.885C356.502 57.185 356.019 60.566 356.019 65.028C356.019 65.488 356.042 65.764 356.088 65.856C357.054 65.81 357.905 65.787 358.641 65.787C359.423 65.741 360.182 65.718 360.918 65.718C360.964 65.81 360.987 65.994 360.987 66.27C360.987 66.684 360.895 66.983 360.711 67.167C359.653 67.397 358.802 67.604 358.158 67.788C357.56 67.926 357.1 68.064 356.778 68.202C356.456 68.34 356.249 68.501 356.157 68.685C356.111 68.823 356.088 69.03 356.088 69.306C356.088 69.674 356.088 70.042 356.088 70.41C356.134 70.778 356.157 71.238 356.157 71.79C356.157 75.654 355.099 78.759 352.983 81.105C350.913 83.451 348.015 84.808 344.289 85.176C343.645 85.13 342.978 84.946 342.288 84.624C341.598 84.302 340.931 83.888 340.287 83.382C339.689 82.876 339.16 82.301 338.7 81.657C338.24 81.059 337.918 80.438 337.734 79.794C337.734 78.046 338.102 76.39 338.838 74.826C339.574 73.216 340.563 71.813 341.805 70.617C343.093 69.375 344.588 68.386 346.29 67.65C348.038 66.868 349.924 66.408 351.948 66.27C351.948 65.12 351.833 63.993 351.603 62.889C351.373 61.785 351.12 60.727 350.844 59.715C350.614 58.657 350.384 57.645 350.154 56.679C349.924 55.667 349.809 54.678 349.809 53.712C349.809 52.47 350.062 51.251 350.568 50.055C351.074 48.813 351.741 47.686 352.569 46.674C353.397 45.616 354.363 44.719 355.467 43.983C356.571 43.247 357.721 42.741 358.917 42.465C359.423 42.603 360.09 43.017 360.918 43.707C361.792 44.351 362.643 45.087 363.471 45.915C364.299 46.743 365.035 47.594 365.679 48.468C366.323 49.296 366.714 49.986 366.852 50.538ZM344.082 82.002C345.186 81.542 346.221 80.875 347.187 80.001C348.199 79.127 349.073 78.138 349.809 77.034C350.545 75.93 351.12 74.757 351.534 73.515C351.994 72.273 352.224 71.054 352.224 69.858C351.304 69.996 350.292 70.433 349.188 71.169C348.084 71.859 347.049 72.71 346.083 73.722C345.117 74.688 344.312 75.7 343.668 76.758C343.024 77.816 342.702 78.736 342.702 79.518C342.702 80.53 343.162 81.358 344.082 82.002ZM366.969 73.377C366.969 72.963 366.992 72.457 367.038 71.859C367.13 71.215 367.268 70.387 367.452 69.375C367.636 68.317 367.866 67.052 368.142 65.58C368.464 64.108 368.855 62.337 369.315 60.267C369.407 59.807 369.614 59.071 369.936 58.059C370.258 57.047 370.672 55.989 371.178 54.885C371.73 53.735 372.374 52.631 373.11 51.573C373.892 50.515 374.812 49.733 375.87 49.227C376.652 49.411 377.687 49.894 378.975 50.676C380.263 51.412 381.367 52.447 382.287 53.781C381.229 54.977 380.332 56.173 379.596 57.369C378.906 58.565 378.262 59.807 377.664 61.095C377.112 62.383 376.583 63.717 376.077 65.097C375.617 66.477 375.088 67.926 374.49 69.444C373.984 70.732 373.524 72.066 373.11 73.446C372.696 74.78 372.466 75.953 372.42 76.965C372.42 77.793 372.397 78.368 372.351 78.69C372.351 79.058 372.236 79.242 372.006 79.242C371.822 79.242 371.454 79.127 370.902 78.897C370.35 78.667 369.775 78.322 369.177 77.862C368.625 77.356 368.119 76.735 367.659 75.999C367.199 75.263 366.969 74.389 366.969 73.377ZM380.148 43.431C380.148 43.155 380.217 42.741 380.355 42.189C380.125 41.959 379.918 41.614 379.734 41.154C379.596 40.694 379.527 40.28 379.527 39.912C379.527 39.498 379.573 38.946 379.665 38.256C379.803 37.52 379.964 36.738 380.148 35.91C380.332 35.082 380.562 34.231 380.838 33.357C381.114 32.437 381.39 31.609 381.666 30.873C382.218 30.873 382.885 31.034 383.667 31.356C384.495 31.632 385.323 32.023 386.151 32.529C386.979 32.989 387.738 33.518 388.428 34.116C389.118 34.668 389.647 35.197 390.015 35.703C389.509 36.209 388.842 36.922 388.014 37.842C387.186 38.716 386.381 39.659 385.599 40.671C384.817 41.637 384.104 42.557 383.46 43.431C382.816 44.305 382.402 44.926 382.218 45.294C381.666 45.202 381.183 44.972 380.769 44.604C380.355 44.19 380.148 43.799 380.148 43.431ZM369.269 98.562C369.269 98.286 369.361 98.033 369.545 97.803C369.729 97.573 369.936 97.343 370.166 97.113C370.718 97.619 371.201 98.01 371.615 98.286C371.983 98.562 372.351 98.792 372.719 98.976C373.041 99.16 373.386 99.275 373.754 99.321C374.122 99.367 374.559 99.39 375.065 99.39C377.457 99.39 379.734 98.746 381.896 97.458C384.058 96.216 386.082 94.399 387.968 92.007C389.9 89.615 391.648 86.694 393.212 83.244C394.776 79.794 396.156 75.884 397.352 71.514C396.8 72.066 396.11 72.687 395.282 73.377C394.5 74.021 393.672 74.642 392.798 75.24C391.924 75.838 391.05 76.39 390.176 76.896C389.348 77.402 388.635 77.77 388.037 78C387.255 77.862 386.519 77.54 385.829 77.034C385.185 76.482 384.61 75.815 384.104 75.033C383.598 74.251 383.207 73.377 382.931 72.411C382.655 71.399 382.517 70.341 382.517 69.237C382.517 67.443 382.839 65.603 383.483 63.717C384.173 61.831 385.07 59.991 386.174 58.197C387.278 56.357 388.566 54.632 390.038 53.022C391.556 51.412 393.143 50.009 394.799 48.813C396.501 47.617 398.203 46.674 399.905 45.984C401.653 45.248 403.355 44.88 405.011 44.88C406.621 44.88 407.817 45.225 408.599 45.915C409.427 46.559 410.025 47.686 410.393 49.296C409.887 49.02 409.243 48.882 408.461 48.882C407.357 48.882 406.069 49.319 404.597 50.193C403.171 51.067 401.699 52.217 400.181 53.643C398.709 55.023 397.237 56.633 395.765 58.473C394.293 60.267 392.982 62.107 391.832 63.993C390.728 65.879 389.808 67.719 389.072 69.513C388.382 71.307 388.037 72.917 388.037 74.343C388.037 74.665 388.06 74.872 388.106 74.964C388.152 75.01 388.221 75.033 388.313 75.033C388.727 75.033 389.279 74.803 389.969 74.343C390.705 73.883 391.51 73.308 392.384 72.618C393.304 71.882 394.247 71.054 395.213 70.134C396.179 69.168 397.099 68.202 397.973 67.236C399.951 65.028 401.745 62.567 403.355 59.853C405.011 57.093 406.322 54.425 407.288 51.849C408.53 51.941 409.634 52.148 410.6 52.47C411.566 52.792 412.233 53.137 412.601 53.505C411.037 57.093 409.772 60.106 408.806 62.544C407.886 64.982 407.081 67.144 406.391 69.03C405.149 72.342 403.976 75.355 402.872 78.069C401.814 80.829 400.71 83.359 399.56 85.659C398.456 88.005 397.237 90.167 395.903 92.145C394.615 94.169 393.143 96.101 391.487 97.941C390.705 98.815 389.808 99.574 388.796 100.218C387.83 100.908 386.818 101.483 385.76 101.943C384.748 102.403 383.736 102.748 382.724 102.978C381.758 103.208 380.861 103.323 380.033 103.323C378.929 103.323 377.802 103.185 376.652 102.909C375.502 102.679 374.444 102.334 373.478 101.874C372.466 101.46 371.592 100.954 370.856 100.356C370.12 99.804 369.591 99.206 369.269 98.562ZM425.448 44.535C426.644 44.903 427.771 45.731 428.829 47.019C429.887 48.261 430.669 49.641 431.175 51.159C430.669 52.401 429.887 53.896 428.829 55.644C427.771 57.392 426.713 59.186 425.655 61.026C424.597 62.82 423.631 64.545 422.757 66.201C421.929 67.811 421.446 69.145 421.308 70.203C422.044 69.421 422.849 68.524 423.723 67.512C424.643 66.454 425.517 65.419 426.345 64.407C427.219 63.349 428.024 62.406 428.76 61.578C429.496 60.704 430.071 60.06 430.485 59.646C431.359 58.726 432.394 57.668 433.59 56.472C434.786 55.23 436.028 54.08 437.316 53.022C438.65 51.918 439.984 50.998 441.318 50.262C442.652 49.48 443.871 49.089 444.975 49.089C446.171 49.089 447.16 49.503 447.942 50.331C448.77 51.113 449.414 51.941 449.874 52.815C449.874 52.907 449.69 53.045 449.322 53.229C449 53.367 448.517 53.804 447.873 54.54C447.229 55.368 446.493 56.518 445.665 57.99C444.883 59.416 444.101 60.98 443.319 62.682C442.583 64.338 441.962 66.04 441.456 67.788C440.95 69.536 440.697 71.123 440.697 72.549C440.697 73.699 440.835 74.435 441.111 74.757C441.433 75.079 441.87 75.24 442.422 75.24C442.928 75.24 443.457 75.125 444.009 74.895C444.561 74.665 444.998 74.55 445.32 74.55C445.504 74.642 445.642 74.849 445.734 75.171C445.872 75.447 445.941 75.7 445.941 75.93C445.573 76.252 445.136 76.574 444.63 76.896C444.124 77.218 443.595 77.517 443.043 77.793C442.491 78.069 441.939 78.299 441.387 78.483C440.881 78.667 440.421 78.759 440.007 78.759C438.673 78.759 437.569 78.552 436.695 78.138C435.867 77.77 435.2 77.264 434.694 76.62C434.234 75.976 433.912 75.217 433.728 74.343C433.544 73.423 433.452 72.457 433.452 71.445C433.452 70.893 433.498 70.272 433.59 69.582C433.682 68.892 433.866 68.087 434.142 67.167C434.418 66.201 434.809 65.074 435.315 63.786C435.821 62.452 436.465 60.865 437.247 59.025C437.155 59.025 436.534 59.347 435.384 59.991C434.234 60.635 432.992 61.624 431.658 62.958C429.496 65.028 427.541 67.075 425.793 69.099C424.091 71.123 422.343 73.377 420.549 75.861C419.537 77.287 418.64 78.483 417.858 79.449C417.122 80.461 416.478 81.128 415.926 81.45C414.96 80.898 414.247 80.116 413.787 79.104C413.327 78.138 412.982 77.126 412.752 76.068C412.752 75.194 412.867 74.09 413.097 72.756C413.373 71.422 413.718 69.95 414.132 68.34C414.592 66.684 415.144 64.959 415.788 63.165C416.432 61.371 417.145 59.577 417.927 57.783C419.675 53.735 421.262 50.561 422.688 48.261C424.16 45.961 425.08 44.719 425.448 44.535ZM451.602 73.377C451.602 72.963 451.625 72.457 451.671 71.859C451.763 71.215 451.901 70.387 452.085 69.375C452.269 68.317 452.499 67.052 452.775 65.58C453.097 64.108 453.488 62.337 453.948 60.267C454.04 59.807 454.247 59.071 454.569 58.059C454.891 57.047 455.305 55.989 455.811 54.885C456.363 53.735 457.007 52.631 457.743 51.573C458.525 50.515 459.445 49.733 460.503 49.227C461.285 49.411 462.32 49.894 463.608 50.676C464.896 51.412 466 52.447 466.92 53.781C465.862 54.977 464.965 56.173 464.229 57.369C463.539 58.565 462.895 59.807 462.297 61.095C461.745 62.383 461.216 63.717 460.71 65.097C460.25 66.477 459.721 67.926 459.123 69.444C458.617 70.732 458.157 72.066 457.743 73.446C457.329 74.78 457.099 75.953 457.053 76.965C457.053 77.793 457.03 78.368 456.984 78.69C456.984 79.058 456.869 79.242 456.639 79.242C456.455 79.242 456.087 79.127 455.535 78.897C454.983 78.667 454.408 78.322 453.81 77.862C453.258 77.356 452.752 76.735 452.292 75.999C451.832 75.263 451.602 74.389 451.602 73.377ZM464.781 43.431C464.781 43.155 464.85 42.741 464.988 42.189C464.758 41.959 464.551 41.614 464.367 41.154C464.229 40.694 464.16 40.28 464.16 39.912C464.16 39.498 464.206 38.946 464.298 38.256C464.436 37.52 464.597 36.738 464.781 35.91C464.965 35.082 465.195 34.231 465.471 33.357C465.747 32.437 466.023 31.609 466.299 30.873C466.851 30.873 467.518 31.034 468.3 31.356C469.128 31.632 469.956 32.023 470.784 32.529C471.612 32.989 472.371 33.518 473.061 34.116C473.751 34.668 474.28 35.197 474.648 35.703C474.142 36.209 473.475 36.922 472.647 37.842C471.819 38.716 471.014 39.659 470.232 40.671C469.45 41.637 468.737 42.557 468.093 43.431C467.449 44.305 467.035 44.926 466.851 45.294C466.299 45.202 465.816 44.972 465.402 44.604C464.988 44.19 464.781 43.799 464.781 43.431ZM497.176 47.709C497.406 47.709 497.889 47.732 498.625 47.778C499.407 47.778 500.281 47.801 501.247 47.847C502.213 47.847 503.179 47.893 504.145 47.985C505.157 48.077 506.008 48.192 506.698 48.33C507.158 48.836 507.503 49.319 507.733 49.779C506.675 51.159 505.663 52.723 504.697 54.471C503.731 56.219 502.834 58.036 502.006 59.922C501.178 61.762 500.419 63.602 499.729 65.442C499.085 67.236 498.51 68.915 498.004 70.479C497.544 71.997 497.153 73.331 496.831 74.481C496.555 75.631 496.394 76.459 496.348 76.965C496.256 77.793 496.21 78.368 496.21 78.69C496.256 79.058 496.164 79.242 495.934 79.242C495.75 79.242 495.382 79.127 494.83 78.897C494.278 78.667 493.703 78.322 493.105 77.862C492.553 77.356 492.047 76.735 491.587 75.999C491.127 75.263 490.897 74.389 490.897 73.377C490.897 72.089 491.081 70.479 491.449 68.547C491.817 66.569 492.3 64.545 492.898 62.475C493.496 60.405 494.186 58.427 494.968 56.541C495.75 54.609 496.555 53.045 497.383 51.849C495.911 51.757 494.439 51.688 492.967 51.642C491.495 51.55 490.023 51.504 488.551 51.504C488.045 51.504 487.539 51.504 487.033 51.504C486.527 51.504 486.021 51.527 485.515 51.573C483.215 58.795 481.145 65.097 479.305 70.479C477.511 75.861 475.832 80.461 474.268 84.279C472.75 88.143 471.278 91.294 469.852 93.732C468.472 96.216 467.069 98.148 465.643 99.528C464.263 100.954 462.791 101.943 461.227 102.495C459.663 103.047 457.938 103.323 456.052 103.323C452.786 103.323 450.003 102.219 447.703 100.011C447.703 99.689 447.795 99.344 447.979 98.976C448.163 98.608 448.37 98.355 448.6 98.217C449.244 98.999 450.095 99.597 451.153 100.011C452.211 100.471 453.315 100.701 454.465 100.701C455.661 100.701 456.765 100.425 457.777 99.873C458.743 99.367 459.709 98.493 460.675 97.251C461.595 96.009 462.515 94.376 463.435 92.352C464.401 90.328 465.436 87.821 466.54 84.831C468.15 80.415 469.806 75.401 471.508 69.789C473.256 64.177 475.027 58.243 476.821 51.987C475.073 52.079 473.624 52.194 472.474 52.332C471.324 52.47 470.565 52.562 470.197 52.608C470.013 52.424 469.852 52.171 469.714 51.849C469.622 51.527 469.576 51.228 469.576 50.952C470.312 50.722 471.347 50.469 472.681 50.193C474.061 49.871 475.717 49.549 477.649 49.227C478.753 45.915 479.972 42.925 481.306 40.257C482.64 37.543 484.066 35.243 485.584 33.357C487.148 31.471 488.804 30.022 490.552 29.01C492.346 27.998 494.278 27.492 496.348 27.492C497.084 27.492 497.889 27.653 498.763 27.975C499.683 28.251 500.557 28.573 501.385 28.941C502.259 29.263 503.041 29.585 503.731 29.907C504.421 30.183 504.95 30.321 505.318 30.321C505.87 29.999 506.629 29.723 507.595 29.493C508.607 29.217 509.458 29.079 510.148 29.079C510.7 29.079 511.413 29.378 512.287 29.976C511.873 30.62 511.459 31.494 511.045 32.598C510.631 33.702 510.309 34.783 510.079 35.841C508.929 39.245 507.71 41.453 506.422 42.465C506.192 42.465 505.985 42.327 505.801 42.051C505.663 41.729 505.594 41.2 505.594 40.464C505.594 39.958 505.479 39.498 505.249 39.084C505.019 38.67 504.743 38.256 504.421 37.842C504.145 37.428 503.892 37.014 503.662 36.6C503.432 36.186 503.317 35.749 503.317 35.289C503.317 35.013 503.34 34.691 503.386 34.323C503.432 33.909 503.524 33.242 503.662 32.322C503.11 32.276 502.558 32.253 502.006 32.253C501.5 32.207 500.994 32.184 500.488 32.184C498.694 32.184 497.084 32.621 495.658 33.495C494.278 34.369 493.036 35.565 491.932 37.083C490.828 38.555 489.839 40.257 488.965 42.189C488.091 44.075 487.309 46.053 486.619 48.123C488.229 48.031 489.885 47.939 491.587 47.847C493.335 47.755 495.198 47.709 497.176 47.709ZM531.333 50.124C531.793 50.124 532.322 50.216 532.92 50.4C533.564 50.538 534.139 50.745 534.645 51.021C535.151 51.251 535.565 51.504 535.887 51.78C536.255 52.056 536.439 52.309 536.439 52.539C535.519 54.471 534.668 56.426 533.886 58.404C533.104 60.336 532.437 62.199 531.885 63.993C531.333 65.787 530.896 67.466 530.574 69.03C530.298 70.594 530.16 71.951 530.16 73.101C530.16 74.389 530.298 75.47 530.574 76.344C530.85 77.172 531.31 77.77 531.954 78.138C531.402 78.506 530.689 78.805 529.815 79.035C528.941 79.265 528.159 79.38 527.469 79.38C524.985 79.38 523.743 77.678 523.743 74.274C523.743 71.652 524.617 68.064 526.365 63.51C525.445 65.626 524.387 67.627 523.191 69.513C521.995 71.353 520.776 72.986 519.534 74.412C518.292 75.838 517.027 77.011 515.739 77.931C514.497 78.805 513.347 79.334 512.289 79.518C510.587 79.426 509.207 78.621 508.149 77.103C507.091 75.539 506.562 73.561 506.562 71.169C506.562 68.593 507.114 65.879 508.218 63.027C509.322 60.175 510.725 57.53 512.427 55.092C514.175 52.654 516.061 50.63 518.085 49.02C520.109 47.364 522.064 46.49 523.95 46.398C524.41 46.536 524.916 46.812 525.468 47.226C526.066 47.64 526.618 48.123 527.124 48.675C527.676 49.227 528.136 49.802 528.504 50.4C528.872 50.952 529.079 51.435 529.125 51.849C527.285 52.125 525.376 53.022 523.398 54.54C521.466 56.058 519.695 57.898 518.085 60.06C516.521 62.176 515.233 64.453 514.221 66.891C513.209 69.329 512.703 71.606 512.703 73.722C512.703 74.596 513.025 75.148 513.669 75.378C515.003 75.102 516.544 73.975 518.292 71.997C520.04 69.973 522.156 66.868 524.64 62.682C525.1 61.854 525.606 60.934 526.158 59.922C526.756 58.91 527.354 57.852 527.952 56.748C528.55 55.644 529.125 54.54 529.677 53.436C530.275 52.286 530.827 51.182 531.333 50.124ZM551.117 44.535C552.313 44.903 553.44 45.731 554.498 47.019C555.556 48.261 556.338 49.641 556.844 51.159C556.338 52.401 555.556 53.896 554.498 55.644C553.44 57.392 552.382 59.186 551.324 61.026C550.266 62.82 549.3 64.545 548.426 66.201C547.598 67.811 547.115 69.145 546.977 70.203C547.713 69.421 548.518 68.524 549.392 67.512C550.312 66.454 551.186 65.419 552.014 64.407C552.888 63.349 553.693 62.406 554.429 61.578C555.165 60.704 555.74 60.06 556.154 59.646C557.028 58.726 558.063 57.668 559.259 56.472C560.455 55.23 561.697 54.08 562.985 53.022C564.319 51.918 565.653 50.998 566.987 50.262C568.321 49.48 569.54 49.089 570.644 49.089C571.84 49.089 572.829 49.503 573.611 50.331C574.439 51.113 575.083 51.941 575.543 52.815C575.543 52.907 575.359 53.045 574.991 53.229C574.669 53.367 574.186 53.804 573.542 54.54C572.898 55.368 572.162 56.518 571.334 57.99C570.552 59.416 569.77 60.98 568.988 62.682C568.252 64.338 567.631 66.04 567.125 67.788C566.619 69.536 566.366 71.123 566.366 72.549C566.366 73.699 566.504 74.435 566.78 74.757C567.102 75.079 567.539 75.24 568.091 75.24C568.597 75.24 569.126 75.125 569.678 74.895C570.23 74.665 570.667 74.55 570.989 74.55C571.173 74.642 571.311 74.849 571.403 75.171C571.541 75.447 571.61 75.7 571.61 75.93C571.242 76.252 570.805 76.574 570.299 76.896C569.793 77.218 569.264 77.517 568.712 77.793C568.16 78.069 567.608 78.299 567.056 78.483C566.55 78.667 566.09 78.759 565.676 78.759C564.342 78.759 563.238 78.552 562.364 78.138C561.536 77.77 560.869 77.264 560.363 76.62C559.903 75.976 559.581 75.217 559.397 74.343C559.213 73.423 559.121 72.457 559.121 71.445C559.121 70.893 559.167 70.272 559.259 69.582C559.351 68.892 559.535 68.087 559.811 67.167C560.087 66.201 560.478 65.074 560.984 63.786C561.49 62.452 562.134 60.865 562.916 59.025C562.824 59.025 562.203 59.347 561.053 59.991C559.903 60.635 558.661 61.624 557.327 62.958C555.165 65.028 553.21 67.075 551.462 69.099C549.76 71.123 548.012 73.377 546.218 75.861C545.206 77.287 544.309 78.483 543.527 79.449C542.791 80.461 542.147 81.128 541.595 81.45C540.629 80.898 539.916 80.116 539.456 79.104C538.996 78.138 538.651 77.126 538.421 76.068C538.421 75.194 538.536 74.09 538.766 72.756C539.042 71.422 539.387 69.95 539.801 68.34C540.261 66.684 540.813 64.959 541.457 63.165C542.101 61.371 542.814 59.577 543.596 57.783C545.344 53.735 546.931 50.561 548.357 48.261C549.829 45.961 550.749 44.719 551.117 44.535ZM581.273 51.573C581.043 51.297 580.836 50.722 580.652 49.848C580.468 48.928 580.376 48.146 580.376 47.502C581.572 47.594 582.722 47.686 583.826 47.778C584.93 47.824 585.942 47.87 586.862 47.916C587.552 46.536 588.288 45.179 589.07 43.845C589.898 42.465 590.68 41.223 591.416 40.119C592.198 38.969 592.911 38.003 593.555 37.221C594.245 36.439 594.774 35.933 595.142 35.703C595.602 35.703 596.177 35.795 596.867 35.979C597.603 36.117 598.339 36.324 599.075 36.6C599.811 36.83 600.478 37.083 601.076 37.359C601.674 37.635 602.088 37.911 602.318 38.187C600.938 39.935 599.742 41.568 598.73 43.086C597.764 44.558 596.706 46.26 595.556 48.192C596.476 48.192 597.396 48.169 598.316 48.123C599.282 48.077 600.248 48.008 601.214 47.916C601.444 48.146 601.628 48.445 601.766 48.813C601.904 49.135 601.973 49.48 601.973 49.848C599.719 50.676 596.982 51.136 593.762 51.228C592.612 53.436 591.577 55.644 590.657 57.852C589.783 60.014 589.024 62.107 588.38 64.131C587.782 66.155 587.299 68.064 586.931 69.858C586.609 71.652 586.448 73.262 586.448 74.688C586.448 76.712 587.207 77.839 588.725 78.069C590.105 77.885 591.416 77.54 592.658 77.034C593.9 76.528 595.004 75.884 595.97 75.102C596.246 75.516 596.407 75.861 596.453 76.137C596.177 76.551 595.694 77.034 595.004 77.586C594.36 78.138 593.647 78.667 592.865 79.173C592.083 79.725 591.324 80.185 590.588 80.553C589.852 80.921 589.3 81.128 588.932 81.174C587.782 81.128 586.632 80.875 585.482 80.415C584.332 79.955 583.274 79.38 582.308 78.69C581.388 78 580.629 77.241 580.031 76.413C579.433 75.539 579.134 74.688 579.134 73.86C579.134 72.756 579.272 71.376 579.548 69.72C579.87 68.018 580.307 66.178 580.859 64.2C581.411 62.222 582.055 60.152 582.791 57.99C583.527 55.828 584.332 53.689 585.206 51.573H581.273ZM626.162 49.434C625.978 52.286 625.472 54.747 624.644 56.817C623.816 58.841 622.62 60.635 621.056 62.199C619.538 63.717 617.675 65.097 615.467 66.339C613.259 67.581 610.683 68.777 607.739 69.927C607.739 70.203 607.716 70.502 607.67 70.824C607.67 71.1 607.67 71.399 607.67 71.721C607.67 72.319 607.716 72.94 607.808 73.584C607.9 74.228 608.061 74.826 608.291 75.378C608.521 75.93 608.843 76.39 609.257 76.758C609.671 77.08 610.2 77.241 610.844 77.241C612.086 77.241 613.305 76.965 614.501 76.413C615.697 75.861 616.824 75.194 617.882 74.412C618.986 73.584 619.998 72.71 620.918 71.79C621.884 70.824 622.735 69.95 623.471 69.168C623.931 69.582 624.322 69.973 624.644 70.341C622.574 73.101 620.297 75.401 617.813 77.241C615.375 79.035 613.052 80.185 610.844 80.691C607.67 80.323 605.186 79.173 603.392 77.241C601.644 75.263 600.77 72.894 600.77 70.134C600.77 68.248 601.023 66.339 601.529 64.407C602.081 62.429 602.817 60.543 603.737 58.749C604.703 56.909 605.807 55.184 607.049 53.574C608.337 51.964 609.694 50.561 611.12 49.365C612.592 48.169 614.087 47.226 615.605 46.536C617.169 45.846 618.71 45.501 620.228 45.501C622.344 45.777 624.322 47.088 626.162 49.434ZM621.401 51.711C620.159 51.895 618.871 52.401 617.537 53.229C616.203 54.057 614.938 55.161 613.742 56.541C612.592 57.921 611.534 59.531 610.568 61.371C609.602 63.211 608.843 65.189 608.291 67.305C611.971 65.465 615.03 63.211 617.468 60.543C619.906 57.829 621.217 54.885 621.401 51.711Z" fill="#1282A2"/>
<path d="M53.958 37.809C53.958 40.339 53.314 42.754 52.026 45.054C50.784 47.354 49.082 49.378 46.92 51.126C44.804 52.828 42.297 54.185 39.399 55.197C36.547 56.209 33.511 56.715 30.291 56.715C29.141 56.715 28.221 56.577 27.531 56.301C26.887 55.979 26.151 55.381 25.323 54.507C23.023 59.521 21.137 64.144 19.665 68.376C18.239 72.562 17.112 76.633 16.284 80.589C14.536 80.175 13.11 79.439 12.006 78.381C10.902 77.369 9.89 76.081 8.97 74.517C9.43 73.643 9.982 72.493 10.626 71.067C11.27 69.641 12.052 67.893 12.972 65.823C13.892 63.707 14.95 61.2 16.146 58.302C17.388 55.358 18.837 51.931 20.493 48.021C21.229 46.227 21.873 44.663 22.425 43.329C22.977 41.995 23.46 40.753 23.874 39.603C24.288 38.407 24.656 37.234 24.978 36.084C25.346 34.934 25.714 33.669 26.082 32.289C23.92 32.979 21.919 33.784 20.079 34.704C18.285 35.624 16.79 36.59 15.594 37.602C15.18 37.326 14.743 36.912 14.283 36.36C13.869 35.808 13.478 35.21 13.11 34.566C12.742 33.876 12.42 33.186 12.144 32.496C11.868 31.806 11.707 31.185 11.661 30.633C12.995 29.713 14.651 28.862 16.629 28.08C18.607 27.298 20.723 26.631 22.977 26.079C25.231 25.481 27.554 25.021 29.946 24.699C32.384 24.377 34.707 24.216 36.915 24.216C39.537 24.216 41.906 24.561 44.022 25.251C46.138 25.895 47.932 26.815 49.404 28.011C50.876 29.207 52.003 30.633 52.785 32.289C53.567 33.945 53.958 35.785 53.958 37.809ZM41.676 29.529C39.928 29.529 38.134 29.667 36.294 29.943L37.122 31.185C36.662 31.783 36.087 32.68 35.397 33.876C34.707 35.072 33.948 36.521 33.12 38.223C32.292 39.879 31.372 41.742 30.36 43.812C29.394 45.882 28.359 48.067 27.255 50.367C30.843 50.367 34.109 50.045 37.053 49.401C39.997 48.711 42.504 47.791 44.574 46.641C46.69 45.445 48.323 44.065 49.473 42.501C50.669 40.937 51.267 39.258 51.267 37.464C51.267 35.072 50.462 33.163 48.852 31.737C47.242 30.265 44.85 29.529 41.676 29.529ZM57.96 77.415C55.338 77.139 53.245 75.989 51.681 73.965C50.117 71.941 49.335 69.365 49.335 66.237C49.335 64.397 49.611 62.488 50.163 60.51C50.715 58.532 51.497 56.623 52.509 54.783C53.521 52.897 54.717 51.126 56.097 49.47C57.477 47.814 58.972 46.388 60.582 45.192C63.112 43.306 65.481 42.363 67.689 42.363C69.161 43.145 70.61 44.778 72.036 47.262C72.266 47.262 72.473 47.262 72.657 47.262C72.841 47.216 73.048 47.193 73.278 47.193C75.716 47.193 76.935 49.355 76.935 53.679C76.935 56.577 76.452 59.337 75.486 61.959C74.566 64.535 73.255 66.881 71.553 68.997C69.897 71.113 67.896 72.907 65.55 74.379C63.25 75.805 60.72 76.817 57.96 77.415ZM61.479 55.68C60.697 56.738 59.961 57.888 59.271 59.13C58.581 60.372 57.983 61.637 57.477 62.925C56.971 64.167 56.58 65.386 56.304 66.582C56.028 67.732 55.89 68.767 55.89 69.687C55.89 70.791 56.074 71.849 56.442 72.861C56.81 73.873 57.224 74.448 57.684 74.586C59.754 74.126 61.64 73.275 63.342 72.033C65.09 70.745 66.585 69.158 67.827 67.272C69.115 65.386 70.104 63.247 70.794 60.855C71.53 58.463 71.898 55.91 71.898 53.196C71.898 52 71.829 51.057 71.691 50.367C71.553 49.677 71.323 49.079 71.001 48.573C68.977 49.171 67.16 50.137 65.55 51.471C63.986 52.805 62.629 54.208 61.479 55.68ZM99.043 73.482C98.169 72.746 97.571 71.826 97.249 70.722C96.973 69.618 96.835 68.675 96.835 67.893C96.835 66.927 96.95 66.099 97.18 65.409C96.996 65.409 96.582 65.777 95.938 66.513C95.294 67.249 94.581 68.123 93.799 69.135C93.063 70.147 92.327 71.136 91.591 72.102C90.855 73.068 90.303 73.781 89.935 74.241C89.337 74.885 88.762 75.391 88.21 75.759C87.704 76.127 87.29 76.334 86.968 76.38C86.232 76.334 85.45 76.173 84.622 75.897C83.84 75.667 83.081 75.322 82.345 74.862C81.655 74.402 81.034 73.85 80.482 73.206C79.976 72.562 79.631 71.826 79.447 70.998C79.447 69.71 79.47 68.652 79.516 67.824C79.608 66.996 79.769 66.099 79.999 65.133C80.413 63.385 81.011 61.407 81.793 59.199C82.621 56.991 83.564 54.829 84.622 52.713C85.68 50.551 86.853 48.55 88.141 46.71C89.475 44.824 90.878 43.352 92.35 42.294C92.764 42.294 93.247 42.34 93.799 42.432C94.351 42.478 94.903 42.593 95.455 42.777C96.053 42.961 96.605 43.191 97.111 43.467C97.663 43.697 98.123 44.019 98.491 44.433C98.077 44.893 97.019 46.434 95.317 49.056C93.661 51.678 91.798 55.45 89.728 60.372C89.498 60.878 89.222 61.614 88.9 62.58C88.578 63.546 88.256 64.558 87.934 65.616C87.612 66.674 87.336 67.709 87.106 68.721C86.922 69.733 86.83 70.538 86.83 71.136C86.83 71.504 86.876 71.78 86.968 71.964C87.106 72.148 87.221 72.286 87.313 72.378C88.003 72.102 88.877 71.343 89.935 70.101C90.993 68.859 92.465 66.95 94.351 64.374C94.811 63.73 95.34 62.994 95.938 62.166C96.582 61.338 97.226 60.464 97.87 59.544C98.514 58.578 99.112 57.589 99.664 56.577C100.262 55.565 100.745 54.553 101.113 53.541C101.297 52.989 101.527 52.345 101.803 51.609C102.125 50.827 102.493 50.022 102.907 49.194C103.367 48.366 103.873 47.538 104.425 46.71C105.023 45.836 105.713 45.031 106.495 44.295C107.093 44.295 107.737 44.364 108.427 44.502C109.117 44.64 109.761 44.824 110.359 45.054C111.003 45.238 111.555 45.468 112.015 45.744C112.475 45.974 112.82 46.227 113.05 46.503C112.222 48.527 111.302 50.528 110.29 52.506C109.278 54.484 108.335 56.439 107.461 58.371C106.587 60.257 105.851 62.143 105.253 64.029C104.655 65.915 104.356 67.755 104.356 69.549C104.356 70.515 104.425 71.366 104.563 72.102C104.747 72.792 104.931 73.39 105.115 73.896C105.299 74.356 105.46 74.747 105.598 75.069C105.782 75.391 105.874 75.667 105.874 75.897C105.874 75.943 105.828 76.012 105.736 76.104C105.69 76.15 105.644 76.173 105.598 76.173C105.276 76.173 104.862 76.104 104.356 75.966C103.85 75.828 103.275 75.621 102.631 75.345C102.033 75.115 101.412 74.839 100.768 74.517C100.17 74.195 99.595 73.85 99.043 73.482ZM112.715 73.62C112.945 72.286 113.336 70.538 113.888 68.376C114.486 66.168 115.176 63.845 115.958 61.407C116.74 58.923 117.568 56.439 118.442 53.955C119.316 51.471 120.167 49.24 120.995 47.262C121.593 45.836 122.122 44.732 122.582 43.95C123.042 43.122 123.548 42.432 124.1 41.88C124.744 41.972 125.411 42.133 126.101 42.363C126.791 42.593 127.458 42.869 128.102 43.191C128.746 43.513 129.321 43.858 129.827 44.226C130.333 44.548 130.724 44.87 131 45.192C129.758 46.664 128.654 48.343 127.688 50.229C126.768 52.115 125.825 54.53 124.859 57.474C127.343 55.266 129.528 53.15 131.414 51.126C133.346 49.102 135.14 46.848 136.796 44.364C137.072 44.134 137.555 44.019 138.245 44.019C138.889 44.019 139.51 44.134 140.108 44.364C140.706 44.548 141.12 44.824 141.35 45.192C140.522 47.4 140.108 49.585 140.108 51.747C140.108 53.771 140.407 55.289 141.005 56.301C140.959 56.577 140.637 57.106 140.039 57.888C139.487 58.67 138.866 59.406 138.176 60.096C136.934 59.452 135.83 58.578 134.864 57.474C133.898 56.324 133.185 55.082 132.725 53.748C130.563 55.266 128.723 56.761 127.205 58.233C125.687 59.659 124.376 61.269 123.272 63.063C122.214 64.811 121.294 66.835 120.512 69.135C119.776 71.435 119.063 74.172 118.373 77.346C117.959 77.3 117.453 77.139 116.855 76.863C116.303 76.633 115.728 76.334 115.13 75.966C114.578 75.598 114.072 75.207 113.612 74.793C113.152 74.379 112.853 73.988 112.715 73.62ZM164.927 47.538C164.881 48.412 164.72 49.332 164.444 50.298C164.214 51.218 163.915 52.069 163.547 52.851C163.179 53.587 162.788 54.208 162.374 54.714C161.96 55.22 161.569 55.473 161.201 55.473C160.695 55.427 160.396 55.082 160.304 54.438C160.304 54.3 160.35 54.093 160.442 53.817C160.58 53.495 160.718 53.15 160.856 52.782C160.994 52.414 161.109 52.046 161.201 51.678C161.339 51.31 161.408 50.988 161.408 50.712C161.408 50.068 161.247 49.539 160.925 49.125C160.649 48.665 160.258 48.435 159.752 48.435C157.912 48.435 156.509 49.585 155.543 51.885C154.577 54.185 154.094 57.566 154.094 62.028C154.094 62.488 154.117 62.764 154.163 62.856C155.129 62.81 155.98 62.787 156.716 62.787C157.498 62.741 158.257 62.718 158.993 62.718C159.039 62.81 159.062 62.994 159.062 63.27C159.062 63.684 158.97 63.983 158.786 64.167C157.728 64.397 156.877 64.604 156.233 64.788C155.635 64.926 155.175 65.064 154.853 65.202C154.531 65.34 154.324 65.501 154.232 65.685C154.186 65.823 154.163 66.03 154.163 66.306C154.163 66.674 154.163 67.042 154.163 67.41C154.209 67.778 154.232 68.238 154.232 68.79C154.232 72.654 153.174 75.759 151.058 78.105C148.988 80.451 146.09 81.808 142.364 82.176C141.72 82.13 141.053 81.946 140.363 81.624C139.673 81.302 139.006 80.888 138.362 80.382C137.764 79.876 137.235 79.301 136.775 78.657C136.315 78.059 135.993 77.438 135.809 76.794C135.809 75.046 136.177 73.39 136.913 71.826C137.649 70.216 138.638 68.813 139.88 67.617C141.168 66.375 142.663 65.386 144.365 64.65C146.113 63.868 147.999 63.408 150.023 63.27C150.023 62.12 149.908 60.993 149.678 59.889C149.448 58.785 149.195 57.727 148.919 56.715C148.689 55.657 148.459 54.645 148.229 53.679C147.999 52.667 147.884 51.678 147.884 50.712C147.884 49.47 148.137 48.251 148.643 47.055C149.149 45.813 149.816 44.686 150.644 43.674C151.472 42.616 152.438 41.719 153.542 40.983C154.646 40.247 155.796 39.741 156.992 39.465C157.498 39.603 158.165 40.017 158.993 40.707C159.867 41.351 160.718 42.087 161.546 42.915C162.374 43.743 163.11 44.594 163.754 45.468C164.398 46.296 164.789 46.986 164.927 47.538ZM142.157 79.002C143.261 78.542 144.296 77.875 145.262 77.001C146.274 76.127 147.148 75.138 147.884 74.034C148.62 72.93 149.195 71.757 149.609 70.515C150.069 69.273 150.299 68.054 150.299 66.858C149.379 66.996 148.367 67.433 147.263 68.169C146.159 68.859 145.124 69.71 144.158 70.722C143.192 71.688 142.387 72.7 141.743 73.758C141.099 74.816 140.777 75.736 140.777 76.518C140.777 77.53 141.237 78.358 142.157 79.002ZM183.743 73.482C182.869 72.746 182.271 71.826 181.949 70.722C181.673 69.618 181.535 68.675 181.535 67.893C181.535 66.927 181.65 66.099 181.88 65.409C181.696 65.409 181.282 65.777 180.638 66.513C179.994 67.249 179.281 68.123 178.499 69.135C177.763 70.147 177.027 71.136 176.291 72.102C175.555 73.068 175.003 73.781 174.635 74.241C174.037 74.885 173.462 75.391 172.91 75.759C172.404 76.127 171.99 76.334 171.668 76.38C170.932 76.334 170.15 76.173 169.322 75.897C168.54 75.667 167.781 75.322 167.045 74.862C166.355 74.402 165.734 73.85 165.182 73.206C164.676 72.562 164.331 71.826 164.147 70.998C164.147 69.71 164.17 68.652 164.216 67.824C164.308 66.996 164.469 66.099 164.699 65.133C165.113 63.385 165.711 61.407 166.493 59.199C167.321 56.991 168.264 54.829 169.322 52.713C170.38 50.551 171.553 48.55 172.841 46.71C174.175 44.824 175.578 43.352 177.05 42.294C177.464 42.294 177.947 42.34 178.499 42.432C179.051 42.478 179.603 42.593 180.155 42.777C180.753 42.961 181.305 43.191 181.811 43.467C182.363 43.697 182.823 44.019 183.191 44.433C182.777 44.893 181.719 46.434 180.017 49.056C178.361 51.678 176.498 55.45 174.428 60.372C174.198 60.878 173.922 61.614 173.6 62.58C173.278 63.546 172.956 64.558 172.634 65.616C172.312 66.674 172.036 67.709 171.806 68.721C171.622 69.733 171.53 70.538 171.53 71.136C171.53 71.504 171.576 71.78 171.668 71.964C171.806 72.148 171.921 72.286 172.013 72.378C172.703 72.102 173.577 71.343 174.635 70.101C175.693 68.859 177.165 66.95 179.051 64.374C179.511 63.73 180.04 62.994 180.638 62.166C181.282 61.338 181.926 60.464 182.57 59.544C183.214 58.578 183.812 57.589 184.364 56.577C184.962 55.565 185.445 54.553 185.813 53.541C185.997 52.989 186.227 52.345 186.503 51.609C186.825 50.827 187.193 50.022 187.607 49.194C188.067 48.366 188.573 47.538 189.125 46.71C189.723 45.836 190.413 45.031 191.195 44.295C191.793 44.295 192.437 44.364 193.127 44.502C193.817 44.64 194.461 44.824 195.059 45.054C195.703 45.238 196.255 45.468 196.715 45.744C197.175 45.974 197.52 46.227 197.75 46.503C196.922 48.527 196.002 50.528 194.99 52.506C193.978 54.484 193.035 56.439 192.161 58.371C191.287 60.257 190.551 62.143 189.953 64.029C189.355 65.915 189.056 67.755 189.056 69.549C189.056 70.515 189.125 71.366 189.263 72.102C189.447 72.792 189.631 73.39 189.815 73.896C189.999 74.356 190.16 74.747 190.298 75.069C190.482 75.391 190.574 75.667 190.574 75.897C190.574 75.943 190.528 76.012 190.436 76.104C190.39 76.15 190.344 76.173 190.298 76.173C189.976 76.173 189.562 76.104 189.056 75.966C188.55 75.828 187.975 75.621 187.331 75.345C186.733 75.115 186.112 74.839 185.468 74.517C184.87 74.195 184.295 73.85 183.743 73.482ZM198.803 70.377C198.803 69.963 198.826 69.457 198.872 68.859C198.964 68.215 199.102 67.387 199.286 66.375C199.47 65.317 199.7 64.052 199.976 62.58C200.298 61.108 200.689 59.337 201.149 57.267C201.241 56.807 201.448 56.071 201.77 55.059C202.092 54.047 202.506 52.989 203.012 51.885C203.564 50.735 204.208 49.631 204.944 48.573C205.726 47.515 206.646 46.733 207.704 46.227C208.486 46.411 209.521 46.894 210.809 47.676C212.097 48.412 213.201 49.447 214.121 50.781C213.063 51.977 212.166 53.173 211.43 54.369C210.74 55.565 210.096 56.807 209.498 58.095C208.946 59.383 208.417 60.717 207.911 62.097C207.451 63.477 206.922 64.926 206.324 66.444C205.818 67.732 205.358 69.066 204.944 70.446C204.53 71.78 204.3 72.953 204.254 73.965C204.254 74.793 204.231 75.368 204.185 75.69C204.185 76.058 204.07 76.242 203.84 76.242C203.656 76.242 203.288 76.127 202.736 75.897C202.184 75.667 201.609 75.322 201.011 74.862C200.459 74.356 199.953 73.735 199.493 72.999C199.033 72.263 198.803 71.389 198.803 70.377ZM211.982 40.431C211.982 40.155 212.051 39.741 212.189 39.189C211.959 38.959 211.752 38.614 211.568 38.154C211.43 37.694 211.361 37.28 211.361 36.912C211.361 36.498 211.407 35.946 211.499 35.256C211.637 34.52 211.798 33.738 211.982 32.91C212.166 32.082 212.396 31.231 212.672 30.357C212.948 29.437 213.224 28.609 213.5 27.873C214.052 27.873 214.719 28.034 215.501 28.356C216.329 28.632 217.157 29.023 217.985 29.529C218.813 29.989 219.572 30.518 220.262 31.116C220.952 31.668 221.481 32.197 221.849 32.703C221.343 33.209 220.676 33.922 219.848 34.842C219.02 35.716 218.215 36.659 217.433 37.671C216.651 38.637 215.938 39.557 215.294 40.431C214.65 41.305 214.236 41.926 214.052 42.294C213.5 42.202 213.017 41.972 212.603 41.604C212.189 41.19 211.982 40.799 211.982 40.431ZM218.64 48.573C218.41 48.297 218.203 47.722 218.019 46.848C217.835 45.928 217.743 45.146 217.743 44.502C218.939 44.594 220.089 44.686 221.193 44.778C222.297 44.824 223.309 44.87 224.229 44.916C224.919 43.536 225.655 42.179 226.437 40.845C227.265 39.465 228.047 38.223 228.783 37.119C229.565 35.969 230.278 35.003 230.922 34.221C231.612 33.439 232.141 32.933 232.509 32.703C232.969 32.703 233.544 32.795 234.234 32.979C234.97 33.117 235.706 33.324 236.442 33.6C237.178 33.83 237.845 34.083 238.443 34.359C239.041 34.635 239.455 34.911 239.685 35.187C238.305 36.935 237.109 38.568 236.097 40.086C235.131 41.558 234.073 43.26 232.923 45.192C233.843 45.192 234.763 45.169 235.683 45.123C236.649 45.077 237.615 45.008 238.581 44.916C238.811 45.146 238.995 45.445 239.133 45.813C239.271 46.135 239.34 46.48 239.34 46.848C237.086 47.676 234.349 48.136 231.129 48.228C229.979 50.436 228.944 52.644 228.024 54.852C227.15 57.014 226.391 59.107 225.747 61.131C225.149 63.155 224.666 65.064 224.298 66.858C223.976 68.652 223.815 70.262 223.815 71.688C223.815 73.712 224.574 74.839 226.092 75.069C227.472 74.885 228.783 74.54 230.025 74.034C231.267 73.528 232.371 72.884 233.337 72.102C233.613 72.516 233.774 72.861 233.82 73.137C233.544 73.551 233.061 74.034 232.371 74.586C231.727 75.138 231.014 75.667 230.232 76.173C229.45 76.725 228.691 77.185 227.955 77.553C227.219 77.921 226.667 78.128 226.299 78.174C225.149 78.128 223.999 77.875 222.849 77.415C221.699 76.955 220.641 76.38 219.675 75.69C218.755 75 217.996 74.241 217.398 73.413C216.8 72.539 216.501 71.688 216.501 70.86C216.501 69.756 216.639 68.376 216.915 66.72C217.237 65.018 217.674 63.178 218.226 61.2C218.778 59.222 219.422 57.152 220.158 54.99C220.894 52.828 221.699 50.689 222.573 48.573H218.64ZM263.529 46.434C263.345 49.286 262.839 51.747 262.011 53.817C261.183 55.841 259.987 57.635 258.423 59.199C256.905 60.717 255.042 62.097 252.834 63.339C250.626 64.581 248.05 65.777 245.106 66.927C245.106 67.203 245.083 67.502 245.037 67.824C245.037 68.1 245.037 68.399 245.037 68.721C245.037 69.319 245.083 69.94 245.175 70.584C245.267 71.228 245.428 71.826 245.658 72.378C245.888 72.93 246.21 73.39 246.624 73.758C247.038 74.08 247.567 74.241 248.211 74.241C249.453 74.241 250.672 73.965 251.868 73.413C253.064 72.861 254.191 72.194 255.249 71.412C256.353 70.584 257.365 69.71 258.285 68.79C259.251 67.824 260.102 66.95 260.838 66.168C261.298 66.582 261.689 66.973 262.011 67.341C259.941 70.101 257.664 72.401 255.18 74.241C252.742 76.035 250.419 77.185 248.211 77.691C245.037 77.323 242.553 76.173 240.759 74.241C239.011 72.263 238.137 69.894 238.137 67.134C238.137 65.248 238.39 63.339 238.896 61.407C239.448 59.429 240.184 57.543 241.104 55.749C242.07 53.909 243.174 52.184 244.416 50.574C245.704 48.964 247.061 47.561 248.487 46.365C249.959 45.169 251.454 44.226 252.972 43.536C254.536 42.846 256.077 42.501 257.595 42.501C259.711 42.777 261.689 44.088 263.529 46.434ZM258.768 48.711C257.526 48.895 256.238 49.401 254.904 50.229C253.57 51.057 252.305 52.161 251.109 53.541C249.959 54.921 248.901 56.531 247.935 58.371C246.969 60.211 246.21 62.189 245.658 64.305C249.338 62.465 252.397 60.211 254.835 57.543C257.273 54.829 258.584 51.885 258.768 48.711ZM285.511 71.067C285.511 69.411 285.764 67.272 286.27 64.65C286.822 61.982 287.512 59.13 288.34 56.094C289.214 53.012 290.203 49.884 291.307 46.71C292.411 43.49 293.538 40.477 294.688 37.671C295.838 34.865 296.965 32.404 298.069 30.288C299.173 28.172 300.162 26.654 301.036 25.734C301.496 25.78 302.094 25.964 302.83 26.286C303.612 26.562 304.394 26.907 305.176 27.321C305.958 27.735 306.671 28.195 307.315 28.701C307.959 29.161 308.373 29.598 308.557 30.012C307.223 31.208 305.889 33.025 304.555 35.463C303.267 37.855 302.002 40.592 300.76 43.674C299.564 46.756 298.437 50.022 297.379 53.472C296.321 56.876 295.401 60.188 294.619 63.408C293.837 66.628 293.216 69.618 292.756 72.378C292.342 75.138 292.135 77.369 292.135 79.071C292.135 79.853 292.204 80.336 292.342 80.52C291.33 80.474 290.594 80.29 290.134 79.968C289.674 79.692 289.306 79.37 289.03 79.002C288.8 78.68 288.57 78.335 288.34 77.967C288.156 77.645 287.857 77.392 287.443 77.208C287.121 77.07 286.845 76.748 286.615 76.242C286.385 75.736 286.178 75.184 285.994 74.586C285.856 73.942 285.741 73.298 285.649 72.654C285.557 72.01 285.511 71.481 285.511 71.067ZM314.962 41.535C316.158 41.903 317.285 42.731 318.343 44.019C319.401 45.261 320.183 46.641 320.689 48.159C320.183 49.401 319.401 50.896 318.343 52.644C317.285 54.392 316.227 56.186 315.169 58.026C314.111 59.82 313.145 61.545 312.271 63.201C311.443 64.811 310.96 66.145 310.822 67.203C311.558 66.421 312.363 65.524 313.237 64.512C314.157 63.454 315.031 62.419 315.859 61.407C316.733 60.349 317.538 59.406 318.274 58.578C319.01 57.704 319.585 57.06 319.999 56.646C320.873 55.726 321.908 54.668 323.104 53.472C324.3 52.23 325.542 51.08 326.83 50.022C328.164 48.918 329.498 47.998 330.832 47.262C332.166 46.48 333.385 46.089 334.489 46.089C335.685 46.089 336.674 46.503 337.456 47.331C338.284 48.113 338.928 48.941 339.388 49.815C339.388 49.907 339.204 50.045 338.836 50.229C338.514 50.367 338.031 50.804 337.387 51.54C336.743 52.368 336.007 53.518 335.179 54.99C334.397 56.416 333.615 57.98 332.833 59.682C332.097 61.338 331.476 63.04 330.97 64.788C330.464 66.536 330.211 68.123 330.211 69.549C330.211 70.699 330.349 71.435 330.625 71.757C330.947 72.079 331.384 72.24 331.936 72.24C332.442 72.24 332.971 72.125 333.523 71.895C334.075 71.665 334.512 71.55 334.834 71.55C335.018 71.642 335.156 71.849 335.248 72.171C335.386 72.447 335.455 72.7 335.455 72.93C335.087 73.252 334.65 73.574 334.144 73.896C333.638 74.218 333.109 74.517 332.557 74.793C332.005 75.069 331.453 75.299 330.901 75.483C330.395 75.667 329.935 75.759 329.521 75.759C328.187 75.759 327.083 75.552 326.209 75.138C325.381 74.77 324.714 74.264 324.208 73.62C323.748 72.976 323.426 72.217 323.242 71.343C323.058 70.423 322.966 69.457 322.966 68.445C322.966 67.893 323.012 67.272 323.104 66.582C323.196 65.892 323.38 65.087 323.656 64.167C323.932 63.201 324.323 62.074 324.829 60.786C325.335 59.452 325.979 57.865 326.761 56.025C326.669 56.025 326.048 56.347 324.898 56.991C323.748 57.635 322.506 58.624 321.172 59.958C319.01 62.028 317.055 64.075 315.307 66.099C313.605 68.123 311.857 70.377 310.063 72.861C309.051 74.287 308.154 75.483 307.372 76.449C306.636 77.461 305.992 78.128 305.44 78.45C304.474 77.898 303.761 77.116 303.301 76.104C302.841 75.138 302.496 74.126 302.266 73.068C302.266 72.194 302.381 71.09 302.611 69.756C302.887 68.422 303.232 66.95 303.646 65.34C304.106 63.684 304.658 61.959 305.302 60.165C305.946 58.371 306.659 56.577 307.441 54.783C309.189 50.735 310.776 47.561 312.202 45.261C313.674 42.961 314.594 41.719 314.962 41.535ZM364.852 47.538C364.806 48.412 364.645 49.332 364.369 50.298C364.139 51.218 363.84 52.069 363.472 52.851C363.104 53.587 362.713 54.208 362.299 54.714C361.885 55.22 361.494 55.473 361.126 55.473C360.62 55.427 360.321 55.082 360.229 54.438C360.229 54.3 360.275 54.093 360.367 53.817C360.505 53.495 360.643 53.15 360.781 52.782C360.919 52.414 361.034 52.046 361.126 51.678C361.264 51.31 361.333 50.988 361.333 50.712C361.333 50.068 361.172 49.539 360.85 49.125C360.574 48.665 360.183 48.435 359.677 48.435C357.837 48.435 356.434 49.585 355.468 51.885C354.502 54.185 354.019 57.566 354.019 62.028C354.019 62.488 354.042 62.764 354.088 62.856C355.054 62.81 355.905 62.787 356.641 62.787C357.423 62.741 358.182 62.718 358.918 62.718C358.964 62.81 358.987 62.994 358.987 63.27C358.987 63.684 358.895 63.983 358.711 64.167C357.653 64.397 356.802 64.604 356.158 64.788C355.56 64.926 355.1 65.064 354.778 65.202C354.456 65.34 354.249 65.501 354.157 65.685C354.111 65.823 354.088 66.03 354.088 66.306C354.088 66.674 354.088 67.042 354.088 67.41C354.134 67.778 354.157 68.238 354.157 68.79C354.157 72.654 353.099 75.759 350.983 78.105C348.913 80.451 346.015 81.808 342.289 82.176C341.645 82.13 340.978 81.946 340.288 81.624C339.598 81.302 338.931 80.888 338.287 80.382C337.689 79.876 337.16 79.301 336.7 78.657C336.24 78.059 335.918 77.438 335.734 76.794C335.734 75.046 336.102 73.39 336.838 71.826C337.574 70.216 338.563 68.813 339.805 67.617C341.093 66.375 342.588 65.386 344.29 64.65C346.038 63.868 347.924 63.408 349.948 63.27C349.948 62.12 349.833 60.993 349.603 59.889C349.373 58.785 349.12 57.727 348.844 56.715C348.614 55.657 348.384 54.645 348.154 53.679C347.924 52.667 347.809 51.678 347.809 50.712C347.809 49.47 348.062 48.251 348.568 47.055C349.074 45.813 349.741 44.686 350.569 43.674C351.397 42.616 352.363 41.719 353.467 40.983C354.571 40.247 355.721 39.741 356.917 39.465C357.423 39.603 358.09 40.017 358.918 40.707C359.792 41.351 360.643 42.087 361.471 42.915C362.299 43.743 363.035 44.594 363.679 45.468C364.323 46.296 364.714 46.986 364.852 47.538ZM342.082 79.002C343.186 78.542 344.221 77.875 345.187 77.001C346.199 76.127 347.073 75.138 347.809 74.034C348.545 72.93 349.12 71.757 349.534 70.515C349.994 69.273 350.224 68.054 350.224 66.858C349.304 66.996 348.292 67.433 347.188 68.169C346.084 68.859 345.049 69.71 344.083 70.722C343.117 71.688 342.312 72.7 341.668 73.758C341.024 74.816 340.702 75.736 340.702 76.518C340.702 77.53 341.162 78.358 342.082 79.002ZM364.969 70.377C364.969 69.963 364.992 69.457 365.038 68.859C365.13 68.215 365.268 67.387 365.452 66.375C365.636 65.317 365.866 64.052 366.142 62.58C366.464 61.108 366.855 59.337 367.315 57.267C367.407 56.807 367.614 56.071 367.936 55.059C368.258 54.047 368.672 52.989 369.178 51.885C369.73 50.735 370.374 49.631 371.11 48.573C371.892 47.515 372.812 46.733 373.87 46.227C374.652 46.411 375.687 46.894 376.975 47.676C378.263 48.412 379.367 49.447 380.287 50.781C379.229 51.977 378.332 53.173 377.596 54.369C376.906 55.565 376.262 56.807 375.664 58.095C375.112 59.383 374.583 60.717 374.077 62.097C373.617 63.477 373.088 64.926 372.49 66.444C371.984 67.732 371.524 69.066 371.11 70.446C370.696 71.78 370.466 72.953 370.42 73.965C370.42 74.793 370.397 75.368 370.351 75.69C370.351 76.058 370.236 76.242 370.006 76.242C369.822 76.242 369.454 76.127 368.902 75.897C368.35 75.667 367.775 75.322 367.177 74.862C366.625 74.356 366.119 73.735 365.659 72.999C365.199 72.263 364.969 71.389 364.969 70.377ZM378.148 40.431C378.148 40.155 378.217 39.741 378.355 39.189C378.125 38.959 377.918 38.614 377.734 38.154C377.596 37.694 377.527 37.28 377.527 36.912C377.527 36.498 377.573 35.946 377.665 35.256C377.803 34.52 377.964 33.738 378.148 32.91C378.332 32.082 378.562 31.231 378.838 30.357C379.114 29.437 379.39 28.609 379.666 27.873C380.218 27.873 380.885 28.034 381.667 28.356C382.495 28.632 383.323 29.023 384.151 29.529C384.979 29.989 385.738 30.518 386.428 31.116C387.118 31.668 387.647 32.197 388.015 32.703C387.509 33.209 386.842 33.922 386.014 34.842C385.186 35.716 384.381 36.659 383.599 37.671C382.817 38.637 382.104 39.557 381.46 40.431C380.816 41.305 380.402 41.926 380.218 42.294C379.666 42.202 379.183 41.972 378.769 41.604C378.355 41.19 378.148 40.799 378.148 40.431ZM367.269 95.562C367.269 95.286 367.361 95.033 367.545 94.803C367.729 94.573 367.936 94.343 368.166 94.113C368.718 94.619 369.201 95.01 369.615 95.286C369.983 95.562 370.351 95.792 370.719 95.976C371.041 96.16 371.386 96.275 371.754 96.321C372.122 96.367 372.559 96.39 373.065 96.39C375.457 96.39 377.734 95.746 379.896 94.458C382.058 93.216 384.082 91.399 385.968 89.007C387.9 86.615 389.648 83.694 391.212 80.244C392.776 76.794 394.156 72.884 395.352 68.514C394.8 69.066 394.11 69.687 393.282 70.377C392.5 71.021 391.672 71.642 390.798 72.24C389.924 72.838 389.05 73.39 388.176 73.896C387.348 74.402 386.635 74.77 386.037 75C385.255 74.862 384.519 74.54 383.829 74.034C383.185 73.482 382.61 72.815 382.104 72.033C381.598 71.251 381.207 70.377 380.931 69.411C380.655 68.399 380.517 67.341 380.517 66.237C380.517 64.443 380.839 62.603 381.483 60.717C382.173 58.831 383.07 56.991 384.174 55.197C385.278 53.357 386.566 51.632 388.038 50.022C389.556 48.412 391.143 47.009 392.799 45.813C394.501 44.617 396.203 43.674 397.905 42.984C399.653 42.248 401.355 41.88 403.011 41.88C404.621 41.88 405.817 42.225 406.599 42.915C407.427 43.559 408.025 44.686 408.393 46.296C407.887 46.02 407.243 45.882 406.461 45.882C405.357 45.882 404.069 46.319 402.597 47.193C401.171 48.067 399.699 49.217 398.181 50.643C396.709 52.023 395.237 53.633 393.765 55.473C392.293 57.267 390.982 59.107 389.832 60.993C388.728 62.879 387.808 64.719 387.072 66.513C386.382 68.307 386.037 69.917 386.037 71.343C386.037 71.665 386.06 71.872 386.106 71.964C386.152 72.01 386.221 72.033 386.313 72.033C386.727 72.033 387.279 71.803 387.969 71.343C388.705 70.883 389.51 70.308 390.384 69.618C391.304 68.882 392.247 68.054 393.213 67.134C394.179 66.168 395.099 65.202 395.973 64.236C397.951 62.028 399.745 59.567 401.355 56.853C403.011 54.093 404.322 51.425 405.288 48.849C406.53 48.941 407.634 49.148 408.6 49.47C409.566 49.792 410.233 50.137 410.601 50.505C409.037 54.093 407.772 57.106 406.806 59.544C405.886 61.982 405.081 64.144 404.391 66.03C403.149 69.342 401.976 72.355 400.872 75.069C399.814 77.829 398.71 80.359 397.56 82.659C396.456 85.005 395.237 87.167 393.903 89.145C392.615 91.169 391.143 93.101 389.487 94.941C388.705 95.815 387.808 96.574 386.796 97.218C385.83 97.908 384.818 98.483 383.76 98.943C382.748 99.403 381.736 99.748 380.724 99.978C379.758 100.208 378.861 100.323 378.033 100.323C376.929 100.323 375.802 100.185 374.652 99.909C373.502 99.679 372.444 99.334 371.478 98.874C370.466 98.46 369.592 97.954 368.856 97.356C368.12 96.804 367.591 96.206 367.269 95.562ZM423.448 41.535C424.644 41.903 425.771 42.731 426.829 44.019C427.887 45.261 428.669 46.641 429.175 48.159C428.669 49.401 427.887 50.896 426.829 52.644C425.771 54.392 424.713 56.186 423.655 58.026C422.597 59.82 421.631 61.545 420.757 63.201C419.929 64.811 419.446 66.145 419.308 67.203C420.044 66.421 420.849 65.524 421.723 64.512C422.643 63.454 423.517 62.419 424.345 61.407C425.219 60.349 426.024 59.406 426.76 58.578C427.496 57.704 428.071 57.06 428.485 56.646C429.359 55.726 430.394 54.668 431.59 53.472C432.786 52.23 434.028 51.08 435.316 50.022C436.65 48.918 437.984 47.998 439.318 47.262C440.652 46.48 441.871 46.089 442.975 46.089C444.171 46.089 445.16 46.503 445.942 47.331C446.77 48.113 447.414 48.941 447.874 49.815C447.874 49.907 447.69 50.045 447.322 50.229C447 50.367 446.517 50.804 445.873 51.54C445.229 52.368 444.493 53.518 443.665 54.99C442.883 56.416 442.101 57.98 441.319 59.682C440.583 61.338 439.962 63.04 439.456 64.788C438.95 66.536 438.697 68.123 438.697 69.549C438.697 70.699 438.835 71.435 439.111 71.757C439.433 72.079 439.87 72.24 440.422 72.24C440.928 72.24 441.457 72.125 442.009 71.895C442.561 71.665 442.998 71.55 443.32 71.55C443.504 71.642 443.642 71.849 443.734 72.171C443.872 72.447 443.941 72.7 443.941 72.93C443.573 73.252 443.136 73.574 442.63 73.896C442.124 74.218 441.595 74.517 441.043 74.793C440.491 75.069 439.939 75.299 439.387 75.483C438.881 75.667 438.421 75.759 438.007 75.759C436.673 75.759 435.569 75.552 434.695 75.138C433.867 74.77 433.2 74.264 432.694 73.62C432.234 72.976 431.912 72.217 431.728 71.343C431.544 70.423 431.452 69.457 431.452 68.445C431.452 67.893 431.498 67.272 431.59 66.582C431.682 65.892 431.866 65.087 432.142 64.167C432.418 63.201 432.809 62.074 433.315 60.786C433.821 59.452 434.465 57.865 435.247 56.025C435.155 56.025 434.534 56.347 433.384 56.991C432.234 57.635 430.992 58.624 429.658 59.958C427.496 62.028 425.541 64.075 423.793 66.099C422.091 68.123 420.343 70.377 418.549 72.861C417.537 74.287 416.64 75.483 415.858 76.449C415.122 77.461 414.478 78.128 413.926 78.45C412.96 77.898 412.247 77.116 411.787 76.104C411.327 75.138 410.982 74.126 410.752 73.068C410.752 72.194 410.867 71.09 411.097 69.756C411.373 68.422 411.718 66.95 412.132 65.34C412.592 63.684 413.144 61.959 413.788 60.165C414.432 58.371 415.145 56.577 415.927 54.783C417.675 50.735 419.262 47.561 420.688 45.261C422.16 42.961 423.08 41.719 423.448 41.535ZM449.602 70.377C449.602 69.963 449.625 69.457 449.671 68.859C449.763 68.215 449.901 67.387 450.085 66.375C450.269 65.317 450.499 64.052 450.775 62.58C451.097 61.108 451.488 59.337 451.948 57.267C452.04 56.807 452.247 56.071 452.569 55.059C452.891 54.047 453.305 52.989 453.811 51.885C454.363 50.735 455.007 49.631 455.743 48.573C456.525 47.515 457.445 46.733 458.503 46.227C459.285 46.411 460.32 46.894 461.608 47.676C462.896 48.412 464 49.447 464.92 50.781C463.862 51.977 462.965 53.173 462.229 54.369C461.539 55.565 460.895 56.807 460.297 58.095C459.745 59.383 459.216 60.717 458.71 62.097C458.25 63.477 457.721 64.926 457.123 66.444C456.617 67.732 456.157 69.066 455.743 70.446C455.329 71.78 455.099 72.953 455.053 73.965C455.053 74.793 455.03 75.368 454.984 75.69C454.984 76.058 454.869 76.242 454.639 76.242C454.455 76.242 454.087 76.127 453.535 75.897C452.983 75.667 452.408 75.322 451.81 74.862C451.258 74.356 450.752 73.735 450.292 72.999C449.832 72.263 449.602 71.389 449.602 70.377ZM462.781 40.431C462.781 40.155 462.85 39.741 462.988 39.189C462.758 38.959 462.551 38.614 462.367 38.154C462.229 37.694 462.16 37.28 462.16 36.912C462.16 36.498 462.206 35.946 462.298 35.256C462.436 34.52 462.597 33.738 462.781 32.91C462.965 32.082 463.195 31.231 463.471 30.357C463.747 29.437 464.023 28.609 464.299 27.873C464.851 27.873 465.518 28.034 466.3 28.356C467.128 28.632 467.956 29.023 468.784 29.529C469.612 29.989 470.371 30.518 471.061 31.116C471.751 31.668 472.28 32.197 472.648 32.703C472.142 33.209 471.475 33.922 470.647 34.842C469.819 35.716 469.014 36.659 468.232 37.671C467.45 38.637 466.737 39.557 466.093 40.431C465.449 41.305 465.035 41.926 464.851 42.294C464.299 42.202 463.816 41.972 463.402 41.604C462.988 41.19 462.781 40.799 462.781 40.431ZM495.176 44.709C495.406 44.709 495.889 44.732 496.625 44.778C497.407 44.778 498.281 44.801 499.247 44.847C500.213 44.847 501.179 44.893 502.145 44.985C503.157 45.077 504.008 45.192 504.698 45.33C505.158 45.836 505.503 46.319 505.733 46.779C504.675 48.159 503.663 49.723 502.697 51.471C501.731 53.219 500.834 55.036 500.006 56.922C499.178 58.762 498.419 60.602 497.729 62.442C497.085 64.236 496.51 65.915 496.004 67.479C495.544 68.997 495.153 70.331 494.831 71.481C494.555 72.631 494.394 73.459 494.348 73.965C494.256 74.793 494.21 75.368 494.21 75.69C494.256 76.058 494.164 76.242 493.934 76.242C493.75 76.242 493.382 76.127 492.83 75.897C492.278 75.667 491.703 75.322 491.105 74.862C490.553 74.356 490.047 73.735 489.587 72.999C489.127 72.263 488.897 71.389 488.897 70.377C488.897 69.089 489.081 67.479 489.449 65.547C489.817 63.569 490.3 61.545 490.898 59.475C491.496 57.405 492.186 55.427 492.968 53.541C493.75 51.609 494.555 50.045 495.383 48.849C493.911 48.757 492.439 48.688 490.967 48.642C489.495 48.55 488.023 48.504 486.551 48.504C486.045 48.504 485.539 48.504 485.033 48.504C484.527 48.504 484.021 48.527 483.515 48.573C481.215 55.795 479.145 62.097 477.305 67.479C475.511 72.861 473.832 77.461 472.268 81.279C470.75 85.143 469.278 88.294 467.852 90.732C466.472 93.216 465.069 95.148 463.643 96.528C462.263 97.954 460.791 98.943 459.227 99.495C457.663 100.047 455.938 100.323 454.052 100.323C450.786 100.323 448.003 99.219 445.703 97.011C445.703 96.689 445.795 96.344 445.979 95.976C446.163 95.608 446.37 95.355 446.6 95.217C447.244 95.999 448.095 96.597 449.153 97.011C450.211 97.471 451.315 97.701 452.465 97.701C453.661 97.701 454.765 97.425 455.777 96.873C456.743 96.367 457.709 95.493 458.675 94.251C459.595 93.009 460.515 91.376 461.435 89.352C462.401 87.328 463.436 84.821 464.54 81.831C466.15 77.415 467.806 72.401 469.508 66.789C471.256 61.177 473.027 55.243 474.821 48.987C473.073 49.079 471.624 49.194 470.474 49.332C469.324 49.47 468.565 49.562 468.197 49.608C468.013 49.424 467.852 49.171 467.714 48.849C467.622 48.527 467.576 48.228 467.576 47.952C468.312 47.722 469.347 47.469 470.681 47.193C472.061 46.871 473.717 46.549 475.649 46.227C476.753 42.915 477.972 39.925 479.306 37.257C480.64 34.543 482.066 32.243 483.584 30.357C485.148 28.471 486.804 27.022 488.552 26.01C490.346 24.998 492.278 24.492 494.348 24.492C495.084 24.492 495.889 24.653 496.763 24.975C497.683 25.251 498.557 25.573 499.385 25.941C500.259 26.263 501.041 26.585 501.731 26.907C502.421 27.183 502.95 27.321 503.318 27.321C503.87 26.999 504.629 26.723 505.595 26.493C506.607 26.217 507.458 26.079 508.148 26.079C508.7 26.079 509.413 26.378 510.287 26.976C509.873 27.62 509.459 28.494 509.045 29.598C508.631 30.702 508.309 31.783 508.079 32.841C506.929 36.245 505.71 38.453 504.422 39.465C504.192 39.465 503.985 39.327 503.801 39.051C503.663 38.729 503.594 38.2 503.594 37.464C503.594 36.958 503.479 36.498 503.249 36.084C503.019 35.67 502.743 35.256 502.421 34.842C502.145 34.428 501.892 34.014 501.662 33.6C501.432 33.186 501.317 32.749 501.317 32.289C501.317 32.013 501.34 31.691 501.386 31.323C501.432 30.909 501.524 30.242 501.662 29.322C501.11 29.276 500.558 29.253 500.006 29.253C499.5 29.207 498.994 29.184 498.488 29.184C496.694 29.184 495.084 29.621 493.658 30.495C492.278 31.369 491.036 32.565 489.932 34.083C488.828 35.555 487.839 37.257 486.965 39.189C486.091 41.075 485.309 43.053 484.619 45.123C486.229 45.031 487.885 44.939 489.587 44.847C491.335 44.755 493.198 44.709 495.176 44.709ZM529.333 47.124C529.793 47.124 530.322 47.216 530.92 47.4C531.564 47.538 532.139 47.745 532.645 48.021C533.151 48.251 533.565 48.504 533.887 48.78C534.255 49.056 534.439 49.309 534.439 49.539C533.519 51.471 532.668 53.426 531.886 55.404C531.104 57.336 530.437 59.199 529.885 60.993C529.333 62.787 528.896 64.466 528.574 66.03C528.298 67.594 528.16 68.951 528.16 70.101C528.16 71.389 528.298 72.47 528.574 73.344C528.85 74.172 529.31 74.77 529.954 75.138C529.402 75.506 528.689 75.805 527.815 76.035C526.941 76.265 526.159 76.38 525.469 76.38C522.985 76.38 521.743 74.678 521.743 71.274C521.743 68.652 522.617 65.064 524.365 60.51C523.445 62.626 522.387 64.627 521.191 66.513C519.995 68.353 518.776 69.986 517.534 71.412C516.292 72.838 515.027 74.011 513.739 74.931C512.497 75.805 511.347 76.334 510.289 76.518C508.587 76.426 507.207 75.621 506.149 74.103C505.091 72.539 504.562 70.561 504.562 68.169C504.562 65.593 505.114 62.879 506.218 60.027C507.322 57.175 508.725 54.53 510.427 52.092C512.175 49.654 514.061 47.63 516.085 46.02C518.109 44.364 520.064 43.49 521.95 43.398C522.41 43.536 522.916 43.812 523.468 44.226C524.066 44.64 524.618 45.123 525.124 45.675C525.676 46.227 526.136 46.802 526.504 47.4C526.872 47.952 527.079 48.435 527.125 48.849C525.285 49.125 523.376 50.022 521.398 51.54C519.466 53.058 517.695 54.898 516.085 57.06C514.521 59.176 513.233 61.453 512.221 63.891C511.209 66.329 510.703 68.606 510.703 70.722C510.703 71.596 511.025 72.148 511.669 72.378C513.003 72.102 514.544 70.975 516.292 68.997C518.04 66.973 520.156 63.868 522.64 59.682C523.1 58.854 523.606 57.934 524.158 56.922C524.756 55.91 525.354 54.852 525.952 53.748C526.55 52.644 527.125 51.54 527.677 50.436C528.275 49.286 528.827 48.182 529.333 47.124ZM549.117 41.535C550.313 41.903 551.44 42.731 552.498 44.019C553.556 45.261 554.338 46.641 554.844 48.159C554.338 49.401 553.556 50.896 552.498 52.644C551.44 54.392 550.382 56.186 549.324 58.026C548.266 59.82 547.3 61.545 546.426 63.201C545.598 64.811 545.115 66.145 544.977 67.203C545.713 66.421 546.518 65.524 547.392 64.512C548.312 63.454 549.186 62.419 550.014 61.407C550.888 60.349 551.693 59.406 552.429 58.578C553.165 57.704 553.74 57.06 554.154 56.646C555.028 55.726 556.063 54.668 557.259 53.472C558.455 52.23 559.697 51.08 560.985 50.022C562.319 48.918 563.653 47.998 564.987 47.262C566.321 46.48 567.54 46.089 568.644 46.089C569.84 46.089 570.829 46.503 571.611 47.331C572.439 48.113 573.083 48.941 573.543 49.815C573.543 49.907 573.359 50.045 572.991 50.229C572.669 50.367 572.186 50.804 571.542 51.54C570.898 52.368 570.162 53.518 569.334 54.99C568.552 56.416 567.77 57.98 566.988 59.682C566.252 61.338 565.631 63.04 565.125 64.788C564.619 66.536 564.366 68.123 564.366 69.549C564.366 70.699 564.504 71.435 564.78 71.757C565.102 72.079 565.539 72.24 566.091 72.24C566.597 72.24 567.126 72.125 567.678 71.895C568.23 71.665 568.667 71.55 568.989 71.55C569.173 71.642 569.311 71.849 569.403 72.171C569.541 72.447 569.61 72.7 569.61 72.93C569.242 73.252 568.805 73.574 568.299 73.896C567.793 74.218 567.264 74.517 566.712 74.793C566.16 75.069 565.608 75.299 565.056 75.483C564.55 75.667 564.09 75.759 563.676 75.759C562.342 75.759 561.238 75.552 560.364 75.138C559.536 74.77 558.869 74.264 558.363 73.62C557.903 72.976 557.581 72.217 557.397 71.343C557.213 70.423 557.121 69.457 557.121 68.445C557.121 67.893 557.167 67.272 557.259 66.582C557.351 65.892 557.535 65.087 557.811 64.167C558.087 63.201 558.478 62.074 558.984 60.786C559.49 59.452 560.134 57.865 560.916 56.025C560.824 56.025 560.203 56.347 559.053 56.991C557.903 57.635 556.661 58.624 555.327 59.958C553.165 62.028 551.21 64.075 549.462 66.099C547.76 68.123 546.012 70.377 544.218 72.861C543.206 74.287 542.309 75.483 541.527 76.449C540.791 77.461 540.147 78.128 539.595 78.45C538.629 77.898 537.916 77.116 537.456 76.104C536.996 75.138 536.651 74.126 536.421 73.068C536.421 72.194 536.536 71.09 536.766 69.756C537.042 68.422 537.387 66.95 537.801 65.34C538.261 63.684 538.813 61.959 539.457 60.165C540.101 58.371 540.814 56.577 541.596 54.783C543.344 50.735 544.931 47.561 546.357 45.261C547.829 42.961 548.749 41.719 549.117 41.535ZM579.273 48.573C579.043 48.297 578.836 47.722 578.652 46.848C578.468 45.928 578.376 45.146 578.376 44.502C579.572 44.594 580.722 44.686 581.826 44.778C582.93 44.824 583.942 44.87 584.862 44.916C585.552 43.536 586.288 42.179 587.07 40.845C587.898 39.465 588.68 38.223 589.416 37.119C590.198 35.969 590.911 35.003 591.555 34.221C592.245 33.439 592.774 32.933 593.142 32.703C593.602 32.703 594.177 32.795 594.867 32.979C595.603 33.117 596.339 33.324 597.075 33.6C597.811 33.83 598.478 34.083 599.076 34.359C599.674 34.635 600.088 34.911 600.318 35.187C598.938 36.935 597.742 38.568 596.73 40.086C595.764 41.558 594.706 43.26 593.556 45.192C594.476 45.192 595.396 45.169 596.316 45.123C597.282 45.077 598.248 45.008 599.214 44.916C599.444 45.146 599.628 45.445 599.766 45.813C599.904 46.135 599.973 46.48 599.973 46.848C597.719 47.676 594.982 48.136 591.762 48.228C590.612 50.436 589.577 52.644 588.657 54.852C587.783 57.014 587.024 59.107 586.38 61.131C585.782 63.155 585.299 65.064 584.931 66.858C584.609 68.652 584.448 70.262 584.448 71.688C584.448 73.712 585.207 74.839 586.725 75.069C588.105 74.885 589.416 74.54 590.658 74.034C591.9 73.528 593.004 72.884 593.97 72.102C594.246 72.516 594.407 72.861 594.453 73.137C594.177 73.551 593.694 74.034 593.004 74.586C592.36 75.138 591.647 75.667 590.865 76.173C590.083 76.725 589.324 77.185 588.588 77.553C587.852 77.921 587.3 78.128 586.932 78.174C585.782 78.128 584.632 77.875 583.482 77.415C582.332 76.955 581.274 76.38 580.308 75.69C579.388 75 578.629 74.241 578.031 73.413C577.433 72.539 577.134 71.688 577.134 70.86C577.134 69.756 577.272 68.376 577.548 66.72C577.87 65.018 578.307 63.178 578.859 61.2C579.411 59.222 580.055 57.152 580.791 54.99C581.527 52.828 582.332 50.689 583.206 48.573H579.273ZM624.162 46.434C623.978 49.286 623.472 51.747 622.644 53.817C621.816 55.841 620.62 57.635 619.056 59.199C617.538 60.717 615.675 62.097 613.467 63.339C611.259 64.581 608.683 65.777 605.739 66.927C605.739 67.203 605.716 67.502 605.67 67.824C605.67 68.1 605.67 68.399 605.67 68.721C605.67 69.319 605.716 69.94 605.808 70.584C605.9 71.228 606.061 71.826 606.291 72.378C606.521 72.93 606.843 73.39 607.257 73.758C607.671 74.08 608.2 74.241 608.844 74.241C610.086 74.241 611.305 73.965 612.501 73.413C613.697 72.861 614.824 72.194 615.882 71.412C616.986 70.584 617.998 69.71 618.918 68.79C619.884 67.824 620.735 66.95 621.471 66.168C621.931 66.582 622.322 66.973 622.644 67.341C620.574 70.101 618.297 72.401 615.813 74.241C613.375 76.035 611.052 77.185 608.844 77.691C605.67 77.323 603.186 76.173 601.392 74.241C599.644 72.263 598.77 69.894 598.77 67.134C598.77 65.248 599.023 63.339 599.529 61.407C600.081 59.429 600.817 57.543 601.737 55.749C602.703 53.909 603.807 52.184 605.049 50.574C606.337 48.964 607.694 47.561 609.12 46.365C610.592 45.169 612.087 44.226 613.605 43.536C615.169 42.846 616.71 42.501 618.228 42.501C620.344 42.777 622.322 44.088 624.162 46.434ZM619.401 48.711C618.159 48.895 616.871 49.401 615.537 50.229C614.203 51.057 612.938 52.161 611.742 53.541C610.592 54.921 609.534 56.531 608.568 58.371C607.602 60.211 606.843 62.189 606.291 64.305C609.971 62.465 613.03 60.211 615.468 57.543C617.906 54.829 619.217 51.885 619.401 48.711Z" fill="#0A1128"/>
</svg>
